G04 EAGLE Gerber RS-274X export*
G75*
%MOMM*%
%FSLAX34Y34*%
%LPD*%
%INTop Copper*%
%IPPOS*%
%AMOC8*
5,1,8,0,0,1.08239X$1,22.5*%
G01*
%ADD10C,1.422400*%
%ADD11R,0.660000X1.340000*%
%ADD12R,10.300000X5.250000*%
%ADD13R,6.230000X5.250000*%
%ADD14R,1.803000X1.600000*%
%ADD15R,1.600000X1.803000*%
%ADD16R,1.600000X0.900000*%
%ADD17R,1.300000X0.800000*%
%ADD18R,0.609600X1.270000*%
%ADD19R,0.609600X1.016000*%
%ADD20R,3.911600X3.810000*%
%ADD21R,1.200000X1.400000*%
%ADD22R,1.779778X1.779778*%
%ADD23C,1.879600*%
%ADD24C,1.304800*%
%ADD25R,1.780000X0.330000*%
%ADD26R,3.000000X3.100000*%
%ADD27R,0.500000X0.600000*%
%ADD28R,0.600000X0.500000*%
%ADD29R,0.700000X1.300000*%
%ADD30R,2.500000X3.250000*%
%ADD31R,1.300000X0.700000*%
%ADD32R,0.900000X0.600000*%
%ADD33C,0.609600*%
%ADD34C,0.508000*%
%ADD35C,0.609600*%
%ADD36C,0.812800*%
%ADD37C,0.406400*%
%ADD38C,0.304800*%
%ADD39C,1.016000*%
%ADD40C,0.254000*%
%ADD41C,0.525000*%
%ADD42C,0.600000*%

G36*
X357478Y134787D02*
X357478Y134787D01*
X357536Y134786D01*
X357618Y134807D01*
X357702Y134819D01*
X357755Y134843D01*
X357811Y134858D01*
X357884Y134901D01*
X357961Y134935D01*
X358006Y134973D01*
X358056Y135003D01*
X358114Y135065D01*
X358178Y135119D01*
X358210Y135168D01*
X358250Y135210D01*
X358289Y135285D01*
X358336Y135356D01*
X358353Y135411D01*
X358380Y135463D01*
X358391Y135532D01*
X358421Y135627D01*
X358424Y135726D01*
X358435Y135795D01*
X358435Y164891D01*
X364109Y170565D01*
X409891Y170565D01*
X413565Y166891D01*
X413565Y135795D01*
X413573Y135737D01*
X413571Y135678D01*
X413593Y135597D01*
X413605Y135513D01*
X413628Y135460D01*
X413643Y135403D01*
X413686Y135331D01*
X413721Y135254D01*
X413759Y135209D01*
X413788Y135159D01*
X413850Y135101D01*
X413904Y135037D01*
X413953Y135004D01*
X413996Y134964D01*
X414071Y134926D01*
X414141Y134879D01*
X414197Y134861D01*
X414249Y134835D01*
X414317Y134823D01*
X414412Y134793D01*
X414512Y134791D01*
X414580Y134779D01*
X435360Y134779D01*
X435361Y134780D01*
X435363Y134779D01*
X435502Y134799D01*
X435641Y134819D01*
X435643Y134820D01*
X435644Y134820D01*
X435770Y134877D01*
X435901Y134935D01*
X435902Y134936D01*
X435903Y134937D01*
X436011Y135028D01*
X436118Y135119D01*
X436119Y135120D01*
X436120Y135121D01*
X436128Y135134D01*
X436275Y135356D01*
X436285Y135385D01*
X436298Y135406D01*
X436797Y136611D01*
X436819Y136696D01*
X436850Y136778D01*
X436854Y136833D01*
X436868Y136887D01*
X436866Y136974D01*
X436873Y137061D01*
X436862Y137109D01*
X436860Y137171D01*
X436815Y137312D01*
X436797Y137389D01*
X435887Y139585D01*
X435887Y142415D01*
X436970Y145029D01*
X438658Y146717D01*
X438710Y146787D01*
X438770Y146851D01*
X438796Y146900D01*
X438829Y146944D01*
X438860Y147026D01*
X438900Y147104D01*
X438908Y147151D01*
X438930Y147210D01*
X438942Y147357D01*
X438955Y147435D01*
X438955Y167934D01*
X441336Y170315D01*
X469704Y170315D01*
X472085Y167934D01*
X472085Y146395D01*
X472097Y146308D01*
X472100Y146221D01*
X472117Y146168D01*
X472125Y146113D01*
X472160Y146033D01*
X472187Y145950D01*
X472215Y145911D01*
X472241Y145854D01*
X472337Y145741D01*
X472382Y145677D01*
X473030Y145029D01*
X474113Y142415D01*
X474113Y139585D01*
X473203Y137389D01*
X473181Y137304D01*
X473150Y137222D01*
X473146Y137167D01*
X473132Y137113D01*
X473134Y137026D01*
X473127Y136939D01*
X473138Y136891D01*
X473140Y136829D01*
X473185Y136688D01*
X473203Y136611D01*
X473702Y135406D01*
X473703Y135405D01*
X473703Y135403D01*
X473774Y135285D01*
X473847Y135161D01*
X473848Y135160D01*
X473849Y135159D01*
X473953Y135061D01*
X474053Y134966D01*
X474055Y134965D01*
X474056Y134964D01*
X474182Y134900D01*
X474306Y134836D01*
X474308Y134836D01*
X474309Y134835D01*
X474324Y134832D01*
X474585Y134781D01*
X474615Y134783D01*
X474640Y134779D01*
X860000Y134779D01*
X860058Y134787D01*
X860116Y134786D01*
X860198Y134807D01*
X860282Y134819D01*
X860335Y134843D01*
X860391Y134858D01*
X860464Y134901D01*
X860541Y134935D01*
X860586Y134973D01*
X860636Y135003D01*
X860694Y135065D01*
X860758Y135119D01*
X860790Y135168D01*
X860830Y135210D01*
X860869Y135285D01*
X860916Y135356D01*
X860933Y135411D01*
X860960Y135463D01*
X860971Y135532D01*
X861001Y135627D01*
X861004Y135726D01*
X861015Y135795D01*
X861015Y178505D01*
X861011Y178534D01*
X861014Y178564D01*
X860991Y178675D01*
X860975Y178787D01*
X860963Y178814D01*
X860958Y178842D01*
X860906Y178943D01*
X860859Y179046D01*
X860840Y179069D01*
X860827Y179095D01*
X860749Y179177D01*
X860676Y179263D01*
X860651Y179279D01*
X860631Y179301D01*
X860533Y179358D01*
X860439Y179421D01*
X860411Y179430D01*
X860386Y179444D01*
X860276Y179472D01*
X860168Y179507D01*
X860138Y179507D01*
X860110Y179515D01*
X859997Y179511D01*
X859884Y179514D01*
X859855Y179506D01*
X859826Y179506D01*
X859718Y179471D01*
X859609Y179442D01*
X859583Y179427D01*
X859555Y179418D01*
X859492Y179373D01*
X859364Y179297D01*
X859321Y179251D01*
X859282Y179223D01*
X859029Y178970D01*
X856415Y177887D01*
X853585Y177887D01*
X850971Y178970D01*
X848970Y180971D01*
X848539Y182011D01*
X848523Y182038D01*
X848514Y182068D01*
X848503Y182083D01*
X847445Y184636D01*
X847445Y186570D01*
X847437Y186626D01*
X847439Y186673D01*
X847438Y186675D01*
X847439Y186686D01*
X847417Y186768D01*
X847405Y186852D01*
X847382Y186905D01*
X847367Y186961D01*
X847324Y187034D01*
X847289Y187111D01*
X847251Y187156D01*
X847222Y187206D01*
X847160Y187264D01*
X847106Y187328D01*
X847057Y187360D01*
X847014Y187400D01*
X846939Y187439D01*
X846869Y187486D01*
X846813Y187503D01*
X846761Y187530D01*
X846693Y187541D01*
X846598Y187571D01*
X846498Y187574D01*
X846430Y187585D01*
X839216Y187585D01*
X836835Y189966D01*
X836835Y190634D01*
X836827Y190689D01*
X836829Y190734D01*
X836828Y190736D01*
X836829Y190750D01*
X836807Y190832D01*
X836795Y190916D01*
X836772Y190969D01*
X836757Y191025D01*
X836714Y191098D01*
X836679Y191175D01*
X836641Y191220D01*
X836612Y191270D01*
X836550Y191328D01*
X836496Y191392D01*
X836447Y191424D01*
X836404Y191464D01*
X836329Y191503D01*
X836259Y191550D01*
X836203Y191567D01*
X836151Y191594D01*
X836083Y191605D01*
X835999Y191632D01*
X835999Y197716D01*
X835991Y197774D01*
X835993Y197832D01*
X835971Y197914D01*
X835959Y197997D01*
X835936Y198051D01*
X835921Y198107D01*
X835878Y198180D01*
X835843Y198257D01*
X835805Y198301D01*
X835776Y198352D01*
X835772Y198354D01*
X835774Y198357D01*
X835814Y198400D01*
X835853Y198475D01*
X835900Y198545D01*
X835917Y198601D01*
X835944Y198653D01*
X835955Y198721D01*
X835985Y198816D01*
X835988Y198916D01*
X835999Y198984D01*
X835999Y205074D01*
X836018Y205079D01*
X836102Y205091D01*
X836155Y205114D01*
X836211Y205129D01*
X836284Y205172D01*
X836361Y205207D01*
X836406Y205245D01*
X836456Y205274D01*
X836514Y205336D01*
X836578Y205390D01*
X836610Y205439D01*
X836650Y205482D01*
X836689Y205557D01*
X836736Y205627D01*
X836753Y205683D01*
X836780Y205735D01*
X836791Y205803D01*
X836821Y205898D01*
X836824Y205998D01*
X836835Y206066D01*
X836835Y206734D01*
X837718Y207616D01*
X837718Y207617D01*
X839216Y209115D01*
X859034Y209115D01*
X859282Y208866D01*
X859306Y208849D01*
X859325Y208826D01*
X859419Y208763D01*
X859509Y208695D01*
X859537Y208685D01*
X859561Y208669D01*
X859669Y208634D01*
X859775Y208594D01*
X859804Y208592D01*
X859832Y208583D01*
X859946Y208580D01*
X860058Y208571D01*
X860087Y208576D01*
X860116Y208576D01*
X860226Y208604D01*
X860337Y208626D01*
X860363Y208640D01*
X860391Y208647D01*
X860489Y208705D01*
X860589Y208757D01*
X860611Y208778D01*
X860636Y208793D01*
X860713Y208875D01*
X860795Y208953D01*
X860810Y208979D01*
X860830Y209000D01*
X860882Y209101D01*
X860939Y209199D01*
X860946Y209227D01*
X860960Y209253D01*
X860973Y209330D01*
X861009Y209474D01*
X861007Y209537D01*
X861015Y209584D01*
X861015Y228266D01*
X861011Y228295D01*
X861014Y228324D01*
X860991Y228435D01*
X860975Y228547D01*
X860963Y228574D01*
X860958Y228603D01*
X860906Y228703D01*
X860859Y228807D01*
X860840Y228829D01*
X860827Y228855D01*
X860749Y228937D01*
X860676Y229024D01*
X860651Y229040D01*
X860631Y229061D01*
X860533Y229119D01*
X860439Y229181D01*
X860411Y229190D01*
X860386Y229205D01*
X860276Y229233D01*
X860168Y229267D01*
X860138Y229268D01*
X860110Y229275D01*
X859997Y229271D01*
X859884Y229274D01*
X859855Y229267D01*
X859826Y229266D01*
X859718Y229231D01*
X859609Y229203D01*
X859583Y229188D01*
X859576Y229185D01*
X852097Y229185D01*
X852010Y229173D01*
X851923Y229170D01*
X851870Y229153D01*
X851815Y229145D01*
X851736Y229110D01*
X851652Y229083D01*
X851620Y229060D01*
X848905Y227935D01*
X846095Y227935D01*
X843408Y229048D01*
X843394Y229059D01*
X843312Y229090D01*
X843234Y229130D01*
X843187Y229138D01*
X843128Y229160D01*
X842980Y229172D01*
X842903Y229185D01*
X834597Y229185D01*
X834510Y229173D01*
X834423Y229170D01*
X834370Y229153D01*
X834315Y229145D01*
X834236Y229110D01*
X834152Y229083D01*
X834120Y229060D01*
X833826Y228938D01*
X831405Y227935D01*
X828595Y227935D01*
X826174Y228938D01*
X825908Y229048D01*
X825894Y229059D01*
X825812Y229090D01*
X825734Y229130D01*
X825687Y229138D01*
X825628Y229160D01*
X825480Y229172D01*
X825403Y229185D01*
X819597Y229185D01*
X819510Y229173D01*
X819423Y229170D01*
X819370Y229153D01*
X819315Y229145D01*
X819236Y229110D01*
X819152Y229083D01*
X819120Y229060D01*
X818826Y228938D01*
X816405Y227935D01*
X813595Y227935D01*
X812389Y228435D01*
X812388Y228435D01*
X810908Y229048D01*
X810894Y229059D01*
X810812Y229090D01*
X810734Y229130D01*
X810687Y229138D01*
X810628Y229160D01*
X810480Y229172D01*
X810403Y229185D01*
X804597Y229185D01*
X804510Y229173D01*
X804422Y229170D01*
X804370Y229153D01*
X804315Y229145D01*
X804235Y229110D01*
X804152Y229082D01*
X804120Y229060D01*
X801405Y227935D01*
X798595Y227935D01*
X795908Y229048D01*
X795895Y229058D01*
X795812Y229090D01*
X795734Y229130D01*
X795687Y229138D01*
X795629Y229160D01*
X795480Y229172D01*
X795403Y229185D01*
X793816Y229185D01*
X791435Y231566D01*
X791435Y287434D01*
X792188Y288186D01*
X792205Y288210D01*
X792228Y288229D01*
X792291Y288323D01*
X792359Y288413D01*
X792369Y288441D01*
X792385Y288465D01*
X792420Y288573D01*
X792460Y288679D01*
X792462Y288708D01*
X792471Y288736D01*
X792474Y288850D01*
X792483Y288962D01*
X792478Y288991D01*
X792478Y289020D01*
X792450Y289130D01*
X792428Y289241D01*
X792414Y289267D01*
X792407Y289295D01*
X792349Y289393D01*
X792297Y289493D01*
X792276Y289515D01*
X792261Y289540D01*
X792179Y289617D01*
X792101Y289699D01*
X792075Y289714D01*
X792054Y289734D01*
X791953Y289786D01*
X791855Y289843D01*
X791827Y289850D01*
X791801Y289864D01*
X791724Y289877D01*
X791580Y289913D01*
X791517Y289911D01*
X791470Y289919D01*
X778530Y289919D01*
X778501Y289915D01*
X778472Y289918D01*
X778361Y289895D01*
X778249Y289879D01*
X778222Y289867D01*
X778193Y289862D01*
X778092Y289809D01*
X777989Y289763D01*
X777967Y289744D01*
X777941Y289731D01*
X777859Y289653D01*
X777772Y289580D01*
X777756Y289555D01*
X777735Y289535D01*
X777677Y289437D01*
X777615Y289343D01*
X777606Y289315D01*
X777591Y289290D01*
X777563Y289180D01*
X777529Y289072D01*
X777528Y289042D01*
X777521Y289014D01*
X777524Y288901D01*
X777522Y288788D01*
X777529Y288759D01*
X777530Y288730D01*
X777565Y288622D01*
X777593Y288513D01*
X777608Y288487D01*
X777617Y288459D01*
X777663Y288395D01*
X777739Y288268D01*
X777784Y288225D01*
X777812Y288186D01*
X778565Y287434D01*
X778565Y231566D01*
X776184Y229185D01*
X774597Y229185D01*
X774510Y229173D01*
X774423Y229170D01*
X774370Y229153D01*
X774315Y229145D01*
X774236Y229110D01*
X774152Y229083D01*
X774120Y229060D01*
X771405Y227935D01*
X768595Y227935D01*
X765908Y229048D01*
X765894Y229059D01*
X765812Y229090D01*
X765734Y229130D01*
X765687Y229138D01*
X765628Y229160D01*
X765480Y229172D01*
X765403Y229185D01*
X757097Y229185D01*
X757010Y229173D01*
X756923Y229170D01*
X756870Y229153D01*
X756815Y229145D01*
X756736Y229110D01*
X756652Y229083D01*
X756620Y229060D01*
X753905Y227935D01*
X751095Y227935D01*
X748408Y229048D01*
X748394Y229059D01*
X748312Y229090D01*
X748234Y229130D01*
X748187Y229138D01*
X748128Y229160D01*
X747980Y229172D01*
X747903Y229185D01*
X739597Y229185D01*
X739510Y229173D01*
X739423Y229170D01*
X739370Y229153D01*
X739315Y229145D01*
X739236Y229110D01*
X739152Y229083D01*
X739120Y229060D01*
X736405Y227935D01*
X733595Y227935D01*
X730908Y229048D01*
X730894Y229059D01*
X730812Y229090D01*
X730734Y229130D01*
X730687Y229138D01*
X730628Y229160D01*
X730480Y229172D01*
X730403Y229185D01*
X722097Y229185D01*
X722010Y229173D01*
X721923Y229170D01*
X721870Y229153D01*
X721815Y229145D01*
X721736Y229110D01*
X721652Y229083D01*
X721620Y229060D01*
X718905Y227935D01*
X716095Y227935D01*
X713408Y229048D01*
X713394Y229059D01*
X713312Y229090D01*
X713234Y229130D01*
X713187Y229138D01*
X713128Y229160D01*
X712980Y229172D01*
X712903Y229185D01*
X710516Y229185D01*
X708135Y231566D01*
X708135Y287434D01*
X708888Y288186D01*
X708905Y288210D01*
X708928Y288229D01*
X708991Y288323D01*
X709059Y288413D01*
X709069Y288441D01*
X709085Y288465D01*
X709120Y288573D01*
X709160Y288679D01*
X709162Y288708D01*
X709171Y288736D01*
X709174Y288850D01*
X709183Y288962D01*
X709178Y288991D01*
X709178Y289020D01*
X709150Y289130D01*
X709128Y289241D01*
X709114Y289267D01*
X709107Y289295D01*
X709049Y289393D01*
X708997Y289493D01*
X708976Y289515D01*
X708961Y289540D01*
X708879Y289617D01*
X708801Y289699D01*
X708775Y289714D01*
X708754Y289734D01*
X708653Y289786D01*
X708555Y289843D01*
X708527Y289850D01*
X708501Y289864D01*
X708424Y289877D01*
X708280Y289913D01*
X708217Y289911D01*
X708170Y289919D01*
X706705Y289919D01*
X706647Y289911D01*
X706589Y289913D01*
X706507Y289891D01*
X706423Y289879D01*
X706370Y289856D01*
X706314Y289841D01*
X706241Y289798D01*
X706164Y289763D01*
X706119Y289725D01*
X706069Y289696D01*
X706011Y289634D01*
X705947Y289580D01*
X705915Y289531D01*
X705875Y289488D01*
X705836Y289413D01*
X705789Y289343D01*
X705772Y289287D01*
X705745Y289235D01*
X705734Y289167D01*
X705704Y289072D01*
X705701Y288972D01*
X705690Y288904D01*
X705690Y288669D01*
X704671Y286211D01*
X702789Y284329D01*
X700331Y283310D01*
X697669Y283310D01*
X695198Y284334D01*
X695168Y284342D01*
X695140Y284356D01*
X695063Y284369D01*
X694923Y284405D01*
X694858Y284403D01*
X694809Y284411D01*
X670735Y284411D01*
X670649Y284399D01*
X670561Y284396D01*
X670509Y284379D01*
X670454Y284371D01*
X670374Y284336D01*
X670291Y284309D01*
X670252Y284281D01*
X670195Y284255D01*
X670081Y284159D01*
X670018Y284114D01*
X669886Y283982D01*
X669834Y283913D01*
X669774Y283849D01*
X669748Y283799D01*
X669715Y283755D01*
X669684Y283674D01*
X669644Y283596D01*
X669636Y283548D01*
X669614Y283490D01*
X669602Y283342D01*
X669589Y283265D01*
X669589Y238888D01*
X668738Y236834D01*
X654166Y222262D01*
X652112Y221411D01*
X455888Y221411D01*
X453834Y222262D01*
X450262Y225834D01*
X449411Y227888D01*
X449411Y241904D01*
X449403Y241962D01*
X449405Y242020D01*
X449383Y242102D01*
X449371Y242186D01*
X449348Y242239D01*
X449333Y242295D01*
X449290Y242368D01*
X449255Y242445D01*
X449217Y242490D01*
X449188Y242540D01*
X449126Y242598D01*
X449072Y242662D01*
X449023Y242694D01*
X448980Y242734D01*
X448905Y242773D01*
X448835Y242820D01*
X448779Y242837D01*
X448727Y242864D01*
X448659Y242875D01*
X448564Y242905D01*
X448464Y242908D01*
X448396Y242919D01*
X406989Y242919D01*
X405122Y243693D01*
X389193Y259622D01*
X389123Y259674D01*
X389059Y259734D01*
X389010Y259760D01*
X388966Y259793D01*
X388884Y259824D01*
X388806Y259864D01*
X388758Y259872D01*
X388700Y259894D01*
X388552Y259906D01*
X388475Y259919D01*
X225000Y259919D01*
X224942Y259911D01*
X224884Y259913D01*
X224802Y259891D01*
X224719Y259879D01*
X224665Y259856D01*
X224609Y259841D01*
X224536Y259798D01*
X224459Y259763D01*
X224414Y259725D01*
X224364Y259696D01*
X224306Y259634D01*
X224242Y259580D01*
X224210Y259531D01*
X224170Y259488D01*
X224131Y259413D01*
X224085Y259343D01*
X224067Y259287D01*
X224040Y259235D01*
X224029Y259167D01*
X223999Y259072D01*
X223996Y258972D01*
X223985Y258904D01*
X223985Y135795D01*
X223993Y135737D01*
X223991Y135678D01*
X224013Y135597D01*
X224025Y135513D01*
X224049Y135460D01*
X224063Y135403D01*
X224106Y135331D01*
X224141Y135254D01*
X224179Y135209D01*
X224209Y135159D01*
X224270Y135101D01*
X224325Y135037D01*
X224373Y135004D01*
X224416Y134964D01*
X224491Y134926D01*
X224561Y134879D01*
X224617Y134861D01*
X224669Y134835D01*
X224737Y134823D01*
X224832Y134793D01*
X224932Y134791D01*
X225000Y134779D01*
X357420Y134779D01*
X357478Y134787D01*
G37*
G36*
X260008Y79502D02*
X260008Y79502D01*
X260017Y79501D01*
X260105Y79522D01*
X260195Y79540D01*
X260202Y79545D01*
X260210Y79547D01*
X260283Y79601D01*
X260359Y79653D01*
X260363Y79660D01*
X260370Y79665D01*
X260417Y79743D01*
X260466Y79820D01*
X260467Y79829D01*
X260472Y79836D01*
X260499Y80000D01*
X260499Y107000D01*
X260498Y107008D01*
X260499Y107016D01*
X260478Y107105D01*
X260460Y107195D01*
X260455Y107202D01*
X260453Y107210D01*
X260399Y107283D01*
X260347Y107359D01*
X260340Y107363D01*
X260335Y107370D01*
X260257Y107416D01*
X260180Y107466D01*
X260171Y107467D01*
X260164Y107471D01*
X260000Y107499D01*
X259999Y107499D01*
X259999Y108000D01*
X259997Y108008D01*
X259999Y108016D01*
X259978Y108105D01*
X259960Y108195D01*
X259955Y108202D01*
X259953Y108210D01*
X259899Y108283D01*
X259847Y108359D01*
X259840Y108363D01*
X259835Y108370D01*
X259757Y108416D01*
X259679Y108466D01*
X259671Y108467D01*
X259664Y108471D01*
X259500Y108499D01*
X255499Y108499D01*
X255499Y110000D01*
X255498Y110008D01*
X255499Y110017D01*
X255478Y110105D01*
X255460Y110195D01*
X255455Y110202D01*
X255453Y110210D01*
X255399Y110283D01*
X255347Y110359D01*
X255340Y110363D01*
X255335Y110370D01*
X255257Y110417D01*
X255180Y110466D01*
X255171Y110467D01*
X255164Y110472D01*
X255000Y110499D01*
X230207Y110499D01*
X220499Y120207D01*
X220499Y132903D01*
X220497Y132916D01*
X220499Y132928D01*
X220477Y133012D01*
X220460Y133098D01*
X220453Y133109D01*
X220449Y133121D01*
X220353Y133256D01*
X219919Y133690D01*
X219919Y263985D01*
X390580Y263985D01*
X407282Y247282D01*
X407352Y247230D01*
X407416Y247170D01*
X407465Y247144D01*
X407509Y247111D01*
X407591Y247080D01*
X407669Y247040D01*
X407717Y247032D01*
X407775Y247010D01*
X407923Y246998D01*
X408000Y246985D01*
X417436Y246985D01*
X417494Y246993D01*
X417552Y246991D01*
X417634Y247013D01*
X417718Y247025D01*
X417771Y247049D01*
X417827Y247063D01*
X417900Y247106D01*
X417977Y247141D01*
X418022Y247179D01*
X418072Y247209D01*
X418130Y247270D01*
X418194Y247325D01*
X418226Y247373D01*
X418266Y247416D01*
X418305Y247491D01*
X418352Y247561D01*
X418369Y247617D01*
X418396Y247669D01*
X418407Y247737D01*
X418437Y247832D01*
X418440Y247932D01*
X418451Y248000D01*
X418451Y252207D01*
X420992Y252207D01*
X421050Y252215D01*
X421108Y252213D01*
X421190Y252235D01*
X421273Y252247D01*
X421327Y252270D01*
X421383Y252285D01*
X421456Y252328D01*
X421504Y252350D01*
X421569Y252306D01*
X421625Y252289D01*
X421677Y252262D01*
X421745Y252251D01*
X421840Y252221D01*
X421940Y252218D01*
X422008Y252207D01*
X424549Y252207D01*
X424549Y248000D01*
X424557Y247942D01*
X424555Y247884D01*
X424577Y247802D01*
X424589Y247719D01*
X424612Y247665D01*
X424627Y247609D01*
X424670Y247536D01*
X424705Y247459D01*
X424743Y247414D01*
X424772Y247364D01*
X424834Y247306D01*
X424888Y247242D01*
X424937Y247210D01*
X424980Y247170D01*
X425055Y247131D01*
X425125Y247085D01*
X425181Y247067D01*
X425233Y247040D01*
X425301Y247029D01*
X425396Y246999D01*
X425496Y246996D01*
X425564Y246985D01*
X430136Y246985D01*
X430194Y246993D01*
X430252Y246991D01*
X430334Y247013D01*
X430418Y247025D01*
X430471Y247049D01*
X430527Y247063D01*
X430600Y247106D01*
X430677Y247141D01*
X430722Y247179D01*
X430772Y247209D01*
X430830Y247270D01*
X430894Y247325D01*
X430926Y247373D01*
X430966Y247416D01*
X431005Y247491D01*
X431052Y247561D01*
X431069Y247617D01*
X431096Y247669D01*
X431107Y247737D01*
X431137Y247832D01*
X431140Y247932D01*
X431151Y248000D01*
X431151Y252207D01*
X433692Y252207D01*
X433750Y252215D01*
X433808Y252213D01*
X433890Y252235D01*
X433973Y252247D01*
X434027Y252270D01*
X434083Y252285D01*
X434156Y252328D01*
X434204Y252350D01*
X434269Y252306D01*
X434325Y252289D01*
X434377Y252262D01*
X434445Y252251D01*
X434540Y252221D01*
X434640Y252218D01*
X434708Y252207D01*
X437249Y252207D01*
X437249Y248000D01*
X437257Y247942D01*
X437255Y247884D01*
X437277Y247802D01*
X437289Y247719D01*
X437312Y247665D01*
X437327Y247609D01*
X437370Y247536D01*
X437405Y247459D01*
X437443Y247414D01*
X437472Y247364D01*
X437534Y247306D01*
X437588Y247242D01*
X437637Y247210D01*
X437680Y247170D01*
X437755Y247131D01*
X437825Y247085D01*
X437881Y247067D01*
X437933Y247040D01*
X438001Y247029D01*
X438096Y246999D01*
X438196Y246996D01*
X438264Y246985D01*
X442836Y246985D01*
X442894Y246993D01*
X442952Y246991D01*
X443034Y247013D01*
X443118Y247025D01*
X443171Y247049D01*
X443227Y247063D01*
X443300Y247106D01*
X443377Y247141D01*
X443422Y247179D01*
X443472Y247209D01*
X443530Y247270D01*
X443594Y247325D01*
X443626Y247373D01*
X443666Y247416D01*
X443705Y247491D01*
X443752Y247561D01*
X443769Y247617D01*
X443796Y247669D01*
X443807Y247737D01*
X443837Y247832D01*
X443840Y247932D01*
X443851Y248000D01*
X443851Y252207D01*
X446392Y252207D01*
X446450Y252215D01*
X446508Y252213D01*
X446590Y252235D01*
X446673Y252247D01*
X446727Y252270D01*
X446783Y252285D01*
X446856Y252328D01*
X446933Y252363D01*
X446977Y252401D01*
X447028Y252430D01*
X447085Y252492D01*
X447150Y252546D01*
X447182Y252595D01*
X447222Y252638D01*
X447261Y252713D01*
X447307Y252783D01*
X447325Y252839D01*
X447352Y252891D01*
X447363Y252959D01*
X447393Y253054D01*
X447396Y253154D01*
X447407Y253222D01*
X447407Y253223D01*
X447408Y253223D01*
X447466Y253231D01*
X447524Y253230D01*
X447606Y253251D01*
X447690Y253263D01*
X447743Y253287D01*
X447799Y253301D01*
X447872Y253345D01*
X447949Y253379D01*
X447994Y253417D01*
X448044Y253447D01*
X448102Y253508D01*
X448166Y253563D01*
X448198Y253611D01*
X448238Y253654D01*
X448277Y253729D01*
X448324Y253799D01*
X448341Y253855D01*
X448368Y253907D01*
X448379Y253975D01*
X448409Y254070D01*
X448412Y254170D01*
X448423Y254238D01*
X448423Y260081D01*
X450000Y260081D01*
X450058Y260089D01*
X450116Y260087D01*
X450198Y260109D01*
X450282Y260121D01*
X450335Y260144D01*
X450391Y260159D01*
X450464Y260202D01*
X450541Y260237D01*
X450586Y260275D01*
X450636Y260304D01*
X450694Y260366D01*
X450758Y260420D01*
X450790Y260469D01*
X450830Y260512D01*
X450869Y260587D01*
X450916Y260657D01*
X450933Y260713D01*
X450960Y260765D01*
X450971Y260833D01*
X451001Y260928D01*
X451004Y261028D01*
X451015Y261096D01*
X451015Y263128D01*
X451007Y263186D01*
X451009Y263244D01*
X450987Y263326D01*
X450975Y263410D01*
X450952Y263463D01*
X450937Y263519D01*
X450894Y263592D01*
X450859Y263669D01*
X450821Y263714D01*
X450792Y263764D01*
X450730Y263822D01*
X450676Y263886D01*
X450627Y263918D01*
X450584Y263958D01*
X450509Y263997D01*
X450439Y264044D01*
X450383Y264061D01*
X450331Y264088D01*
X450263Y264099D01*
X450168Y264129D01*
X450068Y264132D01*
X450000Y264143D01*
X419308Y264143D01*
X416927Y266524D01*
X416927Y267088D01*
X416915Y267175D01*
X416912Y267262D01*
X416895Y267315D01*
X416887Y267369D01*
X416852Y267449D01*
X416825Y267533D01*
X416797Y267572D01*
X416771Y267629D01*
X416675Y267742D01*
X416630Y267806D01*
X411015Y273421D01*
X411015Y364872D01*
X411007Y364930D01*
X411009Y364988D01*
X410987Y365070D01*
X410975Y365154D01*
X410952Y365207D01*
X410937Y365263D01*
X410894Y365336D01*
X410859Y365413D01*
X410821Y365458D01*
X410792Y365508D01*
X410730Y365566D01*
X410676Y365630D01*
X410627Y365662D01*
X410584Y365702D01*
X410509Y365741D01*
X410439Y365788D01*
X410383Y365805D01*
X410331Y365832D01*
X410263Y365843D01*
X410168Y365873D01*
X410068Y365876D01*
X410000Y365887D01*
X409585Y365887D01*
X406971Y366970D01*
X404970Y368971D01*
X403887Y371585D01*
X403887Y374415D01*
X404970Y377029D01*
X406971Y379030D01*
X408713Y379752D01*
X408740Y379767D01*
X408769Y379777D01*
X408833Y379822D01*
X408958Y379896D01*
X409002Y379943D01*
X409043Y379972D01*
X410718Y381647D01*
X410770Y381717D01*
X410830Y381781D01*
X410856Y381830D01*
X410889Y381874D01*
X410920Y381956D01*
X410960Y382034D01*
X410968Y382081D01*
X410990Y382140D01*
X411002Y382287D01*
X411013Y382352D01*
X411019Y382352D01*
X411128Y382351D01*
X411159Y382360D01*
X411191Y382361D01*
X411294Y382397D01*
X411400Y382426D01*
X411427Y382443D01*
X411458Y382454D01*
X411531Y382507D01*
X411640Y382574D01*
X411672Y382610D01*
X411707Y382636D01*
X412995Y383924D01*
X413052Y384000D01*
X413117Y384072D01*
X413137Y384113D01*
X413164Y384149D01*
X413198Y384239D01*
X413240Y384326D01*
X413246Y384368D01*
X413263Y384413D01*
X413273Y384541D01*
X413287Y384630D01*
X413287Y389304D01*
X415668Y391685D01*
X425132Y391685D01*
X427513Y389304D01*
X427513Y373236D01*
X426983Y372707D01*
X426964Y372681D01*
X426939Y372660D01*
X426879Y372568D01*
X426814Y372481D01*
X426802Y372451D01*
X426785Y372424D01*
X426753Y372319D01*
X426714Y372217D01*
X426712Y372185D01*
X426702Y372154D01*
X426701Y372045D01*
X426692Y371936D01*
X426699Y371904D01*
X426699Y371872D01*
X426728Y371767D01*
X426750Y371660D01*
X426765Y371631D01*
X426774Y371600D01*
X426831Y371507D01*
X426882Y371411D01*
X426905Y371388D01*
X426922Y371360D01*
X427003Y371287D01*
X427079Y371209D01*
X427107Y371193D01*
X427131Y371171D01*
X427229Y371124D01*
X427325Y371070D01*
X427356Y371062D01*
X427385Y371048D01*
X427474Y371034D01*
X427599Y371005D01*
X427647Y371007D01*
X427690Y371001D01*
X475000Y371001D01*
X475064Y371010D01*
X475128Y371009D01*
X475203Y371030D01*
X475279Y371041D01*
X475338Y371067D01*
X475400Y371084D01*
X475466Y371125D01*
X475536Y371157D01*
X475585Y371199D01*
X475640Y371232D01*
X475692Y371290D01*
X475750Y371340D01*
X475786Y371394D01*
X475829Y371442D01*
X475862Y371511D01*
X475905Y371576D01*
X475924Y371638D01*
X475952Y371695D01*
X475963Y371765D01*
X475987Y371846D01*
X475988Y371931D01*
X475999Y372000D01*
X475999Y405000D01*
X475990Y405062D01*
X475991Y405103D01*
X475991Y405104D01*
X475991Y405128D01*
X475970Y405203D01*
X475959Y405279D01*
X475933Y405338D01*
X475916Y405400D01*
X475875Y405466D01*
X475843Y405536D01*
X475801Y405585D01*
X475768Y405640D01*
X475710Y405692D01*
X475660Y405750D01*
X475606Y405786D01*
X475558Y405829D01*
X475489Y405862D01*
X475424Y405905D01*
X475362Y405924D01*
X475305Y405952D01*
X475235Y405963D01*
X475154Y405987D01*
X475069Y405988D01*
X475000Y405999D01*
X411000Y405999D01*
X410936Y405990D01*
X410872Y405991D01*
X410797Y405970D01*
X410721Y405959D01*
X410662Y405933D01*
X410600Y405916D01*
X410534Y405875D01*
X410514Y405866D01*
X410509Y405869D01*
X410439Y405916D01*
X410383Y405933D01*
X410331Y405960D01*
X410263Y405971D01*
X410168Y406001D01*
X410068Y406004D01*
X410000Y406015D01*
X332926Y406015D01*
X332895Y406011D01*
X332864Y406013D01*
X332788Y405996D01*
X332644Y405975D01*
X332585Y405949D01*
X332537Y405938D01*
X332415Y405887D01*
X329585Y405887D01*
X329463Y405938D01*
X329433Y405946D01*
X329405Y405960D01*
X329328Y405973D01*
X329188Y406009D01*
X329123Y406007D01*
X329074Y406015D01*
X240387Y406015D01*
X240347Y406073D01*
X240340Y406077D01*
X240335Y406084D01*
X240257Y406131D01*
X240180Y406180D01*
X240171Y406181D01*
X240164Y406186D01*
X240000Y406213D01*
X205714Y406213D01*
X205702Y406211D01*
X205689Y406213D01*
X205605Y406191D01*
X205519Y406174D01*
X205509Y406167D01*
X205497Y406163D01*
X205361Y406067D01*
X194711Y395417D01*
X194704Y395406D01*
X194694Y395399D01*
X194649Y395324D01*
X194601Y395251D01*
X194599Y395239D01*
X194592Y395228D01*
X194565Y395064D01*
X194565Y104936D01*
X194567Y104924D01*
X194565Y104911D01*
X194587Y104827D01*
X194604Y104741D01*
X194611Y104731D01*
X194615Y104719D01*
X194711Y104583D01*
X219647Y79647D01*
X219658Y79640D01*
X219665Y79630D01*
X219740Y79586D01*
X219813Y79537D01*
X219825Y79535D01*
X219836Y79528D01*
X220000Y79501D01*
X260000Y79501D01*
X260008Y79502D01*
G37*
G36*
X1067594Y1573D02*
X1067594Y1573D01*
X1067636Y1571D01*
X1067691Y1593D01*
X1067749Y1604D01*
X1067783Y1628D01*
X1067821Y1642D01*
X1067876Y1692D01*
X1067913Y1717D01*
X1067924Y1735D01*
X1067945Y1754D01*
X1115327Y61455D01*
X1115365Y61530D01*
X1115408Y61601D01*
X1115411Y61619D01*
X1115417Y61632D01*
X1115420Y61677D01*
X1115435Y61765D01*
X1115435Y117000D01*
X1115434Y117008D01*
X1115435Y117017D01*
X1115414Y117105D01*
X1115396Y117195D01*
X1115391Y117202D01*
X1115389Y117210D01*
X1115335Y117283D01*
X1115283Y117359D01*
X1115276Y117363D01*
X1115271Y117370D01*
X1115193Y117417D01*
X1115116Y117466D01*
X1115107Y117467D01*
X1115100Y117472D01*
X1114936Y117499D01*
X1093000Y117499D01*
X1092988Y117497D01*
X1092975Y117499D01*
X1092891Y117477D01*
X1092805Y117460D01*
X1092795Y117453D01*
X1092783Y117449D01*
X1092647Y117353D01*
X1089647Y114353D01*
X1089640Y114342D01*
X1089630Y114335D01*
X1089586Y114260D01*
X1089537Y114187D01*
X1089535Y114175D01*
X1089528Y114164D01*
X1089501Y114000D01*
X1089501Y68207D01*
X1068793Y47499D01*
X860310Y47499D01*
X860302Y47498D01*
X860293Y47499D01*
X860205Y47478D01*
X860115Y47460D01*
X860108Y47455D01*
X860100Y47453D01*
X860027Y47399D01*
X859951Y47347D01*
X859947Y47340D01*
X859940Y47335D01*
X859893Y47257D01*
X859844Y47180D01*
X859843Y47171D01*
X859838Y47164D01*
X859811Y47000D01*
X859811Y36786D01*
X859812Y36778D01*
X859811Y36769D01*
X859832Y36681D01*
X859850Y36591D01*
X859855Y36584D01*
X859857Y36576D01*
X859911Y36503D01*
X859963Y36427D01*
X859970Y36423D01*
X859975Y36416D01*
X860053Y36369D01*
X860130Y36320D01*
X860139Y36319D01*
X860146Y36314D01*
X860310Y36287D01*
X862947Y36287D01*
X864287Y34947D01*
X864287Y19053D01*
X862947Y17713D01*
X852309Y17713D01*
X852297Y17711D01*
X852284Y17713D01*
X852200Y17691D01*
X852114Y17674D01*
X852104Y17667D01*
X852092Y17663D01*
X851956Y17567D01*
X846578Y12189D01*
X754173Y12189D01*
X754161Y12187D01*
X754149Y12189D01*
X754064Y12167D01*
X753979Y12150D01*
X753968Y12143D01*
X753956Y12139D01*
X753820Y12043D01*
X753657Y11879D01*
X723732Y11879D01*
X718544Y17067D01*
X718533Y17074D01*
X718526Y17084D01*
X718451Y17129D01*
X718378Y17177D01*
X718366Y17179D01*
X718355Y17186D01*
X718191Y17213D01*
X707553Y17213D01*
X706213Y18553D01*
X706213Y34447D01*
X707553Y35787D01*
X721447Y35787D01*
X722787Y34447D01*
X722787Y23809D01*
X722789Y23797D01*
X722787Y23784D01*
X722809Y23700D01*
X722826Y23614D01*
X722833Y23604D01*
X722837Y23592D01*
X722933Y23456D01*
X726742Y19647D01*
X726753Y19640D01*
X726760Y19630D01*
X726835Y19585D01*
X726908Y19537D01*
X726920Y19535D01*
X726931Y19528D01*
X727095Y19501D01*
X735714Y19501D01*
X735722Y19502D01*
X735731Y19501D01*
X735819Y19522D01*
X735909Y19540D01*
X735916Y19545D01*
X735924Y19547D01*
X735997Y19601D01*
X736073Y19653D01*
X736077Y19660D01*
X736084Y19665D01*
X736131Y19743D01*
X736180Y19820D01*
X736181Y19829D01*
X736186Y19836D01*
X736213Y20000D01*
X736213Y34447D01*
X737553Y35787D01*
X751447Y35787D01*
X752787Y34447D01*
X752787Y27310D01*
X752788Y27302D01*
X752787Y27293D01*
X752808Y27205D01*
X752826Y27115D01*
X752831Y27108D01*
X752833Y27100D01*
X752887Y27026D01*
X752939Y26951D01*
X752946Y26947D01*
X752951Y26940D01*
X753029Y26893D01*
X753106Y26844D01*
X753115Y26843D01*
X753122Y26838D01*
X753286Y26811D01*
X758994Y26811D01*
X759002Y26812D01*
X759011Y26811D01*
X759099Y26832D01*
X759189Y26850D01*
X759196Y26855D01*
X759204Y26857D01*
X759277Y26911D01*
X759353Y26963D01*
X759357Y26970D01*
X759364Y26975D01*
X759411Y27053D01*
X759460Y27130D01*
X759461Y27139D01*
X759466Y27146D01*
X759493Y27310D01*
X759493Y39754D01*
X759491Y39766D01*
X759493Y39779D01*
X759471Y39863D01*
X759454Y39949D01*
X759447Y39959D01*
X759443Y39971D01*
X759347Y40107D01*
X759173Y40281D01*
X759173Y44279D01*
X759347Y44453D01*
X759354Y44464D01*
X759364Y44471D01*
X759409Y44546D01*
X759457Y44619D01*
X759459Y44631D01*
X759466Y44642D01*
X759493Y44806D01*
X759493Y46462D01*
X759678Y46647D01*
X759679Y46649D01*
X759680Y46649D01*
X759682Y46651D01*
X759684Y46653D01*
X759735Y46733D01*
X759788Y46813D01*
X759789Y46817D01*
X759791Y46820D01*
X759807Y46914D01*
X759824Y47008D01*
X759823Y47012D01*
X759824Y47017D01*
X759802Y47108D01*
X759781Y47202D01*
X759779Y47206D01*
X759778Y47210D01*
X759722Y47286D01*
X759666Y47365D01*
X759663Y47367D01*
X759660Y47370D01*
X759578Y47419D01*
X759497Y47469D01*
X759493Y47469D01*
X759489Y47472D01*
X759325Y47499D01*
X654710Y47499D01*
X654702Y47498D01*
X654693Y47499D01*
X654605Y47478D01*
X654515Y47460D01*
X654508Y47455D01*
X654500Y47453D01*
X654427Y47399D01*
X654351Y47347D01*
X654347Y47340D01*
X654340Y47335D01*
X654293Y47257D01*
X654244Y47180D01*
X654243Y47171D01*
X654238Y47164D01*
X654211Y47000D01*
X654211Y30822D01*
X652433Y29044D01*
X652426Y29033D01*
X652416Y29026D01*
X652371Y28951D01*
X652323Y28878D01*
X652321Y28866D01*
X652314Y28855D01*
X652287Y28691D01*
X652287Y18053D01*
X650947Y16713D01*
X640309Y16713D01*
X640297Y16711D01*
X640284Y16713D01*
X640200Y16691D01*
X640114Y16674D01*
X640104Y16667D01*
X640092Y16663D01*
X639956Y16567D01*
X632578Y9189D01*
X514422Y9189D01*
X507044Y16567D01*
X507033Y16574D01*
X507026Y16584D01*
X506951Y16629D01*
X506878Y16677D01*
X506866Y16679D01*
X506855Y16686D01*
X506691Y16713D01*
X496053Y16713D01*
X494713Y18053D01*
X494713Y33947D01*
X496053Y35287D01*
X509947Y35287D01*
X511287Y33947D01*
X511287Y23309D01*
X511289Y23297D01*
X511287Y23284D01*
X511309Y23200D01*
X511326Y23114D01*
X511333Y23104D01*
X511337Y23092D01*
X511433Y22956D01*
X517432Y16957D01*
X517443Y16950D01*
X517450Y16940D01*
X517525Y16895D01*
X517598Y16847D01*
X517610Y16845D01*
X517621Y16838D01*
X517785Y16811D01*
X524750Y16811D01*
X524754Y16812D01*
X524758Y16811D01*
X524851Y16831D01*
X524945Y16850D01*
X524948Y16853D01*
X524953Y16854D01*
X525030Y16909D01*
X525109Y16963D01*
X525111Y16966D01*
X525115Y16969D01*
X525165Y17050D01*
X525216Y17130D01*
X525217Y17135D01*
X525219Y17138D01*
X525233Y17232D01*
X525249Y17327D01*
X525248Y17331D01*
X525249Y17335D01*
X525225Y17427D01*
X525203Y17520D01*
X525200Y17523D01*
X525199Y17527D01*
X525103Y17663D01*
X524713Y18053D01*
X524713Y33947D01*
X526053Y35287D01*
X539947Y35287D01*
X541287Y33947D01*
X541287Y26310D01*
X541288Y26302D01*
X541287Y26293D01*
X541308Y26205D01*
X541326Y26115D01*
X541331Y26108D01*
X541333Y26100D01*
X541387Y26027D01*
X541439Y25951D01*
X541446Y25947D01*
X541451Y25940D01*
X541529Y25893D01*
X541606Y25844D01*
X541615Y25843D01*
X541622Y25838D01*
X541786Y25811D01*
X544994Y25811D01*
X545002Y25812D01*
X545011Y25811D01*
X545099Y25832D01*
X545189Y25850D01*
X545196Y25855D01*
X545204Y25857D01*
X545277Y25911D01*
X545353Y25963D01*
X545357Y25970D01*
X545364Y25975D01*
X545411Y26053D01*
X545460Y26130D01*
X545461Y26139D01*
X545466Y26146D01*
X545493Y26310D01*
X545493Y44962D01*
X546833Y46302D01*
X551470Y46302D01*
X551478Y46303D01*
X551487Y46302D01*
X551575Y46323D01*
X551665Y46341D01*
X551672Y46346D01*
X551680Y46348D01*
X551753Y46402D01*
X551829Y46454D01*
X551833Y46461D01*
X551840Y46466D01*
X551887Y46544D01*
X551936Y46621D01*
X551937Y46630D01*
X551942Y46637D01*
X551969Y46801D01*
X551969Y47000D01*
X551968Y47007D01*
X551969Y47013D01*
X551969Y47014D01*
X551969Y47017D01*
X551948Y47105D01*
X551930Y47195D01*
X551925Y47202D01*
X551923Y47210D01*
X551869Y47283D01*
X551817Y47359D01*
X551810Y47363D01*
X551805Y47370D01*
X551727Y47417D01*
X551650Y47466D01*
X551641Y47467D01*
X551634Y47472D01*
X551470Y47499D01*
X165064Y47499D01*
X165056Y47498D01*
X165047Y47499D01*
X164959Y47478D01*
X164869Y47460D01*
X164862Y47455D01*
X164854Y47453D01*
X164781Y47399D01*
X164705Y47347D01*
X164701Y47340D01*
X164694Y47335D01*
X164647Y47257D01*
X164598Y47180D01*
X164597Y47171D01*
X164592Y47164D01*
X164565Y47000D01*
X164565Y11722D01*
X164581Y11644D01*
X164590Y11565D01*
X164601Y11545D01*
X164604Y11527D01*
X164630Y11490D01*
X164668Y11418D01*
X172098Y1760D01*
X172132Y1730D01*
X172158Y1694D01*
X172206Y1666D01*
X172248Y1629D01*
X172291Y1615D01*
X172329Y1592D01*
X172396Y1581D01*
X172437Y1568D01*
X172462Y1570D01*
X172493Y1565D01*
X1067554Y1565D01*
X1067594Y1573D01*
G37*
G36*
X295750Y408501D02*
X295750Y408501D01*
X295754Y408502D01*
X295758Y408501D01*
X295851Y408521D01*
X295944Y408540D01*
X295948Y408543D01*
X295952Y408544D01*
X296030Y408599D01*
X296108Y408653D01*
X296111Y408656D01*
X296114Y408659D01*
X296164Y408740D01*
X296215Y408820D01*
X296216Y408825D01*
X296218Y408828D01*
X296233Y408922D01*
X296248Y409017D01*
X296248Y409021D01*
X296248Y409025D01*
X296225Y409117D01*
X296202Y409210D01*
X296200Y409213D01*
X296199Y409217D01*
X296103Y409353D01*
X293665Y411790D01*
X293665Y416210D01*
X296790Y419335D01*
X298739Y419335D01*
X298751Y419337D01*
X298764Y419335D01*
X298848Y419357D01*
X298934Y419374D01*
X298944Y419381D01*
X298956Y419385D01*
X299092Y419481D01*
X300552Y420941D01*
X300559Y420952D01*
X300569Y420959D01*
X300614Y421034D01*
X300662Y421107D01*
X300664Y421119D01*
X300671Y421130D01*
X300698Y421294D01*
X300698Y429727D01*
X302038Y431067D01*
X321962Y431067D01*
X323302Y429727D01*
X323302Y411833D01*
X321962Y410493D01*
X303245Y410493D01*
X303232Y410491D01*
X303220Y410493D01*
X303135Y410471D01*
X303050Y410454D01*
X303039Y410447D01*
X303027Y410443D01*
X302891Y410347D01*
X301897Y409353D01*
X301895Y409349D01*
X301892Y409347D01*
X301841Y409267D01*
X301788Y409187D01*
X301787Y409183D01*
X301785Y409180D01*
X301769Y409086D01*
X301751Y408992D01*
X301752Y408988D01*
X301752Y408983D01*
X301773Y408892D01*
X301794Y408798D01*
X301797Y408794D01*
X301798Y408790D01*
X301854Y408714D01*
X301909Y408636D01*
X301913Y408633D01*
X301915Y408630D01*
X301997Y408581D01*
X302079Y408531D01*
X302083Y408531D01*
X302086Y408528D01*
X302250Y408501D01*
X326750Y408501D01*
X326754Y408502D01*
X326758Y408501D01*
X326851Y408521D01*
X326944Y408540D01*
X326948Y408543D01*
X326952Y408544D01*
X327030Y408599D01*
X327108Y408653D01*
X327111Y408656D01*
X327114Y408659D01*
X327164Y408740D01*
X327215Y408820D01*
X327216Y408825D01*
X327218Y408828D01*
X327233Y408922D01*
X327248Y409017D01*
X327248Y409021D01*
X327248Y409025D01*
X327225Y409117D01*
X327202Y409210D01*
X327200Y409213D01*
X327199Y409217D01*
X327103Y409353D01*
X325665Y410790D01*
X325665Y415210D01*
X328790Y418335D01*
X333199Y418335D01*
X333207Y418336D01*
X333216Y418335D01*
X333304Y418356D01*
X333394Y418374D01*
X333401Y418379D01*
X333409Y418381D01*
X333482Y418435D01*
X333558Y418487D01*
X333562Y418494D01*
X333569Y418499D01*
X333616Y418577D01*
X333665Y418654D01*
X333666Y418663D01*
X333671Y418670D01*
X333698Y418834D01*
X333698Y429727D01*
X335038Y431067D01*
X354962Y431067D01*
X356302Y429727D01*
X356302Y411833D01*
X354962Y410493D01*
X337309Y410493D01*
X337297Y410491D01*
X337285Y410493D01*
X337200Y410471D01*
X337114Y410454D01*
X337104Y410447D01*
X337092Y410443D01*
X336956Y410347D01*
X335962Y409353D01*
X335960Y409349D01*
X335956Y409347D01*
X335905Y409267D01*
X335852Y409187D01*
X335852Y409183D01*
X335849Y409180D01*
X335834Y409086D01*
X335816Y408992D01*
X335817Y408988D01*
X335816Y408983D01*
X335838Y408892D01*
X335859Y408798D01*
X335861Y408794D01*
X335862Y408790D01*
X335918Y408714D01*
X335974Y408636D01*
X335978Y408633D01*
X335980Y408630D01*
X336062Y408581D01*
X336143Y408531D01*
X336148Y408531D01*
X336151Y408528D01*
X336315Y408501D01*
X359000Y408501D01*
X359012Y408503D01*
X359025Y408501D01*
X359109Y408523D01*
X359195Y408540D01*
X359205Y408548D01*
X359217Y408551D01*
X359353Y408647D01*
X364353Y413647D01*
X364360Y413658D01*
X364370Y413665D01*
X364415Y413740D01*
X364463Y413813D01*
X364465Y413825D01*
X364472Y413836D01*
X364499Y414000D01*
X364499Y490990D01*
X364498Y490998D01*
X364499Y491007D01*
X364478Y491095D01*
X364460Y491185D01*
X364455Y491192D01*
X364453Y491200D01*
X364399Y491273D01*
X364347Y491349D01*
X364340Y491353D01*
X364335Y491360D01*
X364257Y491407D01*
X364180Y491456D01*
X364171Y491457D01*
X364164Y491462D01*
X364000Y491489D01*
X363890Y491489D01*
X360436Y492920D01*
X357792Y495564D01*
X356361Y499018D01*
X356361Y516982D01*
X357792Y520436D01*
X360436Y523080D01*
X363890Y524511D01*
X367630Y524511D01*
X371084Y523080D01*
X372517Y521647D01*
X372527Y521640D01*
X372535Y521630D01*
X372610Y521586D01*
X372683Y521537D01*
X372695Y521535D01*
X372706Y521528D01*
X372870Y521501D01*
X384050Y521501D01*
X384063Y521503D01*
X384075Y521501D01*
X384159Y521523D01*
X384245Y521540D01*
X384255Y521548D01*
X384268Y521551D01*
X384403Y521647D01*
X385836Y523080D01*
X389290Y524511D01*
X393030Y524511D01*
X396484Y523080D01*
X397917Y521647D01*
X397927Y521640D01*
X397935Y521630D01*
X398010Y521586D01*
X398083Y521537D01*
X398095Y521535D01*
X398106Y521528D01*
X398270Y521501D01*
X409450Y521501D01*
X409463Y521503D01*
X409475Y521501D01*
X409559Y521523D01*
X409645Y521540D01*
X409655Y521548D01*
X409668Y521551D01*
X409803Y521647D01*
X411236Y523080D01*
X414690Y524511D01*
X418430Y524511D01*
X421884Y523080D01*
X423317Y521647D01*
X423327Y521640D01*
X423335Y521630D01*
X423410Y521586D01*
X423483Y521537D01*
X423495Y521535D01*
X423506Y521528D01*
X423670Y521501D01*
X450090Y521501D01*
X450103Y521503D01*
X450115Y521501D01*
X450199Y521523D01*
X450285Y521540D01*
X450295Y521548D01*
X450308Y521551D01*
X450443Y521647D01*
X451876Y523080D01*
X455330Y524511D01*
X459070Y524511D01*
X462524Y523080D01*
X463957Y521647D01*
X463967Y521640D01*
X463975Y521630D01*
X464050Y521586D01*
X464123Y521537D01*
X464135Y521535D01*
X464146Y521528D01*
X464310Y521501D01*
X475490Y521501D01*
X475503Y521503D01*
X475515Y521501D01*
X475599Y521523D01*
X475685Y521540D01*
X475695Y521548D01*
X475708Y521551D01*
X475843Y521647D01*
X477276Y523080D01*
X480730Y524511D01*
X484470Y524511D01*
X487924Y523080D01*
X489357Y521647D01*
X489367Y521640D01*
X489375Y521630D01*
X489450Y521586D01*
X489523Y521537D01*
X489535Y521535D01*
X489546Y521528D01*
X489710Y521501D01*
X490000Y521501D01*
X490012Y521503D01*
X490025Y521501D01*
X490109Y521523D01*
X490195Y521540D01*
X490205Y521548D01*
X490217Y521551D01*
X490353Y521647D01*
X495353Y526647D01*
X495360Y526658D01*
X495370Y526665D01*
X495415Y526740D01*
X495463Y526813D01*
X495465Y526825D01*
X495472Y526836D01*
X495499Y527000D01*
X495499Y549936D01*
X495498Y549944D01*
X495499Y549953D01*
X495478Y550041D01*
X495460Y550131D01*
X495455Y550138D01*
X495453Y550146D01*
X495399Y550219D01*
X495347Y550295D01*
X495340Y550299D01*
X495335Y550306D01*
X495257Y550353D01*
X495180Y550402D01*
X495171Y550403D01*
X495164Y550408D01*
X495000Y550435D01*
X165064Y550435D01*
X165056Y550434D01*
X165047Y550435D01*
X164959Y550414D01*
X164869Y550396D01*
X164862Y550391D01*
X164854Y550389D01*
X164781Y550335D01*
X164705Y550283D01*
X164701Y550276D01*
X164694Y550271D01*
X164647Y550193D01*
X164598Y550116D01*
X164597Y550107D01*
X164592Y550100D01*
X164565Y549936D01*
X164565Y481688D01*
X164580Y481613D01*
X164588Y481536D01*
X164600Y481513D01*
X164604Y481493D01*
X164630Y481456D01*
X164665Y481388D01*
X193436Y443027D01*
X193459Y443006D01*
X193482Y442973D01*
X194565Y441891D01*
X194565Y441688D01*
X194580Y441613D01*
X194588Y441536D01*
X194600Y441513D01*
X194604Y441493D01*
X194630Y441456D01*
X194665Y441388D01*
X194786Y441226D01*
X194570Y439711D01*
X194572Y439680D01*
X194565Y439640D01*
X194565Y409000D01*
X194566Y408992D01*
X194565Y408983D01*
X194586Y408895D01*
X194604Y408805D01*
X194609Y408798D01*
X194611Y408790D01*
X194665Y408717D01*
X194717Y408641D01*
X194724Y408637D01*
X194729Y408630D01*
X194807Y408583D01*
X194884Y408534D01*
X194893Y408533D01*
X194900Y408528D01*
X195064Y408501D01*
X295750Y408501D01*
G37*
G36*
X475087Y268997D02*
X475087Y268997D01*
X475174Y269000D01*
X475227Y269017D01*
X475282Y269025D01*
X475361Y269060D01*
X475445Y269087D01*
X475484Y269115D01*
X475541Y269141D01*
X475654Y269237D01*
X475718Y269282D01*
X492838Y286402D01*
X492890Y286472D01*
X492950Y286536D01*
X492976Y286585D01*
X493009Y286629D01*
X493040Y286711D01*
X493080Y286789D01*
X493088Y286837D01*
X493110Y286895D01*
X493122Y287043D01*
X493135Y287120D01*
X493135Y287434D01*
X495516Y289815D01*
X495830Y289815D01*
X495917Y289827D01*
X496004Y289830D01*
X496057Y289847D01*
X496111Y289855D01*
X496191Y289890D01*
X496275Y289917D01*
X496314Y289945D01*
X496371Y289971D01*
X496484Y290067D01*
X496548Y290112D01*
X500421Y293985D01*
X517484Y293985D01*
X517542Y293993D01*
X517600Y293991D01*
X517682Y294013D01*
X517766Y294025D01*
X517819Y294049D01*
X517875Y294063D01*
X517948Y294106D01*
X518025Y294141D01*
X518070Y294179D01*
X518120Y294209D01*
X518178Y294270D01*
X518242Y294325D01*
X518274Y294373D01*
X518314Y294416D01*
X518353Y294491D01*
X518400Y294561D01*
X518417Y294617D01*
X518444Y294669D01*
X518455Y294737D01*
X518485Y294832D01*
X518488Y294932D01*
X518499Y295000D01*
X518499Y318469D01*
X567969Y318469D01*
X567969Y295000D01*
X567977Y294942D01*
X567975Y294884D01*
X567997Y294802D01*
X568009Y294719D01*
X568033Y294665D01*
X568047Y294609D01*
X568090Y294536D01*
X568125Y294459D01*
X568163Y294414D01*
X568193Y294364D01*
X568254Y294306D01*
X568309Y294242D01*
X568357Y294210D01*
X568400Y294170D01*
X568475Y294131D01*
X568545Y294085D01*
X568601Y294067D01*
X568653Y294040D01*
X568721Y294029D01*
X568816Y293999D01*
X568916Y293996D01*
X568984Y293985D01*
X571016Y293985D01*
X571074Y293993D01*
X571132Y293991D01*
X571214Y294013D01*
X571297Y294025D01*
X571351Y294049D01*
X571407Y294063D01*
X571480Y294106D01*
X571557Y294141D01*
X571601Y294179D01*
X571652Y294209D01*
X571709Y294270D01*
X571774Y294325D01*
X571806Y294373D01*
X571846Y294416D01*
X571885Y294491D01*
X571931Y294561D01*
X571949Y294617D01*
X571976Y294669D01*
X571987Y294737D01*
X572017Y294832D01*
X572020Y294932D01*
X572031Y295000D01*
X572031Y318469D01*
X621501Y318469D01*
X621501Y295000D01*
X621509Y294942D01*
X621507Y294884D01*
X621529Y294802D01*
X621541Y294719D01*
X621564Y294665D01*
X621579Y294609D01*
X621622Y294536D01*
X621657Y294459D01*
X621695Y294414D01*
X621724Y294364D01*
X621786Y294306D01*
X621840Y294242D01*
X621889Y294210D01*
X621932Y294170D01*
X622007Y294131D01*
X622077Y294085D01*
X622133Y294067D01*
X622185Y294040D01*
X622253Y294029D01*
X622348Y293999D01*
X622448Y293996D01*
X622516Y293985D01*
X663661Y293985D01*
X663747Y293997D01*
X663835Y294000D01*
X663887Y294017D01*
X663942Y294025D01*
X664022Y294060D01*
X664105Y294087D01*
X664144Y294115D01*
X664201Y294141D01*
X664315Y294237D01*
X664378Y294282D01*
X664834Y294738D01*
X666888Y295589D01*
X671484Y295589D01*
X671542Y295597D01*
X671600Y295595D01*
X671682Y295617D01*
X671766Y295629D01*
X671819Y295652D01*
X671875Y295667D01*
X671948Y295710D01*
X672025Y295745D01*
X672070Y295783D01*
X672120Y295812D01*
X672178Y295874D01*
X672242Y295928D01*
X672274Y295977D01*
X672314Y296020D01*
X672353Y296095D01*
X672400Y296165D01*
X672417Y296221D01*
X672444Y296273D01*
X672455Y296341D01*
X672485Y296436D01*
X672488Y296536D01*
X672499Y296604D01*
X672499Y296969D01*
X679484Y296969D01*
X679542Y296977D01*
X679600Y296975D01*
X679682Y296997D01*
X679765Y297009D01*
X679819Y297033D01*
X679875Y297047D01*
X679948Y297090D01*
X680025Y297125D01*
X680069Y297163D01*
X680120Y297193D01*
X680177Y297254D01*
X680242Y297309D01*
X680274Y297357D01*
X680314Y297400D01*
X680353Y297475D01*
X680399Y297545D01*
X680417Y297601D01*
X680444Y297653D01*
X680455Y297721D01*
X680485Y297816D01*
X680488Y297916D01*
X680499Y297984D01*
X680499Y299001D01*
X680501Y299001D01*
X680501Y297984D01*
X680509Y297926D01*
X680508Y297868D01*
X680529Y297786D01*
X680541Y297703D01*
X680565Y297649D01*
X680579Y297593D01*
X680622Y297520D01*
X680657Y297443D01*
X680695Y297398D01*
X680725Y297348D01*
X680786Y297290D01*
X680841Y297226D01*
X680889Y297194D01*
X680932Y297154D01*
X681007Y297115D01*
X681077Y297069D01*
X681133Y297051D01*
X681185Y297024D01*
X681253Y297013D01*
X681348Y296983D01*
X681448Y296980D01*
X681516Y296969D01*
X688501Y296969D01*
X688501Y296604D01*
X688509Y296546D01*
X688507Y296488D01*
X688529Y296406D01*
X688541Y296322D01*
X688564Y296269D01*
X688579Y296213D01*
X688622Y296140D01*
X688657Y296063D01*
X688695Y296018D01*
X688724Y295968D01*
X688786Y295910D01*
X688840Y295846D01*
X688889Y295814D01*
X688932Y295774D01*
X689007Y295735D01*
X689077Y295688D01*
X689133Y295671D01*
X689185Y295644D01*
X689253Y295633D01*
X689348Y295603D01*
X689448Y295600D01*
X689516Y295589D01*
X694809Y295589D01*
X694840Y295593D01*
X694871Y295591D01*
X694947Y295608D01*
X695091Y295629D01*
X695150Y295655D01*
X695198Y295666D01*
X697669Y296690D01*
X700331Y296690D01*
X702789Y295671D01*
X704179Y294282D01*
X704248Y294230D01*
X704312Y294170D01*
X704362Y294144D01*
X704406Y294111D01*
X704487Y294080D01*
X704565Y294040D01*
X704613Y294032D01*
X704671Y294010D01*
X704819Y293998D01*
X704896Y293985D01*
X732484Y293985D01*
X732542Y293993D01*
X732600Y293991D01*
X732682Y294013D01*
X732766Y294025D01*
X732819Y294049D01*
X732875Y294063D01*
X732948Y294106D01*
X733025Y294141D01*
X733070Y294179D01*
X733120Y294209D01*
X733178Y294270D01*
X733242Y294325D01*
X733274Y294373D01*
X733314Y294416D01*
X733353Y294491D01*
X733400Y294561D01*
X733417Y294617D01*
X733444Y294669D01*
X733455Y294737D01*
X733485Y294832D01*
X733488Y294932D01*
X733499Y295000D01*
X733499Y318469D01*
X782969Y318469D01*
X782969Y295000D01*
X782977Y294942D01*
X782975Y294884D01*
X782997Y294802D01*
X783009Y294719D01*
X783033Y294665D01*
X783047Y294609D01*
X783090Y294536D01*
X783125Y294459D01*
X783163Y294414D01*
X783193Y294364D01*
X783254Y294306D01*
X783309Y294242D01*
X783357Y294210D01*
X783400Y294170D01*
X783475Y294131D01*
X783545Y294085D01*
X783601Y294067D01*
X783653Y294040D01*
X783721Y294029D01*
X783816Y293999D01*
X783916Y293996D01*
X783984Y293985D01*
X786016Y293985D01*
X786074Y293993D01*
X786132Y293991D01*
X786214Y294013D01*
X786297Y294025D01*
X786351Y294049D01*
X786407Y294063D01*
X786480Y294106D01*
X786557Y294141D01*
X786601Y294179D01*
X786652Y294209D01*
X786709Y294270D01*
X786774Y294325D01*
X786806Y294373D01*
X786846Y294416D01*
X786885Y294491D01*
X786931Y294561D01*
X786949Y294617D01*
X786976Y294669D01*
X786987Y294737D01*
X787017Y294832D01*
X787020Y294932D01*
X787031Y295000D01*
X787031Y318469D01*
X836501Y318469D01*
X836501Y295000D01*
X836509Y294942D01*
X836507Y294884D01*
X836529Y294802D01*
X836541Y294719D01*
X836564Y294665D01*
X836579Y294609D01*
X836622Y294536D01*
X836657Y294459D01*
X836695Y294414D01*
X836724Y294364D01*
X836786Y294306D01*
X836840Y294242D01*
X836889Y294210D01*
X836932Y294170D01*
X837007Y294131D01*
X837077Y294085D01*
X837133Y294067D01*
X837185Y294040D01*
X837253Y294029D01*
X837348Y293999D01*
X837448Y293996D01*
X837516Y293985D01*
X840000Y293985D01*
X840058Y293993D01*
X840116Y293991D01*
X840198Y294013D01*
X840282Y294025D01*
X840335Y294049D01*
X840391Y294063D01*
X840464Y294106D01*
X840541Y294141D01*
X840586Y294179D01*
X840636Y294209D01*
X840694Y294270D01*
X840758Y294325D01*
X840790Y294373D01*
X840830Y294416D01*
X840869Y294491D01*
X840916Y294561D01*
X840933Y294617D01*
X840960Y294669D01*
X840971Y294737D01*
X841001Y294832D01*
X841004Y294932D01*
X841015Y295000D01*
X841015Y366000D01*
X841007Y366058D01*
X841009Y366116D01*
X840987Y366198D01*
X840975Y366282D01*
X840952Y366335D01*
X840937Y366391D01*
X840894Y366464D01*
X840859Y366541D01*
X840821Y366586D01*
X840792Y366636D01*
X840730Y366694D01*
X840676Y366758D01*
X840627Y366790D01*
X840584Y366830D01*
X840509Y366869D01*
X840439Y366916D01*
X840383Y366933D01*
X840331Y366960D01*
X840263Y366971D01*
X840168Y367001D01*
X840068Y367004D01*
X840000Y367015D01*
X821495Y367015D01*
X821408Y367003D01*
X821321Y367000D01*
X821268Y366983D01*
X821213Y366975D01*
X821133Y366940D01*
X821050Y366913D01*
X821011Y366885D01*
X820954Y366859D01*
X820841Y366763D01*
X820777Y366718D01*
X819029Y364970D01*
X816415Y363887D01*
X813585Y363887D01*
X810971Y364970D01*
X809223Y366718D01*
X809153Y366770D01*
X809089Y366830D01*
X809040Y366856D01*
X808996Y366889D01*
X808914Y366920D01*
X808836Y366960D01*
X808789Y366968D01*
X808730Y366990D01*
X808583Y367002D01*
X808505Y367015D01*
X764128Y367015D01*
X764070Y367007D01*
X764012Y367009D01*
X763930Y366987D01*
X763846Y366975D01*
X763793Y366952D01*
X763737Y366937D01*
X763664Y366894D01*
X763587Y366859D01*
X763542Y366821D01*
X763492Y366792D01*
X763434Y366730D01*
X763370Y366676D01*
X763338Y366627D01*
X763298Y366584D01*
X763259Y366509D01*
X763212Y366439D01*
X763195Y366383D01*
X763168Y366331D01*
X763157Y366263D01*
X763127Y366168D01*
X763125Y366116D01*
X762030Y363471D01*
X760029Y361470D01*
X757415Y360387D01*
X754585Y360387D01*
X751971Y361470D01*
X750468Y362973D01*
X750421Y363008D01*
X750381Y363051D01*
X750308Y363094D01*
X750241Y363144D01*
X750186Y363165D01*
X750135Y363195D01*
X750054Y363215D01*
X749975Y363245D01*
X749917Y363250D01*
X749860Y363265D01*
X749776Y363262D01*
X749692Y363269D01*
X749634Y363257D01*
X749576Y363255D01*
X749496Y363230D01*
X749413Y363213D01*
X749361Y363186D01*
X749305Y363168D01*
X749249Y363128D01*
X749161Y363082D01*
X749088Y363013D01*
X749032Y362973D01*
X749029Y362970D01*
X746415Y361887D01*
X743585Y361887D01*
X740971Y362970D01*
X738970Y364971D01*
X738383Y366389D01*
X738382Y366390D01*
X738382Y366391D01*
X738310Y366512D01*
X738238Y366633D01*
X738237Y366634D01*
X738236Y366636D01*
X738132Y366733D01*
X738032Y366829D01*
X738030Y366829D01*
X738029Y366830D01*
X737904Y366895D01*
X737779Y366959D01*
X737777Y366959D01*
X737776Y366960D01*
X737761Y366962D01*
X737500Y367014D01*
X737470Y367011D01*
X737445Y367015D01*
X731128Y367015D01*
X731070Y367007D01*
X731012Y367009D01*
X730930Y366987D01*
X730846Y366975D01*
X730793Y366952D01*
X730737Y366937D01*
X730664Y366894D01*
X730587Y366859D01*
X730542Y366821D01*
X730492Y366792D01*
X730434Y366730D01*
X730370Y366676D01*
X730338Y366627D01*
X730298Y366584D01*
X730259Y366509D01*
X730212Y366439D01*
X730195Y366383D01*
X730168Y366331D01*
X730157Y366263D01*
X730127Y366168D01*
X730124Y366068D01*
X730113Y366000D01*
X730113Y363585D01*
X729030Y360971D01*
X722029Y353970D01*
X719415Y352887D01*
X639585Y352887D01*
X636971Y353970D01*
X629970Y360971D01*
X628887Y363585D01*
X628887Y366000D01*
X628879Y366058D01*
X628881Y366116D01*
X628859Y366198D01*
X628847Y366282D01*
X628824Y366335D01*
X628809Y366391D01*
X628766Y366464D01*
X628731Y366541D01*
X628693Y366586D01*
X628664Y366636D01*
X628602Y366694D01*
X628548Y366758D01*
X628499Y366790D01*
X628456Y366830D01*
X628381Y366869D01*
X628311Y366916D01*
X628255Y366933D01*
X628203Y366960D01*
X628135Y366971D01*
X628040Y367001D01*
X627940Y367004D01*
X627872Y367015D01*
X597555Y367015D01*
X597553Y367015D01*
X597552Y367015D01*
X597411Y366995D01*
X597274Y366975D01*
X597272Y366975D01*
X597270Y366975D01*
X597143Y366917D01*
X597014Y366859D01*
X597013Y366858D01*
X597011Y366857D01*
X596904Y366766D01*
X596797Y366676D01*
X596796Y366674D01*
X596795Y366673D01*
X596787Y366660D01*
X596640Y366439D01*
X596630Y366410D01*
X596617Y366389D01*
X596030Y364971D01*
X594029Y362970D01*
X591415Y361887D01*
X588585Y361887D01*
X585971Y362970D01*
X583870Y365071D01*
X583324Y366389D01*
X583324Y366390D01*
X583323Y366391D01*
X583252Y366512D01*
X583180Y366633D01*
X583179Y366634D01*
X583178Y366636D01*
X583074Y366733D01*
X582973Y366829D01*
X582972Y366829D01*
X582971Y366830D01*
X582845Y366895D01*
X582720Y366959D01*
X582719Y366959D01*
X582717Y366960D01*
X582703Y366962D01*
X582442Y367014D01*
X582411Y367011D01*
X582386Y367015D01*
X575495Y367015D01*
X575408Y367003D01*
X575321Y367000D01*
X575268Y366983D01*
X575213Y366975D01*
X575133Y366940D01*
X575050Y366913D01*
X575011Y366885D01*
X574954Y366859D01*
X574841Y366763D01*
X574777Y366718D01*
X574029Y365970D01*
X571415Y364887D01*
X568585Y364887D01*
X565971Y365970D01*
X565223Y366718D01*
X565153Y366770D01*
X565089Y366830D01*
X565040Y366856D01*
X564996Y366889D01*
X564914Y366920D01*
X564836Y366960D01*
X564789Y366968D01*
X564730Y366990D01*
X564583Y367002D01*
X564505Y367015D01*
X548350Y367015D01*
X548348Y367015D01*
X548347Y367015D01*
X548206Y366995D01*
X548068Y366975D01*
X548067Y366975D01*
X548065Y366975D01*
X547938Y366917D01*
X547809Y366859D01*
X547808Y366858D01*
X547806Y366857D01*
X547699Y366766D01*
X547592Y366676D01*
X547591Y366674D01*
X547590Y366673D01*
X547582Y366660D01*
X547434Y366439D01*
X547425Y366410D01*
X547412Y366389D01*
X546680Y364621D01*
X544029Y361970D01*
X541415Y360887D01*
X538585Y360887D01*
X535971Y361970D01*
X533970Y363971D01*
X533807Y364365D01*
X533777Y364415D01*
X533756Y364470D01*
X533705Y364537D01*
X533662Y364610D01*
X533620Y364650D01*
X533585Y364697D01*
X533517Y364747D01*
X533456Y364805D01*
X533404Y364832D01*
X533357Y364867D01*
X533278Y364897D01*
X533203Y364935D01*
X533146Y364947D01*
X533091Y364967D01*
X533007Y364974D01*
X532924Y364990D01*
X532866Y364985D01*
X532807Y364990D01*
X532740Y364974D01*
X532641Y364966D01*
X532548Y364930D01*
X532480Y364914D01*
X532415Y364887D01*
X529585Y364887D01*
X526971Y365970D01*
X526223Y366718D01*
X526153Y366770D01*
X526089Y366830D01*
X526040Y366856D01*
X525996Y366889D01*
X525914Y366920D01*
X525836Y366960D01*
X525789Y366968D01*
X525730Y366990D01*
X525583Y367002D01*
X525505Y367015D01*
X460024Y367015D01*
X459966Y367007D01*
X459908Y367009D01*
X459826Y366987D01*
X459742Y366975D01*
X459689Y366952D01*
X459633Y366937D01*
X459560Y366894D01*
X459483Y366859D01*
X459438Y366821D01*
X459388Y366792D01*
X459330Y366730D01*
X459266Y366676D01*
X459234Y366627D01*
X459194Y366584D01*
X459155Y366509D01*
X459108Y366439D01*
X459091Y366383D01*
X459064Y366331D01*
X459053Y366263D01*
X459023Y366168D01*
X459020Y366068D01*
X459009Y366000D01*
X459009Y349773D01*
X440466Y349773D01*
X440408Y349765D01*
X440350Y349766D01*
X440268Y349745D01*
X440185Y349733D01*
X440131Y349709D01*
X440075Y349695D01*
X440002Y349652D01*
X439925Y349617D01*
X439881Y349579D01*
X439830Y349549D01*
X439773Y349488D01*
X439708Y349433D01*
X439676Y349385D01*
X439636Y349342D01*
X439597Y349267D01*
X439551Y349197D01*
X439533Y349141D01*
X439506Y349089D01*
X439495Y349021D01*
X439465Y348926D01*
X439462Y348826D01*
X439451Y348758D01*
X439451Y347741D01*
X438434Y347741D01*
X438376Y347733D01*
X438318Y347734D01*
X438236Y347713D01*
X438153Y347701D01*
X438099Y347677D01*
X438043Y347663D01*
X437970Y347620D01*
X437893Y347585D01*
X437848Y347547D01*
X437798Y347517D01*
X437740Y347456D01*
X437676Y347401D01*
X437644Y347353D01*
X437604Y347310D01*
X437565Y347235D01*
X437519Y347165D01*
X437501Y347109D01*
X437474Y347057D01*
X437463Y346989D01*
X437433Y346894D01*
X437430Y346794D01*
X437419Y346726D01*
X437419Y328691D01*
X437164Y328691D01*
X437106Y328683D01*
X437048Y328685D01*
X436966Y328663D01*
X436882Y328651D01*
X436829Y328627D01*
X436773Y328613D01*
X436700Y328570D01*
X436623Y328535D01*
X436578Y328497D01*
X436528Y328467D01*
X436470Y328406D01*
X436406Y328351D01*
X436374Y328303D01*
X436334Y328260D01*
X436295Y328185D01*
X436294Y328183D01*
X433608Y328183D01*
X433550Y328175D01*
X433492Y328177D01*
X433410Y328155D01*
X433327Y328143D01*
X433273Y328120D01*
X433217Y328105D01*
X433144Y328062D01*
X433096Y328040D01*
X433031Y328084D01*
X432975Y328101D01*
X432923Y328128D01*
X432855Y328139D01*
X432760Y328169D01*
X432660Y328172D01*
X432592Y328183D01*
X429910Y328183D01*
X429895Y328217D01*
X429857Y328262D01*
X429828Y328312D01*
X429766Y328370D01*
X429712Y328434D01*
X429663Y328466D01*
X429620Y328506D01*
X429545Y328545D01*
X429475Y328592D01*
X429419Y328609D01*
X429367Y328636D01*
X429299Y328647D01*
X429204Y328677D01*
X429104Y328680D01*
X429036Y328691D01*
X424464Y328691D01*
X424406Y328683D01*
X424348Y328685D01*
X424266Y328663D01*
X424182Y328651D01*
X424129Y328628D01*
X424073Y328613D01*
X424000Y328570D01*
X423923Y328535D01*
X423878Y328497D01*
X423828Y328468D01*
X423770Y328406D01*
X423706Y328352D01*
X423674Y328303D01*
X423634Y328260D01*
X423595Y328185D01*
X423594Y328183D01*
X420908Y328183D01*
X420850Y328175D01*
X420792Y328177D01*
X420710Y328155D01*
X420627Y328143D01*
X420573Y328120D01*
X420517Y328105D01*
X420444Y328062D01*
X420367Y328027D01*
X420323Y327989D01*
X420272Y327960D01*
X420215Y327898D01*
X420150Y327844D01*
X420118Y327795D01*
X420078Y327752D01*
X420039Y327677D01*
X419993Y327607D01*
X419975Y327551D01*
X419948Y327499D01*
X419937Y327431D01*
X419907Y327336D01*
X419904Y327236D01*
X419893Y327168D01*
X419893Y327160D01*
X419884Y327160D01*
X419802Y327139D01*
X419719Y327127D01*
X419665Y327103D01*
X419609Y327089D01*
X419536Y327045D01*
X419459Y327011D01*
X419414Y326973D01*
X419364Y326943D01*
X419306Y326882D01*
X419242Y326827D01*
X419210Y326779D01*
X419170Y326736D01*
X419131Y326661D01*
X419085Y326591D01*
X419067Y326535D01*
X419040Y326483D01*
X419029Y326415D01*
X418999Y326320D01*
X418996Y326220D01*
X418985Y326152D01*
X418985Y314436D01*
X418993Y314378D01*
X418991Y314320D01*
X419013Y314238D01*
X419025Y314154D01*
X419049Y314101D01*
X419063Y314045D01*
X419106Y313972D01*
X419141Y313895D01*
X419179Y313850D01*
X419209Y313800D01*
X419270Y313742D01*
X419325Y313678D01*
X419373Y313646D01*
X419416Y313606D01*
X419491Y313567D01*
X419561Y313520D01*
X419617Y313503D01*
X419669Y313476D01*
X419737Y313465D01*
X419832Y313435D01*
X419932Y313432D01*
X419977Y313425D01*
X419977Y308848D01*
X419985Y308790D01*
X419983Y308732D01*
X420005Y308650D01*
X420017Y308567D01*
X420040Y308513D01*
X420055Y308457D01*
X420098Y308384D01*
X420133Y308307D01*
X420171Y308263D01*
X420200Y308212D01*
X420262Y308155D01*
X420316Y308090D01*
X420365Y308058D01*
X420408Y308018D01*
X420483Y307979D01*
X420553Y307933D01*
X420609Y307915D01*
X420661Y307888D01*
X420729Y307877D01*
X420824Y307847D01*
X420924Y307844D01*
X420992Y307833D01*
X420993Y307833D01*
X420993Y307832D01*
X421001Y307774D01*
X421000Y307716D01*
X421021Y307634D01*
X421033Y307550D01*
X421057Y307497D01*
X421071Y307441D01*
X421115Y307368D01*
X421149Y307291D01*
X421187Y307246D01*
X421217Y307196D01*
X421278Y307138D01*
X421333Y307074D01*
X421381Y307042D01*
X421424Y307002D01*
X421499Y306963D01*
X421569Y306916D01*
X421625Y306899D01*
X421677Y306872D01*
X421745Y306861D01*
X421840Y306831D01*
X421940Y306828D01*
X422008Y306817D01*
X424690Y306817D01*
X424705Y306783D01*
X424743Y306738D01*
X424772Y306688D01*
X424834Y306630D01*
X424888Y306566D01*
X424937Y306534D01*
X424980Y306494D01*
X425055Y306455D01*
X425125Y306408D01*
X425181Y306391D01*
X425233Y306364D01*
X425301Y306353D01*
X425396Y306323D01*
X425496Y306320D01*
X425564Y306309D01*
X430136Y306309D01*
X430194Y306317D01*
X430252Y306315D01*
X430334Y306337D01*
X430418Y306349D01*
X430471Y306372D01*
X430527Y306387D01*
X430600Y306430D01*
X430677Y306465D01*
X430722Y306503D01*
X430772Y306532D01*
X430830Y306594D01*
X430894Y306648D01*
X430926Y306697D01*
X430966Y306740D01*
X431005Y306815D01*
X431006Y306817D01*
X433692Y306817D01*
X433750Y306825D01*
X433808Y306823D01*
X433890Y306845D01*
X433973Y306857D01*
X434027Y306880D01*
X434083Y306895D01*
X434156Y306938D01*
X434204Y306960D01*
X434269Y306916D01*
X434325Y306899D01*
X434377Y306872D01*
X434445Y306861D01*
X434540Y306831D01*
X434640Y306828D01*
X434708Y306817D01*
X437390Y306817D01*
X437405Y306783D01*
X437443Y306738D01*
X437472Y306688D01*
X437534Y306630D01*
X437588Y306566D01*
X437637Y306534D01*
X437680Y306494D01*
X437755Y306455D01*
X437825Y306408D01*
X437881Y306391D01*
X437933Y306364D01*
X438001Y306353D01*
X438096Y306323D01*
X438196Y306320D01*
X438264Y306309D01*
X438519Y306309D01*
X438519Y288274D01*
X438527Y288216D01*
X438525Y288158D01*
X438547Y288076D01*
X438559Y287993D01*
X438583Y287939D01*
X438597Y287883D01*
X438640Y287810D01*
X438675Y287733D01*
X438713Y287689D01*
X438743Y287638D01*
X438804Y287581D01*
X438859Y287516D01*
X438907Y287484D01*
X438950Y287444D01*
X439025Y287405D01*
X439095Y287359D01*
X439151Y287341D01*
X439203Y287314D01*
X439271Y287303D01*
X439366Y287273D01*
X439466Y287270D01*
X439534Y287259D01*
X440551Y287259D01*
X440551Y286242D01*
X440559Y286184D01*
X440558Y286128D01*
X440558Y286127D01*
X440558Y286126D01*
X440579Y286044D01*
X440591Y285961D01*
X440615Y285907D01*
X440629Y285851D01*
X440672Y285778D01*
X440707Y285701D01*
X440745Y285656D01*
X440775Y285606D01*
X440836Y285548D01*
X440891Y285484D01*
X440939Y285452D01*
X440982Y285412D01*
X441057Y285373D01*
X441127Y285327D01*
X441183Y285309D01*
X441235Y285282D01*
X441303Y285271D01*
X441398Y285241D01*
X441498Y285238D01*
X441566Y285227D01*
X460109Y285227D01*
X460109Y270000D01*
X460117Y269942D01*
X460115Y269884D01*
X460137Y269802D01*
X460149Y269719D01*
X460172Y269665D01*
X460187Y269609D01*
X460230Y269536D01*
X460265Y269459D01*
X460303Y269414D01*
X460332Y269364D01*
X460394Y269306D01*
X460448Y269242D01*
X460497Y269210D01*
X460540Y269170D01*
X460615Y269131D01*
X460685Y269085D01*
X460741Y269067D01*
X460793Y269040D01*
X460861Y269029D01*
X460956Y268999D01*
X461056Y268996D01*
X461124Y268985D01*
X475000Y268985D01*
X475087Y268997D01*
G37*
G36*
X371671Y115502D02*
X371671Y115502D01*
X371679Y115501D01*
X371768Y115522D01*
X371857Y115540D01*
X371864Y115545D01*
X371872Y115547D01*
X371946Y115601D01*
X372021Y115653D01*
X372026Y115660D01*
X372033Y115665D01*
X372079Y115743D01*
X372128Y115820D01*
X372130Y115829D01*
X372134Y115836D01*
X372162Y116000D01*
X372162Y116701D01*
X380238Y116701D01*
X380238Y116700D01*
X380238Y116000D01*
X380240Y115992D01*
X380239Y115983D01*
X380260Y115895D01*
X380278Y115805D01*
X380283Y115798D01*
X380285Y115790D01*
X380338Y115717D01*
X380390Y115641D01*
X380397Y115637D01*
X380402Y115630D01*
X380481Y115583D01*
X380558Y115534D01*
X380566Y115533D01*
X380573Y115528D01*
X380737Y115501D01*
X400000Y115501D01*
X400012Y115503D01*
X400025Y115501D01*
X400109Y115523D01*
X400195Y115540D01*
X400205Y115548D01*
X400217Y115551D01*
X400353Y115647D01*
X409353Y124647D01*
X409360Y124658D01*
X409370Y124665D01*
X409415Y124740D01*
X409463Y124813D01*
X409465Y124825D01*
X409472Y124836D01*
X409499Y125000D01*
X409499Y165000D01*
X409497Y165012D01*
X409499Y165025D01*
X409477Y165109D01*
X409460Y165195D01*
X409453Y165205D01*
X409449Y165217D01*
X409353Y165353D01*
X408873Y165833D01*
X408869Y165835D01*
X408867Y165839D01*
X408786Y165890D01*
X408707Y165943D01*
X408703Y165944D01*
X408700Y165946D01*
X408606Y165962D01*
X408512Y165979D01*
X408508Y165978D01*
X408503Y165979D01*
X408411Y165957D01*
X408318Y165936D01*
X408314Y165934D01*
X408310Y165933D01*
X408234Y165877D01*
X408155Y165821D01*
X408153Y165818D01*
X408150Y165815D01*
X408102Y165734D01*
X408051Y165652D01*
X408051Y165648D01*
X408048Y165644D01*
X408021Y165480D01*
X408021Y150999D01*
X396020Y150999D01*
X396012Y150997D01*
X396004Y150999D01*
X395915Y150978D01*
X395825Y150960D01*
X395818Y150955D01*
X395810Y150953D01*
X395737Y150899D01*
X395661Y150847D01*
X395657Y150840D01*
X395650Y150835D01*
X395604Y150757D01*
X395554Y150679D01*
X395553Y150671D01*
X395549Y150664D01*
X395521Y150500D01*
X395521Y149999D01*
X395519Y149999D01*
X395519Y150500D01*
X395517Y150508D01*
X395519Y150516D01*
X395498Y150605D01*
X395480Y150695D01*
X395475Y150702D01*
X395473Y150710D01*
X395419Y150783D01*
X395367Y150859D01*
X395360Y150863D01*
X395355Y150870D01*
X395277Y150916D01*
X395199Y150966D01*
X395191Y150967D01*
X395184Y150971D01*
X395020Y150999D01*
X383019Y150999D01*
X383019Y166000D01*
X383018Y166008D01*
X383019Y166017D01*
X382998Y166105D01*
X382980Y166195D01*
X382975Y166202D01*
X382973Y166210D01*
X382919Y166283D01*
X382867Y166359D01*
X382860Y166363D01*
X382855Y166370D01*
X382777Y166417D01*
X382700Y166466D01*
X382691Y166467D01*
X382684Y166472D01*
X382520Y166499D01*
X366000Y166499D01*
X365988Y166497D01*
X365975Y166499D01*
X365891Y166477D01*
X365805Y166460D01*
X365795Y166453D01*
X365783Y166449D01*
X365647Y166353D01*
X362647Y163353D01*
X362640Y163342D01*
X362630Y163335D01*
X362586Y163260D01*
X362537Y163187D01*
X362535Y163175D01*
X362528Y163164D01*
X362501Y163000D01*
X362501Y130200D01*
X362502Y130192D01*
X362501Y130183D01*
X362522Y130095D01*
X362540Y130005D01*
X362545Y129998D01*
X362547Y129990D01*
X362601Y129917D01*
X362653Y129841D01*
X362660Y129837D01*
X362665Y129830D01*
X362743Y129783D01*
X362820Y129734D01*
X362829Y129733D01*
X362836Y129728D01*
X363000Y129701D01*
X370513Y129701D01*
X370513Y128375D01*
X370515Y128367D01*
X370513Y128359D01*
X370535Y128270D01*
X370553Y128180D01*
X370558Y128173D01*
X370560Y128165D01*
X370613Y128092D01*
X370639Y128054D01*
X370596Y127982D01*
X370547Y127904D01*
X370545Y127896D01*
X370541Y127889D01*
X370513Y127725D01*
X370513Y126399D01*
X363000Y126399D01*
X362992Y126398D01*
X362983Y126399D01*
X362895Y126378D01*
X362805Y126360D01*
X362798Y126355D01*
X362790Y126353D01*
X362717Y126299D01*
X362641Y126247D01*
X362637Y126240D01*
X362630Y126235D01*
X362583Y126157D01*
X362534Y126080D01*
X362533Y126071D01*
X362528Y126064D01*
X362501Y125900D01*
X362501Y123700D01*
X362502Y123692D01*
X362501Y123683D01*
X362522Y123595D01*
X362540Y123505D01*
X362545Y123498D01*
X362547Y123490D01*
X362601Y123417D01*
X362653Y123341D01*
X362660Y123337D01*
X362665Y123330D01*
X362743Y123283D01*
X362820Y123234D01*
X362829Y123233D01*
X362836Y123228D01*
X363000Y123201D01*
X370513Y123201D01*
X370513Y121875D01*
X370515Y121867D01*
X370513Y121859D01*
X370535Y121770D01*
X370553Y121680D01*
X370558Y121673D01*
X370560Y121665D01*
X370613Y121592D01*
X370639Y121554D01*
X370596Y121482D01*
X370547Y121404D01*
X370545Y121396D01*
X370541Y121389D01*
X370513Y121225D01*
X370513Y119899D01*
X363000Y119899D01*
X362992Y119898D01*
X362983Y119899D01*
X362895Y119878D01*
X362805Y119860D01*
X362798Y119855D01*
X362790Y119853D01*
X362717Y119799D01*
X362641Y119747D01*
X362637Y119740D01*
X362630Y119735D01*
X362583Y119657D01*
X362534Y119580D01*
X362533Y119571D01*
X362528Y119564D01*
X362501Y119400D01*
X362501Y117200D01*
X362502Y117192D01*
X362501Y117183D01*
X362522Y117095D01*
X362540Y117005D01*
X362545Y116998D01*
X362547Y116990D01*
X362601Y116917D01*
X362653Y116841D01*
X362660Y116837D01*
X362665Y116830D01*
X362743Y116783D01*
X362820Y116734D01*
X362829Y116733D01*
X362836Y116728D01*
X363000Y116701D01*
X370513Y116701D01*
X370513Y116000D01*
X370515Y115992D01*
X370513Y115983D01*
X370535Y115895D01*
X370553Y115805D01*
X370558Y115798D01*
X370560Y115790D01*
X370613Y115717D01*
X370665Y115641D01*
X370672Y115637D01*
X370677Y115630D01*
X370756Y115583D01*
X370833Y115534D01*
X370841Y115533D01*
X370848Y115528D01*
X371012Y115501D01*
X371663Y115501D01*
X371671Y115502D01*
G37*
%LPC*%
G36*
X783585Y175387D02*
X783585Y175387D01*
X780971Y176470D01*
X778970Y178471D01*
X777887Y181085D01*
X777887Y183915D01*
X778826Y186181D01*
X778855Y186293D01*
X778889Y186402D01*
X778890Y186430D01*
X778897Y186457D01*
X778894Y186571D01*
X778897Y186686D01*
X778890Y186713D01*
X778889Y186741D01*
X778854Y186850D01*
X778825Y186961D01*
X778811Y186985D01*
X778802Y187012D01*
X778738Y187107D01*
X778680Y187206D01*
X778659Y187225D01*
X778644Y187248D01*
X778556Y187322D01*
X778472Y187400D01*
X778448Y187413D01*
X778426Y187431D01*
X778322Y187477D01*
X778219Y187530D01*
X778195Y187534D01*
X778167Y187546D01*
X777903Y187583D01*
X777888Y187585D01*
X773128Y187585D01*
X773070Y187577D01*
X773012Y187579D01*
X772930Y187557D01*
X772846Y187545D01*
X772793Y187522D01*
X772737Y187507D01*
X772664Y187464D01*
X772587Y187429D01*
X772542Y187391D01*
X772492Y187362D01*
X772434Y187300D01*
X772370Y187246D01*
X772338Y187197D01*
X772298Y187154D01*
X772259Y187079D01*
X772212Y187009D01*
X772195Y186953D01*
X772168Y186901D01*
X772157Y186833D01*
X772127Y186738D01*
X772124Y186638D01*
X772113Y186570D01*
X772113Y183585D01*
X771030Y180971D01*
X769029Y178970D01*
X766415Y177887D01*
X763585Y177887D01*
X760971Y178970D01*
X758970Y180971D01*
X757887Y183585D01*
X757887Y186415D01*
X758711Y188404D01*
X758712Y188406D01*
X758712Y188407D01*
X758747Y188545D01*
X758782Y188679D01*
X758782Y188681D01*
X758783Y188682D01*
X758778Y188823D01*
X758774Y188964D01*
X758774Y188965D01*
X758773Y188967D01*
X758731Y189097D01*
X758687Y189234D01*
X758687Y189236D01*
X758686Y189237D01*
X758677Y189250D01*
X758529Y189470D01*
X758506Y189490D01*
X758491Y189510D01*
X758035Y189966D01*
X758035Y190634D01*
X758027Y190689D01*
X758029Y190734D01*
X758028Y190736D01*
X758029Y190750D01*
X758007Y190832D01*
X757995Y190916D01*
X757972Y190969D01*
X757957Y191025D01*
X757914Y191098D01*
X757879Y191175D01*
X757841Y191220D01*
X757812Y191270D01*
X757750Y191328D01*
X757696Y191392D01*
X757647Y191424D01*
X757604Y191464D01*
X757529Y191503D01*
X757459Y191550D01*
X757403Y191567D01*
X757351Y191594D01*
X757283Y191605D01*
X757199Y191632D01*
X757199Y197716D01*
X757191Y197774D01*
X757193Y197832D01*
X757171Y197914D01*
X757159Y197997D01*
X757136Y198051D01*
X757121Y198107D01*
X757078Y198180D01*
X757043Y198257D01*
X757005Y198301D01*
X756976Y198352D01*
X756972Y198354D01*
X756974Y198357D01*
X757014Y198400D01*
X757053Y198475D01*
X757100Y198545D01*
X757117Y198601D01*
X757144Y198653D01*
X757155Y198721D01*
X757185Y198816D01*
X757188Y198916D01*
X757199Y198984D01*
X757199Y205074D01*
X757218Y205079D01*
X757302Y205091D01*
X757355Y205114D01*
X757411Y205129D01*
X757484Y205172D01*
X757561Y205207D01*
X757606Y205245D01*
X757656Y205274D01*
X757714Y205336D01*
X757778Y205390D01*
X757810Y205439D01*
X757850Y205482D01*
X757889Y205557D01*
X757936Y205627D01*
X757953Y205683D01*
X757980Y205735D01*
X757991Y205803D01*
X758021Y205898D01*
X758024Y205998D01*
X758035Y206066D01*
X758035Y206734D01*
X759718Y208416D01*
X759718Y208417D01*
X760416Y209115D01*
X809784Y209115D01*
X812165Y206734D01*
X812165Y206066D01*
X812173Y206008D01*
X812171Y205950D01*
X812193Y205868D01*
X812205Y205784D01*
X812228Y205731D01*
X812243Y205675D01*
X812286Y205602D01*
X812321Y205525D01*
X812359Y205480D01*
X812388Y205430D01*
X812450Y205372D01*
X812504Y205308D01*
X812553Y205276D01*
X812596Y205236D01*
X812671Y205197D01*
X812741Y205150D01*
X812797Y205133D01*
X812849Y205106D01*
X812917Y205095D01*
X813001Y205068D01*
X813001Y198984D01*
X813009Y198926D01*
X813007Y198868D01*
X813029Y198786D01*
X813041Y198703D01*
X813064Y198649D01*
X813079Y198593D01*
X813122Y198520D01*
X813157Y198443D01*
X813195Y198399D01*
X813224Y198348D01*
X813228Y198345D01*
X813226Y198343D01*
X813186Y198300D01*
X813147Y198225D01*
X813100Y198155D01*
X813083Y198099D01*
X813056Y198047D01*
X813045Y197979D01*
X813015Y197884D01*
X813012Y197784D01*
X813001Y197716D01*
X813001Y191626D01*
X812982Y191621D01*
X812899Y191609D01*
X812845Y191586D01*
X812789Y191571D01*
X812716Y191528D01*
X812639Y191493D01*
X812594Y191455D01*
X812544Y191426D01*
X812486Y191364D01*
X812422Y191310D01*
X812390Y191261D01*
X812350Y191218D01*
X812311Y191143D01*
X812265Y191073D01*
X812247Y191017D01*
X812220Y190965D01*
X812209Y190897D01*
X812179Y190802D01*
X812176Y190702D01*
X812165Y190634D01*
X812165Y189966D01*
X811902Y189704D01*
X811850Y189634D01*
X811790Y189570D01*
X811764Y189521D01*
X811731Y189477D01*
X811700Y189395D01*
X811660Y189317D01*
X811652Y189269D01*
X811630Y189211D01*
X811618Y189063D01*
X811605Y188986D01*
X811605Y187843D01*
X811609Y187813D01*
X811607Y187782D01*
X811624Y187705D01*
X811645Y187562D01*
X811671Y187503D01*
X811682Y187455D01*
X812113Y186415D01*
X812113Y183585D01*
X811030Y180971D01*
X809029Y178970D01*
X806415Y177887D01*
X803585Y177887D01*
X800971Y178970D01*
X798970Y180971D01*
X797887Y183585D01*
X797887Y186570D01*
X797879Y186626D01*
X797881Y186673D01*
X797880Y186675D01*
X797881Y186686D01*
X797859Y186768D01*
X797847Y186852D01*
X797824Y186905D01*
X797809Y186961D01*
X797766Y187034D01*
X797731Y187111D01*
X797693Y187156D01*
X797664Y187206D01*
X797602Y187264D01*
X797548Y187328D01*
X797499Y187360D01*
X797456Y187400D01*
X797381Y187439D01*
X797311Y187486D01*
X797255Y187503D01*
X797203Y187530D01*
X797135Y187541D01*
X797040Y187571D01*
X796940Y187574D01*
X796872Y187585D01*
X792212Y187585D01*
X792154Y187577D01*
X792096Y187579D01*
X792014Y187557D01*
X791930Y187545D01*
X791877Y187522D01*
X791821Y187507D01*
X791748Y187464D01*
X791671Y187429D01*
X791626Y187391D01*
X791576Y187362D01*
X791518Y187300D01*
X791454Y187246D01*
X791422Y187197D01*
X791382Y187154D01*
X791343Y187079D01*
X791296Y187009D01*
X791279Y186953D01*
X791252Y186901D01*
X791241Y186833D01*
X791211Y186738D01*
X791208Y186638D01*
X791197Y186570D01*
X791197Y186328D01*
X791201Y186298D01*
X791199Y186267D01*
X791216Y186190D01*
X791237Y186047D01*
X791263Y185988D01*
X791274Y185940D01*
X792113Y183915D01*
X792113Y181085D01*
X791030Y178471D01*
X789029Y176470D01*
X786415Y175387D01*
X783585Y175387D01*
G37*
%LPD*%
%LPC*%
G36*
X568585Y178887D02*
X568585Y178887D01*
X565971Y179970D01*
X563970Y181971D01*
X562887Y184585D01*
X562887Y186570D01*
X562879Y186626D01*
X562881Y186673D01*
X562880Y186675D01*
X562881Y186686D01*
X562859Y186768D01*
X562847Y186852D01*
X562824Y186905D01*
X562809Y186961D01*
X562766Y187034D01*
X562731Y187111D01*
X562693Y187156D01*
X562664Y187206D01*
X562602Y187264D01*
X562548Y187328D01*
X562499Y187360D01*
X562456Y187400D01*
X562381Y187439D01*
X562311Y187486D01*
X562255Y187503D01*
X562203Y187530D01*
X562135Y187541D01*
X562040Y187571D01*
X561940Y187574D01*
X561872Y187585D01*
X560128Y187585D01*
X560070Y187577D01*
X560012Y187579D01*
X559930Y187557D01*
X559846Y187545D01*
X559793Y187522D01*
X559737Y187507D01*
X559664Y187464D01*
X559587Y187429D01*
X559542Y187391D01*
X559492Y187362D01*
X559434Y187300D01*
X559370Y187246D01*
X559338Y187197D01*
X559298Y187154D01*
X559259Y187079D01*
X559212Y187009D01*
X559195Y186953D01*
X559168Y186901D01*
X559157Y186833D01*
X559127Y186738D01*
X559124Y186638D01*
X559113Y186570D01*
X559113Y185585D01*
X558030Y182971D01*
X556029Y180970D01*
X553415Y179887D01*
X550585Y179887D01*
X547971Y180970D01*
X544370Y184571D01*
X543287Y187185D01*
X543287Y189294D01*
X543275Y189380D01*
X543272Y189468D01*
X543255Y189520D01*
X543247Y189575D01*
X543212Y189655D01*
X543185Y189738D01*
X543157Y189778D01*
X543131Y189835D01*
X543035Y189948D01*
X543035Y190634D01*
X543027Y190689D01*
X543029Y190734D01*
X543028Y190736D01*
X543029Y190750D01*
X543007Y190832D01*
X542995Y190916D01*
X542972Y190969D01*
X542957Y191025D01*
X542914Y191098D01*
X542879Y191175D01*
X542841Y191220D01*
X542812Y191270D01*
X542750Y191328D01*
X542696Y191392D01*
X542647Y191424D01*
X542604Y191464D01*
X542529Y191503D01*
X542459Y191550D01*
X542403Y191567D01*
X542351Y191594D01*
X542283Y191605D01*
X542199Y191632D01*
X542199Y197716D01*
X542191Y197774D01*
X542193Y197832D01*
X542171Y197914D01*
X542159Y197997D01*
X542136Y198051D01*
X542121Y198107D01*
X542078Y198180D01*
X542043Y198257D01*
X542005Y198301D01*
X541976Y198352D01*
X541972Y198354D01*
X541974Y198357D01*
X542014Y198400D01*
X542053Y198475D01*
X542100Y198545D01*
X542117Y198601D01*
X542144Y198653D01*
X542155Y198721D01*
X542185Y198816D01*
X542188Y198916D01*
X542199Y198984D01*
X542199Y205074D01*
X542218Y205079D01*
X542302Y205091D01*
X542355Y205114D01*
X542411Y205129D01*
X542484Y205172D01*
X542561Y205207D01*
X542606Y205245D01*
X542656Y205274D01*
X542714Y205336D01*
X542778Y205390D01*
X542810Y205439D01*
X542850Y205482D01*
X542889Y205557D01*
X542936Y205627D01*
X542953Y205683D01*
X542980Y205735D01*
X542991Y205803D01*
X543021Y205898D01*
X543024Y205998D01*
X543035Y206066D01*
X543035Y206734D01*
X543718Y207416D01*
X543718Y207417D01*
X545416Y209115D01*
X594784Y209115D01*
X597165Y206734D01*
X597165Y206066D01*
X597173Y206008D01*
X597171Y205950D01*
X597193Y205868D01*
X597205Y205784D01*
X597228Y205731D01*
X597243Y205675D01*
X597286Y205602D01*
X597321Y205525D01*
X597359Y205480D01*
X597388Y205430D01*
X597450Y205372D01*
X597504Y205308D01*
X597553Y205276D01*
X597596Y205236D01*
X597671Y205197D01*
X597741Y205150D01*
X597797Y205133D01*
X597849Y205106D01*
X597917Y205095D01*
X598001Y205068D01*
X598001Y198984D01*
X598009Y198926D01*
X598007Y198868D01*
X598029Y198786D01*
X598041Y198703D01*
X598064Y198649D01*
X598079Y198593D01*
X598122Y198520D01*
X598157Y198443D01*
X598195Y198399D01*
X598224Y198348D01*
X598228Y198345D01*
X598226Y198343D01*
X598186Y198300D01*
X598147Y198225D01*
X598100Y198155D01*
X598083Y198099D01*
X598056Y198047D01*
X598045Y197979D01*
X598015Y197884D01*
X598012Y197784D01*
X598001Y197716D01*
X598001Y191626D01*
X597982Y191621D01*
X597899Y191609D01*
X597845Y191586D01*
X597789Y191571D01*
X597716Y191528D01*
X597639Y191493D01*
X597594Y191455D01*
X597544Y191426D01*
X597486Y191364D01*
X597422Y191310D01*
X597390Y191261D01*
X597350Y191218D01*
X597311Y191143D01*
X597265Y191073D01*
X597247Y191017D01*
X597220Y190965D01*
X597209Y190897D01*
X597179Y190802D01*
X597176Y190702D01*
X597165Y190634D01*
X597165Y189951D01*
X597158Y189942D01*
X597098Y189878D01*
X597072Y189829D01*
X597039Y189785D01*
X597008Y189703D01*
X596968Y189625D01*
X596960Y189577D01*
X596938Y189519D01*
X596926Y189371D01*
X596913Y189294D01*
X596913Y188100D01*
X596917Y188069D01*
X596915Y188038D01*
X596932Y187961D01*
X596953Y187818D01*
X596979Y187759D01*
X596990Y187711D01*
X597113Y187415D01*
X597113Y184585D01*
X596030Y181971D01*
X594029Y179970D01*
X591415Y178887D01*
X588585Y178887D01*
X585971Y179970D01*
X583770Y182171D01*
X582687Y184785D01*
X582687Y186570D01*
X582679Y186626D01*
X582681Y186673D01*
X582680Y186675D01*
X582681Y186686D01*
X582659Y186768D01*
X582647Y186852D01*
X582624Y186905D01*
X582609Y186961D01*
X582566Y187034D01*
X582531Y187111D01*
X582493Y187156D01*
X582464Y187206D01*
X582402Y187264D01*
X582348Y187328D01*
X582299Y187360D01*
X582256Y187400D01*
X582181Y187439D01*
X582111Y187486D01*
X582055Y187503D01*
X582003Y187530D01*
X581935Y187541D01*
X581840Y187571D01*
X581740Y187574D01*
X581672Y187585D01*
X578228Y187585D01*
X578170Y187577D01*
X578112Y187579D01*
X578030Y187557D01*
X577946Y187545D01*
X577893Y187522D01*
X577837Y187507D01*
X577764Y187464D01*
X577687Y187429D01*
X577642Y187391D01*
X577592Y187362D01*
X577534Y187300D01*
X577470Y187246D01*
X577438Y187197D01*
X577398Y187154D01*
X577359Y187079D01*
X577312Y187009D01*
X577295Y186953D01*
X577268Y186901D01*
X577257Y186833D01*
X577227Y186738D01*
X577224Y186638D01*
X577213Y186570D01*
X577213Y184685D01*
X576130Y182071D01*
X574029Y179970D01*
X571415Y178887D01*
X568585Y178887D01*
G37*
%LPD*%
%LPC*%
G36*
X733499Y322531D02*
X733499Y322531D01*
X733499Y346750D01*
X733500Y346751D01*
X782969Y346751D01*
X782969Y322531D01*
X733499Y322531D01*
G37*
%LPD*%
%LPC*%
G36*
X518499Y322531D02*
X518499Y322531D01*
X518499Y346750D01*
X518500Y346751D01*
X567969Y346751D01*
X567969Y322531D01*
X518499Y322531D01*
G37*
%LPD*%
%LPC*%
G36*
X572031Y322531D02*
X572031Y322531D01*
X572031Y346751D01*
X621500Y346751D01*
X621501Y346750D01*
X621501Y322531D01*
X572031Y322531D01*
G37*
%LPD*%
%LPC*%
G36*
X787031Y322531D02*
X787031Y322531D01*
X787031Y346751D01*
X836500Y346751D01*
X836501Y346750D01*
X836501Y322531D01*
X787031Y322531D01*
G37*
%LPD*%
%LPC*%
G36*
X716085Y177887D02*
X716085Y177887D01*
X713471Y178970D01*
X711470Y180971D01*
X711039Y182011D01*
X711024Y182037D01*
X711014Y182067D01*
X710969Y182131D01*
X710895Y182256D01*
X710848Y182300D01*
X710819Y182340D01*
X710551Y182609D01*
X709545Y185036D01*
X709545Y188786D01*
X709533Y188872D01*
X709530Y188960D01*
X709513Y189013D01*
X709505Y189067D01*
X709470Y189147D01*
X709443Y189230D01*
X709415Y189270D01*
X709389Y189327D01*
X709293Y189440D01*
X709248Y189504D01*
X708785Y189966D01*
X708785Y206734D01*
X711166Y209115D01*
X730984Y209115D01*
X733365Y206734D01*
X733365Y206066D01*
X733373Y206008D01*
X733371Y205950D01*
X733393Y205868D01*
X733405Y205784D01*
X733428Y205731D01*
X733443Y205675D01*
X733486Y205602D01*
X733521Y205525D01*
X733559Y205480D01*
X733588Y205430D01*
X733650Y205372D01*
X733704Y205308D01*
X733753Y205276D01*
X733796Y205236D01*
X733871Y205197D01*
X733941Y205150D01*
X733997Y205133D01*
X734049Y205106D01*
X734117Y205095D01*
X734201Y205068D01*
X734201Y198984D01*
X734209Y198926D01*
X734207Y198868D01*
X734229Y198786D01*
X734241Y198703D01*
X734264Y198649D01*
X734279Y198593D01*
X734322Y198520D01*
X734357Y198443D01*
X734395Y198399D01*
X734424Y198348D01*
X734428Y198345D01*
X734426Y198343D01*
X734386Y198300D01*
X734347Y198225D01*
X734300Y198155D01*
X734283Y198099D01*
X734256Y198047D01*
X734245Y197979D01*
X734215Y197884D01*
X734212Y197784D01*
X734201Y197716D01*
X734201Y191626D01*
X734182Y191621D01*
X734099Y191609D01*
X734045Y191586D01*
X733989Y191571D01*
X733916Y191528D01*
X733839Y191493D01*
X733794Y191455D01*
X733744Y191426D01*
X733686Y191364D01*
X733622Y191310D01*
X733590Y191261D01*
X733550Y191218D01*
X733511Y191143D01*
X733465Y191073D01*
X733447Y191017D01*
X733420Y190965D01*
X733409Y190897D01*
X733379Y190802D01*
X733376Y190702D01*
X733365Y190634D01*
X733365Y189966D01*
X730984Y187585D01*
X725628Y187585D01*
X725570Y187577D01*
X725512Y187579D01*
X725430Y187557D01*
X725346Y187545D01*
X725293Y187522D01*
X725237Y187507D01*
X725164Y187464D01*
X725087Y187429D01*
X725042Y187391D01*
X724992Y187362D01*
X724934Y187300D01*
X724870Y187246D01*
X724838Y187197D01*
X724798Y187154D01*
X724759Y187079D01*
X724712Y187009D01*
X724695Y186953D01*
X724668Y186901D01*
X724657Y186833D01*
X724627Y186738D01*
X724624Y186638D01*
X724613Y186570D01*
X724613Y183585D01*
X723530Y180971D01*
X721529Y178970D01*
X718915Y177887D01*
X716085Y177887D01*
G37*
%LPD*%
%LPC*%
G36*
X498585Y178887D02*
X498585Y178887D01*
X495971Y179970D01*
X493970Y181971D01*
X492887Y184585D01*
X492887Y187415D01*
X493708Y189396D01*
X493716Y189426D01*
X493730Y189454D01*
X493743Y189531D01*
X493779Y189672D01*
X493777Y189736D01*
X493785Y189785D01*
X493785Y206734D01*
X496166Y209115D01*
X515984Y209115D01*
X518365Y206734D01*
X518365Y206066D01*
X518373Y206008D01*
X518371Y205950D01*
X518393Y205868D01*
X518405Y205784D01*
X518428Y205731D01*
X518443Y205675D01*
X518486Y205602D01*
X518521Y205525D01*
X518559Y205480D01*
X518588Y205430D01*
X518650Y205372D01*
X518704Y205308D01*
X518753Y205276D01*
X518796Y205236D01*
X518871Y205197D01*
X518941Y205150D01*
X518997Y205133D01*
X519049Y205106D01*
X519117Y205095D01*
X519201Y205068D01*
X519201Y198984D01*
X519209Y198926D01*
X519207Y198868D01*
X519229Y198786D01*
X519241Y198703D01*
X519264Y198649D01*
X519279Y198593D01*
X519322Y198520D01*
X519357Y198443D01*
X519395Y198399D01*
X519424Y198348D01*
X519428Y198345D01*
X519426Y198343D01*
X519386Y198300D01*
X519347Y198225D01*
X519300Y198155D01*
X519283Y198099D01*
X519256Y198047D01*
X519245Y197979D01*
X519215Y197884D01*
X519212Y197784D01*
X519201Y197716D01*
X519201Y191626D01*
X519182Y191621D01*
X519098Y191609D01*
X519045Y191585D01*
X518989Y191571D01*
X518916Y191528D01*
X518839Y191493D01*
X518794Y191455D01*
X518744Y191425D01*
X518686Y191364D01*
X518622Y191309D01*
X518590Y191261D01*
X518550Y191218D01*
X518511Y191143D01*
X518464Y191073D01*
X518447Y191017D01*
X518420Y190965D01*
X518409Y190897D01*
X518379Y190802D01*
X518376Y190702D01*
X518365Y190634D01*
X518365Y189966D01*
X515984Y187585D01*
X509278Y187585D01*
X509220Y187577D01*
X509162Y187579D01*
X509080Y187557D01*
X508996Y187545D01*
X508943Y187522D01*
X508887Y187507D01*
X508814Y187464D01*
X508737Y187429D01*
X508692Y187391D01*
X508642Y187362D01*
X508584Y187300D01*
X508520Y187246D01*
X508488Y187197D01*
X508448Y187154D01*
X508409Y187079D01*
X508362Y187009D01*
X508345Y186953D01*
X508318Y186901D01*
X508307Y186833D01*
X508277Y186738D01*
X508274Y186638D01*
X508263Y186570D01*
X508263Y185735D01*
X507180Y183121D01*
X504029Y179970D01*
X501415Y178887D01*
X498585Y178887D01*
G37*
%LPD*%
%LPC*%
G36*
X637585Y179887D02*
X637585Y179887D01*
X634971Y180970D01*
X632970Y182971D01*
X631887Y185585D01*
X631887Y186570D01*
X631879Y186626D01*
X631881Y186673D01*
X631880Y186675D01*
X631881Y186686D01*
X631859Y186768D01*
X631847Y186852D01*
X631824Y186905D01*
X631809Y186961D01*
X631766Y187034D01*
X631731Y187111D01*
X631693Y187156D01*
X631664Y187206D01*
X631602Y187264D01*
X631548Y187328D01*
X631499Y187360D01*
X631456Y187400D01*
X631381Y187439D01*
X631311Y187486D01*
X631255Y187503D01*
X631203Y187530D01*
X631135Y187541D01*
X631040Y187571D01*
X630940Y187574D01*
X630872Y187585D01*
X624216Y187585D01*
X621835Y189966D01*
X621835Y190634D01*
X621827Y190689D01*
X621829Y190734D01*
X621828Y190736D01*
X621829Y190750D01*
X621807Y190832D01*
X621795Y190916D01*
X621772Y190969D01*
X621757Y191025D01*
X621714Y191098D01*
X621679Y191175D01*
X621641Y191220D01*
X621612Y191270D01*
X621550Y191328D01*
X621496Y191392D01*
X621447Y191424D01*
X621404Y191464D01*
X621329Y191503D01*
X621259Y191550D01*
X621203Y191567D01*
X621151Y191594D01*
X621083Y191605D01*
X620999Y191632D01*
X620999Y197716D01*
X620991Y197774D01*
X620993Y197832D01*
X620971Y197914D01*
X620959Y197997D01*
X620936Y198051D01*
X620921Y198107D01*
X620878Y198180D01*
X620843Y198257D01*
X620805Y198301D01*
X620776Y198352D01*
X620772Y198354D01*
X620774Y198357D01*
X620814Y198400D01*
X620853Y198475D01*
X620900Y198545D01*
X620917Y198601D01*
X620944Y198653D01*
X620955Y198721D01*
X620985Y198816D01*
X620988Y198916D01*
X620999Y198984D01*
X620999Y205074D01*
X621018Y205079D01*
X621102Y205091D01*
X621155Y205114D01*
X621211Y205129D01*
X621284Y205172D01*
X621361Y205207D01*
X621406Y205245D01*
X621456Y205274D01*
X621514Y205336D01*
X621578Y205390D01*
X621610Y205439D01*
X621650Y205482D01*
X621689Y205557D01*
X621736Y205627D01*
X621753Y205683D01*
X621780Y205735D01*
X621791Y205803D01*
X621821Y205898D01*
X621824Y205998D01*
X621835Y206066D01*
X621835Y206734D01*
X622718Y207616D01*
X622718Y207617D01*
X624216Y209115D01*
X644034Y209115D01*
X646415Y206734D01*
X646415Y189951D01*
X646408Y189942D01*
X646348Y189878D01*
X646322Y189829D01*
X646289Y189784D01*
X646258Y189703D01*
X646218Y189625D01*
X646210Y189577D01*
X646188Y189519D01*
X646176Y189371D01*
X646163Y189294D01*
X646163Y185635D01*
X645080Y183021D01*
X643029Y180970D01*
X640415Y179887D01*
X637585Y179887D01*
G37*
%LPD*%
%LPC*%
G36*
X379130Y8889D02*
X379130Y8889D01*
X375676Y10320D01*
X373032Y12964D01*
X371601Y16418D01*
X371601Y34382D01*
X373032Y37836D01*
X375676Y40480D01*
X379130Y41911D01*
X382870Y41911D01*
X386324Y40480D01*
X388968Y37836D01*
X390399Y34382D01*
X390399Y16418D01*
X388968Y12964D01*
X386324Y10320D01*
X382870Y8889D01*
X379130Y8889D01*
G37*
%LPD*%
%LPC*%
G36*
X287690Y491489D02*
X287690Y491489D01*
X284236Y492920D01*
X281592Y495564D01*
X280161Y499018D01*
X280161Y516982D01*
X281592Y520436D01*
X284236Y523080D01*
X287690Y524511D01*
X291430Y524511D01*
X294884Y523080D01*
X297528Y520436D01*
X298959Y516982D01*
X298959Y499018D01*
X297528Y495564D01*
X294884Y492920D01*
X291430Y491489D01*
X287690Y491489D01*
G37*
%LPD*%
%LPC*%
G36*
X338490Y491489D02*
X338490Y491489D01*
X335036Y492920D01*
X332392Y495564D01*
X330961Y499018D01*
X330961Y516982D01*
X332392Y520436D01*
X335036Y523080D01*
X338490Y524511D01*
X342230Y524511D01*
X345684Y523080D01*
X348328Y520436D01*
X349759Y516982D01*
X349759Y499018D01*
X348328Y495564D01*
X345684Y492920D01*
X342230Y491489D01*
X338490Y491489D01*
G37*
%LPD*%
%LPC*%
G36*
X455330Y8889D02*
X455330Y8889D01*
X451876Y10320D01*
X449232Y12964D01*
X447801Y16418D01*
X447801Y34382D01*
X449232Y37836D01*
X451876Y40480D01*
X455330Y41911D01*
X459070Y41911D01*
X462524Y40480D01*
X465168Y37836D01*
X466599Y34382D01*
X466599Y16418D01*
X465168Y12964D01*
X462524Y10320D01*
X459070Y8889D01*
X455330Y8889D01*
G37*
%LPD*%
%LPC*%
G36*
X277530Y8889D02*
X277530Y8889D01*
X274076Y10320D01*
X271432Y12964D01*
X270001Y16418D01*
X270001Y34382D01*
X271432Y37836D01*
X274076Y40480D01*
X277530Y41911D01*
X281270Y41911D01*
X284724Y40480D01*
X287368Y37836D01*
X288799Y34382D01*
X288799Y16418D01*
X287368Y12964D01*
X284724Y10320D01*
X281270Y8889D01*
X277530Y8889D01*
G37*
%LPD*%
%LPC*%
G36*
X302930Y8889D02*
X302930Y8889D01*
X299476Y10320D01*
X296832Y12964D01*
X295401Y16418D01*
X295401Y34382D01*
X296832Y37836D01*
X299476Y40480D01*
X302930Y41911D01*
X306670Y41911D01*
X310124Y40480D01*
X312768Y37836D01*
X314199Y34382D01*
X314199Y16418D01*
X312768Y12964D01*
X310124Y10320D01*
X306670Y8889D01*
X302930Y8889D01*
G37*
%LPD*%
%LPC*%
G36*
X186090Y491489D02*
X186090Y491489D01*
X182636Y492920D01*
X179992Y495564D01*
X178561Y499018D01*
X178561Y516982D01*
X179992Y520436D01*
X182636Y523080D01*
X186090Y524511D01*
X189830Y524511D01*
X193284Y523080D01*
X195928Y520436D01*
X197359Y516982D01*
X197359Y499018D01*
X195928Y495564D01*
X193284Y492920D01*
X189830Y491489D01*
X186090Y491489D01*
G37*
%LPD*%
%LPC*%
G36*
X353730Y8889D02*
X353730Y8889D01*
X350276Y10320D01*
X347632Y12964D01*
X346201Y16418D01*
X346201Y34382D01*
X347632Y37836D01*
X350276Y40480D01*
X353730Y41911D01*
X357470Y41911D01*
X360924Y40480D01*
X363568Y37836D01*
X364999Y34382D01*
X364999Y16418D01*
X363568Y12964D01*
X360924Y10320D01*
X357470Y8889D01*
X353730Y8889D01*
G37*
%LPD*%
%LPC*%
G36*
X236890Y491489D02*
X236890Y491489D01*
X233436Y492920D01*
X230792Y495564D01*
X229361Y499018D01*
X229361Y516982D01*
X230792Y520436D01*
X233436Y523080D01*
X236890Y524511D01*
X240630Y524511D01*
X244084Y523080D01*
X246728Y520436D01*
X248159Y516982D01*
X248159Y499018D01*
X246728Y495564D01*
X244084Y492920D01*
X240630Y491489D01*
X236890Y491489D01*
G37*
%LPD*%
%LPC*%
G36*
X211490Y491489D02*
X211490Y491489D01*
X208036Y492920D01*
X205392Y495564D01*
X203961Y499018D01*
X203961Y516982D01*
X205392Y520436D01*
X208036Y523080D01*
X211490Y524511D01*
X215230Y524511D01*
X218684Y523080D01*
X221328Y520436D01*
X222759Y516982D01*
X222759Y499018D01*
X221328Y495564D01*
X218684Y492920D01*
X215230Y491489D01*
X211490Y491489D01*
G37*
%LPD*%
%LPC*%
G36*
X313090Y491489D02*
X313090Y491489D01*
X309636Y492920D01*
X306992Y495564D01*
X305561Y499018D01*
X305561Y516982D01*
X306992Y520436D01*
X309636Y523080D01*
X313090Y524511D01*
X316830Y524511D01*
X320284Y523080D01*
X322928Y520436D01*
X324359Y516982D01*
X324359Y499018D01*
X322928Y495564D01*
X320284Y492920D01*
X316830Y491489D01*
X313090Y491489D01*
G37*
%LPD*%
%LPC*%
G36*
X328330Y8889D02*
X328330Y8889D01*
X324876Y10320D01*
X322232Y12964D01*
X320801Y16418D01*
X320801Y34382D01*
X322232Y37836D01*
X324876Y40480D01*
X328330Y41911D01*
X332070Y41911D01*
X335524Y40480D01*
X338168Y37836D01*
X339599Y34382D01*
X339599Y16418D01*
X338168Y12964D01*
X335524Y10320D01*
X332070Y8889D01*
X328330Y8889D01*
G37*
%LPD*%
%LPC*%
G36*
X335038Y438933D02*
X335038Y438933D01*
X333698Y440273D01*
X333698Y458167D01*
X335038Y459507D01*
X354962Y459507D01*
X356302Y458167D01*
X356302Y440273D01*
X354962Y438933D01*
X335038Y438933D01*
G37*
%LPD*%
%LPC*%
G36*
X302038Y438933D02*
X302038Y438933D01*
X300698Y440273D01*
X300698Y458167D01*
X302038Y459507D01*
X321962Y459507D01*
X323302Y458167D01*
X323302Y440273D01*
X321962Y438933D01*
X302038Y438933D01*
G37*
%LPD*%
%LPC*%
G36*
X340273Y463198D02*
X340273Y463198D01*
X338933Y464538D01*
X338933Y484462D01*
X340273Y485802D01*
X358167Y485802D01*
X359507Y484462D01*
X359507Y464538D01*
X358167Y463198D01*
X340273Y463198D01*
G37*
%LPD*%
%LPC*%
G36*
X458431Y328084D02*
X458431Y328084D01*
X458375Y328101D01*
X458323Y328128D01*
X458255Y328139D01*
X458160Y328169D01*
X458060Y328172D01*
X457992Y328183D01*
X455310Y328183D01*
X455295Y328217D01*
X455257Y328262D01*
X455228Y328312D01*
X455166Y328370D01*
X455112Y328434D01*
X455063Y328466D01*
X455020Y328506D01*
X454945Y328545D01*
X454875Y328592D01*
X454819Y328609D01*
X454767Y328636D01*
X454699Y328647D01*
X454604Y328677D01*
X454504Y328680D01*
X454436Y328691D01*
X449864Y328691D01*
X449806Y328683D01*
X449748Y328685D01*
X449666Y328663D01*
X449582Y328651D01*
X449529Y328628D01*
X449473Y328613D01*
X449400Y328570D01*
X449323Y328535D01*
X449278Y328497D01*
X449228Y328468D01*
X449170Y328406D01*
X449106Y328352D01*
X449074Y328303D01*
X449034Y328260D01*
X448995Y328185D01*
X448994Y328183D01*
X446308Y328183D01*
X446250Y328175D01*
X446192Y328177D01*
X446110Y328155D01*
X446027Y328143D01*
X445973Y328120D01*
X445917Y328105D01*
X445844Y328062D01*
X445796Y328040D01*
X445731Y328084D01*
X445675Y328101D01*
X445623Y328128D01*
X445555Y328139D01*
X445460Y328169D01*
X445360Y328172D01*
X445292Y328183D01*
X442610Y328183D01*
X442595Y328217D01*
X442557Y328262D01*
X442528Y328312D01*
X442466Y328370D01*
X442412Y328434D01*
X442363Y328466D01*
X442320Y328506D01*
X442245Y328545D01*
X442175Y328591D01*
X442119Y328609D01*
X442067Y328636D01*
X441999Y328647D01*
X441904Y328677D01*
X441804Y328680D01*
X441736Y328691D01*
X441481Y328691D01*
X441481Y345711D01*
X459009Y345711D01*
X459009Y332756D01*
X459017Y332698D01*
X459015Y332640D01*
X459037Y332558D01*
X459049Y332474D01*
X459072Y332421D01*
X459087Y332365D01*
X459130Y332292D01*
X459165Y332215D01*
X459203Y332170D01*
X459232Y332120D01*
X459294Y332062D01*
X459348Y331998D01*
X459397Y331966D01*
X459440Y331926D01*
X459515Y331887D01*
X459585Y331840D01*
X459641Y331823D01*
X459693Y331796D01*
X459761Y331785D01*
X459856Y331755D01*
X459956Y331752D01*
X460024Y331741D01*
X461548Y331741D01*
X461549Y331740D01*
X461549Y328183D01*
X459008Y328183D01*
X458950Y328175D01*
X458892Y328177D01*
X458810Y328155D01*
X458727Y328143D01*
X458673Y328120D01*
X458617Y328105D01*
X458544Y328062D01*
X458496Y328040D01*
X458431Y328084D01*
G37*
%LPD*%
%LPC*%
G36*
X442581Y289289D02*
X442581Y289289D01*
X442581Y306309D01*
X442836Y306309D01*
X442894Y306317D01*
X442952Y306315D01*
X443034Y306337D01*
X443118Y306349D01*
X443171Y306372D01*
X443227Y306387D01*
X443300Y306430D01*
X443377Y306465D01*
X443422Y306503D01*
X443472Y306532D01*
X443530Y306594D01*
X443594Y306648D01*
X443626Y306697D01*
X443666Y306740D01*
X443705Y306815D01*
X443706Y306817D01*
X446392Y306817D01*
X446450Y306825D01*
X446508Y306823D01*
X446590Y306845D01*
X446673Y306857D01*
X446727Y306880D01*
X446783Y306895D01*
X446856Y306938D01*
X446904Y306960D01*
X446969Y306916D01*
X447025Y306899D01*
X447077Y306872D01*
X447145Y306861D01*
X447240Y306831D01*
X447340Y306828D01*
X447408Y306817D01*
X450090Y306817D01*
X450105Y306783D01*
X450143Y306738D01*
X450172Y306688D01*
X450234Y306630D01*
X450288Y306566D01*
X450337Y306534D01*
X450380Y306494D01*
X450455Y306455D01*
X450525Y306408D01*
X450581Y306391D01*
X450633Y306364D01*
X450701Y306353D01*
X450796Y306323D01*
X450896Y306320D01*
X450964Y306309D01*
X455536Y306309D01*
X455594Y306317D01*
X455652Y306315D01*
X455734Y306337D01*
X455818Y306349D01*
X455871Y306372D01*
X455927Y306387D01*
X456000Y306430D01*
X456077Y306465D01*
X456122Y306503D01*
X456172Y306532D01*
X456230Y306594D01*
X456294Y306648D01*
X456326Y306697D01*
X456366Y306740D01*
X456405Y306815D01*
X456406Y306817D01*
X459092Y306817D01*
X459150Y306825D01*
X459208Y306823D01*
X459290Y306845D01*
X459373Y306857D01*
X459427Y306880D01*
X459483Y306895D01*
X459556Y306938D01*
X459604Y306960D01*
X459669Y306916D01*
X459725Y306899D01*
X459777Y306872D01*
X459845Y306861D01*
X459940Y306831D01*
X460040Y306828D01*
X460108Y306817D01*
X462649Y306817D01*
X462649Y303260D01*
X462648Y303259D01*
X461124Y303259D01*
X461066Y303251D01*
X461008Y303253D01*
X460926Y303231D01*
X460842Y303219D01*
X460789Y303196D01*
X460733Y303181D01*
X460660Y303138D01*
X460583Y303103D01*
X460538Y303065D01*
X460488Y303036D01*
X460430Y302974D01*
X460366Y302920D01*
X460334Y302871D01*
X460294Y302828D01*
X460255Y302753D01*
X460208Y302683D01*
X460191Y302627D01*
X460164Y302575D01*
X460153Y302507D01*
X460123Y302412D01*
X460120Y302312D01*
X460109Y302244D01*
X460109Y289289D01*
X442581Y289289D01*
G37*
%LPD*%
%LPC*%
G36*
X396519Y133749D02*
X396519Y133749D01*
X396519Y149001D01*
X408021Y149001D01*
X408021Y133750D01*
X408020Y133749D01*
X396519Y133749D01*
G37*
%LPD*%
%LPC*%
G36*
X383020Y133749D02*
X383020Y133749D01*
X383019Y133750D01*
X383019Y149001D01*
X394521Y149001D01*
X394521Y133749D01*
X383020Y133749D01*
G37*
%LPD*%
%LPC*%
G36*
X432799Y26399D02*
X432799Y26399D01*
X432799Y39565D01*
X433875Y39351D01*
X435169Y38815D01*
X436334Y38037D01*
X437325Y37046D01*
X438103Y35881D01*
X438639Y34587D01*
X438913Y33213D01*
X438913Y26399D01*
X432799Y26399D01*
G37*
%LPD*%
%LPC*%
G36*
X407399Y26399D02*
X407399Y26399D01*
X407399Y39565D01*
X408475Y39351D01*
X409769Y38815D01*
X410934Y38037D01*
X411925Y37046D01*
X412703Y35881D01*
X413239Y34587D01*
X413513Y33213D01*
X413513Y26399D01*
X407399Y26399D01*
G37*
%LPD*%
%LPC*%
G36*
X265159Y508999D02*
X265159Y508999D01*
X265159Y522165D01*
X266235Y521951D01*
X267529Y521415D01*
X268694Y520637D01*
X269685Y519646D01*
X270463Y518481D01*
X270999Y517187D01*
X271273Y515813D01*
X271273Y508999D01*
X265159Y508999D01*
G37*
%LPD*%
%LPC*%
G36*
X432799Y24401D02*
X432799Y24401D01*
X438913Y24401D01*
X438913Y17587D01*
X438639Y16213D01*
X438103Y14919D01*
X437325Y13754D01*
X436334Y12763D01*
X435169Y11985D01*
X433875Y11449D01*
X432799Y11235D01*
X432799Y24401D01*
G37*
%LPD*%
%LPC*%
G36*
X265159Y507001D02*
X265159Y507001D01*
X271273Y507001D01*
X271273Y500187D01*
X270999Y498813D01*
X270463Y497519D01*
X269685Y496354D01*
X268694Y495363D01*
X267529Y494585D01*
X266235Y494049D01*
X265159Y493835D01*
X265159Y507001D01*
G37*
%LPD*%
%LPC*%
G36*
X407399Y24401D02*
X407399Y24401D01*
X413513Y24401D01*
X413513Y17587D01*
X413239Y16213D01*
X412703Y14919D01*
X411925Y13754D01*
X410934Y12763D01*
X409769Y11985D01*
X408475Y11449D01*
X407399Y11235D01*
X407399Y24401D01*
G37*
%LPD*%
%LPC*%
G36*
X257047Y508999D02*
X257047Y508999D01*
X257047Y515813D01*
X257321Y517187D01*
X257857Y518481D01*
X258635Y519646D01*
X259626Y520637D01*
X260791Y521415D01*
X261807Y521836D01*
X262085Y521951D01*
X263161Y522165D01*
X263161Y508999D01*
X257047Y508999D01*
G37*
%LPD*%
%LPC*%
G36*
X424687Y26399D02*
X424687Y26399D01*
X424687Y33213D01*
X424961Y34587D01*
X425497Y35881D01*
X426275Y37046D01*
X427266Y38037D01*
X428431Y38815D01*
X429725Y39351D01*
X430801Y39565D01*
X430801Y26399D01*
X424687Y26399D01*
G37*
%LPD*%
%LPC*%
G36*
X399287Y26399D02*
X399287Y26399D01*
X399287Y33213D01*
X399561Y34587D01*
X400097Y35881D01*
X400875Y37046D01*
X401866Y38037D01*
X403031Y38815D01*
X404325Y39351D01*
X405401Y39565D01*
X405401Y26399D01*
X399287Y26399D01*
G37*
%LPD*%
%LPC*%
G36*
X429725Y11449D02*
X429725Y11449D01*
X428431Y11985D01*
X427266Y12763D01*
X426275Y13754D01*
X425497Y14919D01*
X424961Y16213D01*
X424687Y17587D01*
X424687Y24401D01*
X430801Y24401D01*
X430801Y11235D01*
X429725Y11449D01*
G37*
%LPD*%
%LPC*%
G36*
X404325Y11449D02*
X404325Y11449D01*
X403031Y11985D01*
X401866Y12763D01*
X400875Y13754D01*
X400097Y14919D01*
X399561Y16213D01*
X399287Y17587D01*
X399287Y24401D01*
X405401Y24401D01*
X405401Y11235D01*
X404325Y11449D01*
G37*
%LPD*%
%LPC*%
G36*
X262085Y494049D02*
X262085Y494049D01*
X260791Y494585D01*
X259626Y495363D01*
X258635Y496354D01*
X257857Y497519D01*
X257321Y498813D01*
X257047Y500187D01*
X257047Y507001D01*
X263161Y507001D01*
X263161Y493835D01*
X262085Y494049D01*
G37*
%LPD*%
%LPC*%
G36*
X480779Y539999D02*
X480779Y539999D01*
X480779Y548016D01*
X487780Y548016D01*
X487781Y548015D01*
X487781Y539999D01*
X480779Y539999D01*
G37*
%LPD*%
%LPC*%
G36*
X321779Y475499D02*
X321779Y475499D01*
X321779Y483516D01*
X328780Y483516D01*
X328781Y483515D01*
X328781Y475499D01*
X321779Y475499D01*
G37*
%LPD*%
%LPC*%
G36*
X471779Y539999D02*
X471779Y539999D01*
X471779Y548015D01*
X471780Y548016D01*
X478781Y548016D01*
X478781Y539999D01*
X471779Y539999D01*
G37*
%LPD*%
%LPC*%
G36*
X312779Y475499D02*
X312779Y475499D01*
X312779Y483515D01*
X312780Y483516D01*
X319781Y483516D01*
X319781Y475499D01*
X312779Y475499D01*
G37*
%LPD*%
%LPC*%
G36*
X321779Y465484D02*
X321779Y465484D01*
X321779Y473501D01*
X328781Y473501D01*
X328781Y465485D01*
X328780Y465484D01*
X321779Y465484D01*
G37*
%LPD*%
%LPC*%
G36*
X480779Y529984D02*
X480779Y529984D01*
X480779Y538001D01*
X487781Y538001D01*
X487781Y529985D01*
X487780Y529984D01*
X480779Y529984D01*
G37*
%LPD*%
%LPC*%
G36*
X312780Y465484D02*
X312780Y465484D01*
X312779Y465485D01*
X312779Y473501D01*
X319781Y473501D01*
X319781Y465484D01*
X312780Y465484D01*
G37*
%LPD*%
%LPC*%
G36*
X471780Y529984D02*
X471780Y529984D01*
X471779Y529985D01*
X471779Y538001D01*
X478781Y538001D01*
X478781Y529984D01*
X471780Y529984D01*
G37*
%LPD*%
%LPC*%
G36*
X1103499Y100999D02*
X1103499Y100999D01*
X1103499Y109384D01*
X1105241Y109038D01*
X1106952Y108329D01*
X1108491Y107300D01*
X1109800Y105991D01*
X1110829Y104452D01*
X1111538Y102741D01*
X1111884Y100999D01*
X1103499Y100999D01*
G37*
%LPD*%
%LPC*%
G36*
X1103499Y75599D02*
X1103499Y75599D01*
X1103499Y83984D01*
X1105241Y83638D01*
X1106952Y82929D01*
X1108491Y81900D01*
X1109800Y80591D01*
X1110829Y79052D01*
X1111538Y77341D01*
X1111884Y75599D01*
X1103499Y75599D01*
G37*
%LPD*%
%LPC*%
G36*
X1093116Y75599D02*
X1093116Y75599D01*
X1093462Y77341D01*
X1094171Y79052D01*
X1095200Y80591D01*
X1096509Y81900D01*
X1098048Y82929D01*
X1099759Y83638D01*
X1101501Y83984D01*
X1101501Y75599D01*
X1093116Y75599D01*
G37*
%LPD*%
%LPC*%
G36*
X1103499Y73601D02*
X1103499Y73601D01*
X1111884Y73601D01*
X1111538Y71859D01*
X1110829Y70148D01*
X1109800Y68609D01*
X1108491Y67300D01*
X1106952Y66271D01*
X1105241Y65562D01*
X1103499Y65216D01*
X1103499Y73601D01*
G37*
%LPD*%
%LPC*%
G36*
X1103499Y99001D02*
X1103499Y99001D01*
X1111884Y99001D01*
X1111538Y97259D01*
X1110829Y95548D01*
X1109800Y94009D01*
X1108491Y92700D01*
X1106952Y91671D01*
X1105241Y90962D01*
X1103499Y90616D01*
X1103499Y99001D01*
G37*
%LPD*%
%LPC*%
G36*
X1093116Y100999D02*
X1093116Y100999D01*
X1093462Y102741D01*
X1094171Y104452D01*
X1095200Y105991D01*
X1096509Y107300D01*
X1098048Y108329D01*
X1099759Y109038D01*
X1101501Y109384D01*
X1101501Y100999D01*
X1093116Y100999D01*
G37*
%LPD*%
%LPC*%
G36*
X1099759Y90962D02*
X1099759Y90962D01*
X1098048Y91671D01*
X1096509Y92700D01*
X1095200Y94009D01*
X1094171Y95548D01*
X1093462Y97259D01*
X1093116Y99001D01*
X1101501Y99001D01*
X1101501Y90616D01*
X1099759Y90962D01*
G37*
%LPD*%
%LPC*%
G36*
X1099759Y65562D02*
X1099759Y65562D01*
X1098048Y66271D01*
X1096509Y67300D01*
X1095200Y68609D01*
X1094171Y70148D01*
X1093462Y71859D01*
X1093116Y73601D01*
X1101501Y73601D01*
X1101501Y65216D01*
X1099759Y65562D01*
G37*
%LPD*%
%LPC*%
G36*
X267031Y386431D02*
X267031Y386431D01*
X267031Y393300D01*
X273899Y393300D01*
X273900Y393299D01*
X273900Y386431D01*
X267031Y386431D01*
G37*
%LPD*%
%LPC*%
G36*
X292431Y181031D02*
X292431Y181031D01*
X292431Y187900D01*
X299299Y187900D01*
X299300Y187899D01*
X299300Y181031D01*
X292431Y181031D01*
G37*
%LPD*%
%LPC*%
G36*
X241631Y155631D02*
X241631Y155631D01*
X241631Y162500D01*
X248499Y162500D01*
X248500Y162499D01*
X248500Y155631D01*
X241631Y155631D01*
G37*
%LPD*%
%LPC*%
G36*
X292431Y206431D02*
X292431Y206431D01*
X292431Y213300D01*
X299299Y213300D01*
X299300Y213299D01*
X299300Y206431D01*
X292431Y206431D01*
G37*
%LPD*%
%LPC*%
G36*
X267031Y206431D02*
X267031Y206431D01*
X267031Y213300D01*
X273899Y213300D01*
X273900Y213299D01*
X273900Y206431D01*
X267031Y206431D01*
G37*
%LPD*%
%LPC*%
G36*
X267031Y155631D02*
X267031Y155631D01*
X267031Y162500D01*
X273899Y162500D01*
X273900Y162499D01*
X273900Y155631D01*
X267031Y155631D01*
G37*
%LPD*%
%LPC*%
G36*
X292431Y386431D02*
X292431Y386431D01*
X292431Y393300D01*
X299299Y393300D01*
X299300Y393299D01*
X299300Y386431D01*
X292431Y386431D01*
G37*
%LPD*%
%LPC*%
G36*
X292431Y155631D02*
X292431Y155631D01*
X292431Y162500D01*
X299299Y162500D01*
X299300Y162499D01*
X299300Y155631D01*
X292431Y155631D01*
G37*
%LPD*%
%LPC*%
G36*
X292431Y361031D02*
X292431Y361031D01*
X292431Y367900D01*
X299299Y367900D01*
X299300Y367899D01*
X299300Y361031D01*
X292431Y361031D01*
G37*
%LPD*%
%LPC*%
G36*
X241631Y206431D02*
X241631Y206431D01*
X241631Y213300D01*
X248499Y213300D01*
X248500Y213299D01*
X248500Y206431D01*
X241631Y206431D01*
G37*
%LPD*%
%LPC*%
G36*
X241631Y361031D02*
X241631Y361031D01*
X241631Y367900D01*
X248499Y367900D01*
X248500Y367899D01*
X248500Y361031D01*
X241631Y361031D01*
G37*
%LPD*%
%LPC*%
G36*
X267031Y181031D02*
X267031Y181031D01*
X267031Y187900D01*
X273899Y187900D01*
X273900Y187899D01*
X273900Y181031D01*
X267031Y181031D01*
G37*
%LPD*%
%LPC*%
G36*
X241631Y386431D02*
X241631Y386431D01*
X241631Y393300D01*
X248499Y393300D01*
X248500Y393299D01*
X248500Y386431D01*
X241631Y386431D01*
G37*
%LPD*%
%LPC*%
G36*
X241631Y181031D02*
X241631Y181031D01*
X241631Y187900D01*
X248499Y187900D01*
X248500Y187899D01*
X248500Y181031D01*
X241631Y181031D01*
G37*
%LPD*%
%LPC*%
G36*
X267031Y361031D02*
X267031Y361031D01*
X267031Y367900D01*
X273899Y367900D01*
X273900Y367899D01*
X273900Y361031D01*
X267031Y361031D01*
G37*
%LPD*%
%LPC*%
G36*
X292431Y335631D02*
X292431Y335631D01*
X292431Y342500D01*
X299299Y342500D01*
X299300Y342499D01*
X299300Y335631D01*
X292431Y335631D01*
G37*
%LPD*%
%LPC*%
G36*
X241631Y335631D02*
X241631Y335631D01*
X241631Y342500D01*
X248499Y342500D01*
X248500Y342499D01*
X248500Y335631D01*
X241631Y335631D01*
G37*
%LPD*%
%LPC*%
G36*
X267031Y335631D02*
X267031Y335631D01*
X267031Y342500D01*
X273899Y342500D01*
X273900Y342499D01*
X273900Y335631D01*
X267031Y335631D01*
G37*
%LPD*%
%LPC*%
G36*
X230700Y155631D02*
X230700Y155631D01*
X230700Y162499D01*
X230701Y162500D01*
X237569Y162500D01*
X237569Y155631D01*
X230700Y155631D01*
G37*
%LPD*%
%LPC*%
G36*
X281500Y335631D02*
X281500Y335631D01*
X281500Y342499D01*
X281501Y342500D01*
X288369Y342500D01*
X288369Y335631D01*
X281500Y335631D01*
G37*
%LPD*%
%LPC*%
G36*
X256100Y335631D02*
X256100Y335631D01*
X256100Y342499D01*
X256101Y342500D01*
X262969Y342500D01*
X262969Y335631D01*
X256100Y335631D01*
G37*
%LPD*%
%LPC*%
G36*
X281500Y181031D02*
X281500Y181031D01*
X281500Y187899D01*
X281501Y187900D01*
X288369Y187900D01*
X288369Y181031D01*
X281500Y181031D01*
G37*
%LPD*%
%LPC*%
G36*
X230700Y181031D02*
X230700Y181031D01*
X230700Y187899D01*
X230701Y187900D01*
X237569Y187900D01*
X237569Y181031D01*
X230700Y181031D01*
G37*
%LPD*%
%LPC*%
G36*
X256100Y386431D02*
X256100Y386431D01*
X256100Y393299D01*
X256101Y393300D01*
X262969Y393300D01*
X262969Y386431D01*
X256100Y386431D01*
G37*
%LPD*%
%LPC*%
G36*
X281500Y361031D02*
X281500Y361031D01*
X281500Y367899D01*
X281501Y367900D01*
X288369Y367900D01*
X288369Y361031D01*
X281500Y361031D01*
G37*
%LPD*%
%LPC*%
G36*
X256100Y361031D02*
X256100Y361031D01*
X256100Y367899D01*
X256101Y367900D01*
X262969Y367900D01*
X262969Y361031D01*
X256100Y361031D01*
G37*
%LPD*%
%LPC*%
G36*
X281500Y386431D02*
X281500Y386431D01*
X281500Y393299D01*
X281501Y393300D01*
X288369Y393300D01*
X288369Y386431D01*
X281500Y386431D01*
G37*
%LPD*%
%LPC*%
G36*
X256100Y206431D02*
X256100Y206431D01*
X256100Y213299D01*
X256101Y213300D01*
X262969Y213300D01*
X262969Y206431D01*
X256100Y206431D01*
G37*
%LPD*%
%LPC*%
G36*
X230700Y206431D02*
X230700Y206431D01*
X230700Y213299D01*
X230701Y213300D01*
X237569Y213300D01*
X237569Y206431D01*
X230700Y206431D01*
G37*
%LPD*%
%LPC*%
G36*
X256100Y155631D02*
X256100Y155631D01*
X256100Y162499D01*
X256101Y162500D01*
X262969Y162500D01*
X262969Y155631D01*
X256100Y155631D01*
G37*
%LPD*%
%LPC*%
G36*
X281500Y206431D02*
X281500Y206431D01*
X281500Y213299D01*
X281501Y213300D01*
X288369Y213300D01*
X288369Y206431D01*
X281500Y206431D01*
G37*
%LPD*%
%LPC*%
G36*
X256100Y181031D02*
X256100Y181031D01*
X256100Y187899D01*
X256101Y187900D01*
X262969Y187900D01*
X262969Y181031D01*
X256100Y181031D01*
G37*
%LPD*%
%LPC*%
G36*
X281500Y155631D02*
X281500Y155631D01*
X281500Y162499D01*
X281501Y162500D01*
X288369Y162500D01*
X288369Y155631D01*
X281500Y155631D01*
G37*
%LPD*%
%LPC*%
G36*
X230700Y386431D02*
X230700Y386431D01*
X230700Y393299D01*
X230701Y393300D01*
X237569Y393300D01*
X237569Y386431D01*
X230700Y386431D01*
G37*
%LPD*%
%LPC*%
G36*
X230700Y335631D02*
X230700Y335631D01*
X230700Y342499D01*
X230701Y342500D01*
X237569Y342500D01*
X237569Y335631D01*
X230700Y335631D01*
G37*
%LPD*%
%LPC*%
G36*
X230700Y361031D02*
X230700Y361031D01*
X230700Y367899D01*
X230701Y367900D01*
X237569Y367900D01*
X237569Y361031D01*
X230700Y361031D01*
G37*
%LPD*%
%LPC*%
G36*
X292431Y324700D02*
X292431Y324700D01*
X292431Y331569D01*
X299300Y331569D01*
X299300Y324701D01*
X299299Y324700D01*
X292431Y324700D01*
G37*
%LPD*%
%LPC*%
G36*
X267031Y144700D02*
X267031Y144700D01*
X267031Y151569D01*
X273900Y151569D01*
X273900Y144701D01*
X273899Y144700D01*
X267031Y144700D01*
G37*
%LPD*%
%LPC*%
G36*
X267031Y324700D02*
X267031Y324700D01*
X267031Y331569D01*
X273900Y331569D01*
X273900Y324701D01*
X273899Y324700D01*
X267031Y324700D01*
G37*
%LPD*%
%LPC*%
G36*
X292431Y144700D02*
X292431Y144700D01*
X292431Y151569D01*
X299300Y151569D01*
X299300Y144701D01*
X299299Y144700D01*
X292431Y144700D01*
G37*
%LPD*%
%LPC*%
G36*
X241631Y324700D02*
X241631Y324700D01*
X241631Y331569D01*
X248500Y331569D01*
X248500Y324701D01*
X248499Y324700D01*
X241631Y324700D01*
G37*
%LPD*%
%LPC*%
G36*
X241631Y144700D02*
X241631Y144700D01*
X241631Y151569D01*
X248500Y151569D01*
X248500Y144701D01*
X248499Y144700D01*
X241631Y144700D01*
G37*
%LPD*%
%LPC*%
G36*
X267031Y375500D02*
X267031Y375500D01*
X267031Y382369D01*
X273900Y382369D01*
X273900Y375501D01*
X273899Y375500D01*
X267031Y375500D01*
G37*
%LPD*%
%LPC*%
G36*
X241631Y375500D02*
X241631Y375500D01*
X241631Y382369D01*
X248500Y382369D01*
X248500Y375501D01*
X248499Y375500D01*
X241631Y375500D01*
G37*
%LPD*%
%LPC*%
G36*
X241631Y350100D02*
X241631Y350100D01*
X241631Y356969D01*
X248500Y356969D01*
X248500Y350101D01*
X248499Y350100D01*
X241631Y350100D01*
G37*
%LPD*%
%LPC*%
G36*
X292431Y350100D02*
X292431Y350100D01*
X292431Y356969D01*
X299300Y356969D01*
X299300Y350101D01*
X299299Y350100D01*
X292431Y350100D01*
G37*
%LPD*%
%LPC*%
G36*
X267031Y350100D02*
X267031Y350100D01*
X267031Y356969D01*
X273900Y356969D01*
X273900Y350101D01*
X273899Y350100D01*
X267031Y350100D01*
G37*
%LPD*%
%LPC*%
G36*
X241631Y195500D02*
X241631Y195500D01*
X241631Y202369D01*
X248500Y202369D01*
X248500Y195501D01*
X248499Y195500D01*
X241631Y195500D01*
G37*
%LPD*%
%LPC*%
G36*
X267031Y195500D02*
X267031Y195500D01*
X267031Y202369D01*
X273900Y202369D01*
X273900Y195501D01*
X273899Y195500D01*
X267031Y195500D01*
G37*
%LPD*%
%LPC*%
G36*
X292431Y375500D02*
X292431Y375500D01*
X292431Y382369D01*
X299300Y382369D01*
X299300Y375501D01*
X299299Y375500D01*
X292431Y375500D01*
G37*
%LPD*%
%LPC*%
G36*
X292431Y195500D02*
X292431Y195500D01*
X292431Y202369D01*
X299300Y202369D01*
X299300Y195501D01*
X299299Y195500D01*
X292431Y195500D01*
G37*
%LPD*%
%LPC*%
G36*
X267031Y170100D02*
X267031Y170100D01*
X267031Y176969D01*
X273900Y176969D01*
X273900Y170101D01*
X273899Y170100D01*
X267031Y170100D01*
G37*
%LPD*%
%LPC*%
G36*
X292431Y170100D02*
X292431Y170100D01*
X292431Y176969D01*
X299300Y176969D01*
X299300Y170101D01*
X299299Y170100D01*
X292431Y170100D01*
G37*
%LPD*%
%LPC*%
G36*
X241631Y170100D02*
X241631Y170100D01*
X241631Y176969D01*
X248500Y176969D01*
X248500Y170101D01*
X248499Y170100D01*
X241631Y170100D01*
G37*
%LPD*%
%LPC*%
G36*
X281501Y144700D02*
X281501Y144700D01*
X281500Y144701D01*
X281500Y151569D01*
X288369Y151569D01*
X288369Y144700D01*
X281501Y144700D01*
G37*
%LPD*%
%LPC*%
G36*
X256101Y144700D02*
X256101Y144700D01*
X256100Y144701D01*
X256100Y151569D01*
X262969Y151569D01*
X262969Y144700D01*
X256101Y144700D01*
G37*
%LPD*%
%LPC*%
G36*
X256101Y170100D02*
X256101Y170100D01*
X256100Y170101D01*
X256100Y176969D01*
X262969Y176969D01*
X262969Y170100D01*
X256101Y170100D01*
G37*
%LPD*%
%LPC*%
G36*
X281501Y375500D02*
X281501Y375500D01*
X281500Y375501D01*
X281500Y382369D01*
X288369Y382369D01*
X288369Y375500D01*
X281501Y375500D01*
G37*
%LPD*%
%LPC*%
G36*
X281501Y195500D02*
X281501Y195500D01*
X281500Y195501D01*
X281500Y202369D01*
X288369Y202369D01*
X288369Y195500D01*
X281501Y195500D01*
G37*
%LPD*%
%LPC*%
G36*
X230701Y170100D02*
X230701Y170100D01*
X230700Y170101D01*
X230700Y176969D01*
X237569Y176969D01*
X237569Y170100D01*
X230701Y170100D01*
G37*
%LPD*%
%LPC*%
G36*
X256101Y195500D02*
X256101Y195500D01*
X256100Y195501D01*
X256100Y202369D01*
X262969Y202369D01*
X262969Y195500D01*
X256101Y195500D01*
G37*
%LPD*%
%LPC*%
G36*
X281501Y350100D02*
X281501Y350100D01*
X281500Y350101D01*
X281500Y356969D01*
X288369Y356969D01*
X288369Y350100D01*
X281501Y350100D01*
G37*
%LPD*%
%LPC*%
G36*
X256101Y350100D02*
X256101Y350100D01*
X256100Y350101D01*
X256100Y356969D01*
X262969Y356969D01*
X262969Y350100D01*
X256101Y350100D01*
G37*
%LPD*%
%LPC*%
G36*
X256101Y324700D02*
X256101Y324700D01*
X256100Y324701D01*
X256100Y331569D01*
X262969Y331569D01*
X262969Y324700D01*
X256101Y324700D01*
G37*
%LPD*%
%LPC*%
G36*
X281501Y170100D02*
X281501Y170100D01*
X281500Y170101D01*
X281500Y176969D01*
X288369Y176969D01*
X288369Y170100D01*
X281501Y170100D01*
G37*
%LPD*%
%LPC*%
G36*
X281501Y324700D02*
X281501Y324700D01*
X281500Y324701D01*
X281500Y331569D01*
X288369Y331569D01*
X288369Y324700D01*
X281501Y324700D01*
G37*
%LPD*%
%LPC*%
G36*
X256101Y375500D02*
X256101Y375500D01*
X256100Y375501D01*
X256100Y382369D01*
X262969Y382369D01*
X262969Y375500D01*
X256101Y375500D01*
G37*
%LPD*%
%LPC*%
G36*
X230701Y195500D02*
X230701Y195500D01*
X230700Y195501D01*
X230700Y202369D01*
X237569Y202369D01*
X237569Y195500D01*
X230701Y195500D01*
G37*
%LPD*%
%LPC*%
G36*
X230701Y144700D02*
X230701Y144700D01*
X230700Y144701D01*
X230700Y151569D01*
X237569Y151569D01*
X237569Y144700D01*
X230701Y144700D01*
G37*
%LPD*%
%LPC*%
G36*
X230701Y324700D02*
X230701Y324700D01*
X230700Y324701D01*
X230700Y331569D01*
X237569Y331569D01*
X237569Y324700D01*
X230701Y324700D01*
G37*
%LPD*%
%LPC*%
G36*
X230701Y350100D02*
X230701Y350100D01*
X230700Y350101D01*
X230700Y356969D01*
X237569Y356969D01*
X237569Y350100D01*
X230701Y350100D01*
G37*
%LPD*%
%LPC*%
G36*
X230701Y375500D02*
X230701Y375500D01*
X230700Y375501D01*
X230700Y379030D01*
X230700Y382369D01*
X237569Y382369D01*
X237569Y375500D01*
X230701Y375500D01*
G37*
%LPD*%
%LPC*%
G36*
X683531Y343031D02*
X683531Y343031D01*
X683531Y345501D01*
X689500Y345501D01*
X689501Y345500D01*
X689501Y343031D01*
X683531Y343031D01*
G37*
%LPD*%
%LPC*%
G36*
X682531Y271031D02*
X682531Y271031D01*
X682531Y273501D01*
X688500Y273501D01*
X688501Y273500D01*
X688501Y271031D01*
X682531Y271031D01*
G37*
%LPD*%
%LPC*%
G36*
X472031Y210031D02*
X472031Y210031D01*
X472031Y212501D01*
X478000Y212501D01*
X478001Y212500D01*
X478001Y210031D01*
X472031Y210031D01*
G37*
%LPD*%
%LPC*%
G36*
X682531Y301031D02*
X682531Y301031D01*
X682531Y303501D01*
X688500Y303501D01*
X688501Y303500D01*
X688501Y301031D01*
X682531Y301031D01*
G37*
%LPD*%
%LPC*%
G36*
X672499Y301031D02*
X672499Y301031D01*
X672499Y303500D01*
X672500Y303501D01*
X678469Y303501D01*
X678469Y301031D01*
X672499Y301031D01*
G37*
%LPD*%
%LPC*%
G36*
X672499Y271031D02*
X672499Y271031D01*
X672499Y273500D01*
X672500Y273501D01*
X678469Y273501D01*
X678469Y271031D01*
X672499Y271031D01*
G37*
%LPD*%
%LPC*%
G36*
X461999Y210031D02*
X461999Y210031D01*
X461999Y212500D01*
X462000Y212501D01*
X467969Y212501D01*
X467969Y210031D01*
X461999Y210031D01*
G37*
%LPD*%
%LPC*%
G36*
X673499Y343031D02*
X673499Y343031D01*
X673499Y345500D01*
X673500Y345501D01*
X679469Y345501D01*
X679469Y343031D01*
X673499Y343031D01*
G37*
%LPD*%
%LPC*%
G36*
X472031Y203499D02*
X472031Y203499D01*
X472031Y205969D01*
X478001Y205969D01*
X478001Y203500D01*
X478000Y203499D01*
X472031Y203499D01*
G37*
%LPD*%
%LPC*%
G36*
X683531Y336499D02*
X683531Y336499D01*
X683531Y338969D01*
X689501Y338969D01*
X689501Y336500D01*
X689500Y336499D01*
X683531Y336499D01*
G37*
%LPD*%
%LPC*%
G36*
X682531Y264499D02*
X682531Y264499D01*
X682531Y266969D01*
X688501Y266969D01*
X688501Y264500D01*
X688500Y264499D01*
X682531Y264499D01*
G37*
%LPD*%
%LPC*%
G36*
X673500Y336499D02*
X673500Y336499D01*
X673499Y336500D01*
X673499Y338969D01*
X679469Y338969D01*
X679469Y336499D01*
X673500Y336499D01*
G37*
%LPD*%
%LPC*%
G36*
X672500Y264499D02*
X672500Y264499D01*
X672499Y264500D01*
X672499Y266969D01*
X678469Y266969D01*
X678469Y264499D01*
X672500Y264499D01*
G37*
%LPD*%
%LPC*%
G36*
X462000Y203499D02*
X462000Y203499D01*
X461999Y203500D01*
X461999Y205969D01*
X467969Y205969D01*
X467969Y203499D01*
X462000Y203499D01*
G37*
%LPD*%
%LPC*%
G36*
X349031Y299031D02*
X349031Y299031D01*
X349031Y303221D01*
X350091Y302782D01*
X351159Y302068D01*
X352068Y301159D01*
X352782Y300091D01*
X353221Y299031D01*
X349031Y299031D01*
G37*
%LPD*%
%LPC*%
G36*
X349031Y249031D02*
X349031Y249031D01*
X349031Y253221D01*
X350091Y252782D01*
X351159Y252068D01*
X352068Y251159D01*
X352782Y250091D01*
X353221Y249031D01*
X349031Y249031D01*
G37*
%LPD*%
%LPC*%
G36*
X340779Y299031D02*
X340779Y299031D01*
X341218Y300091D01*
X341932Y301159D01*
X342841Y302068D01*
X343909Y302782D01*
X344969Y303221D01*
X344969Y299031D01*
X340779Y299031D01*
G37*
%LPD*%
%LPC*%
G36*
X349031Y294969D02*
X349031Y294969D01*
X353221Y294969D01*
X352782Y293909D01*
X352068Y292841D01*
X351159Y291932D01*
X350091Y291218D01*
X349031Y290779D01*
X349031Y294969D01*
G37*
%LPD*%
%LPC*%
G36*
X340779Y249031D02*
X340779Y249031D01*
X341218Y250091D01*
X341932Y251159D01*
X342841Y252068D01*
X343909Y252782D01*
X344969Y253221D01*
X344969Y249031D01*
X340779Y249031D01*
G37*
%LPD*%
%LPC*%
G36*
X349031Y244969D02*
X349031Y244969D01*
X353221Y244969D01*
X352782Y243909D01*
X352068Y242841D01*
X351159Y241932D01*
X350091Y241218D01*
X349031Y240779D01*
X349031Y244969D01*
G37*
%LPD*%
%LPC*%
G36*
X343909Y241218D02*
X343909Y241218D01*
X342841Y241932D01*
X341932Y242841D01*
X341218Y243909D01*
X340779Y244969D01*
X344969Y244969D01*
X344969Y240779D01*
X343909Y241218D01*
G37*
%LPD*%
%LPC*%
G36*
X343909Y291218D02*
X343909Y291218D01*
X342841Y291932D01*
X341932Y292841D01*
X341218Y293909D01*
X340779Y294969D01*
X344969Y294969D01*
X344969Y290779D01*
X343909Y291218D01*
G37*
%LPD*%
%LPC*%
G36*
X816299Y199999D02*
X816299Y199999D01*
X816299Y205051D01*
X817950Y205051D01*
X817951Y205050D01*
X817951Y199999D01*
X816299Y199999D01*
G37*
%LPD*%
%LPC*%
G36*
X747349Y199999D02*
X747349Y199999D01*
X747349Y205051D01*
X749000Y205051D01*
X749001Y205050D01*
X749001Y199999D01*
X747349Y199999D01*
G37*
%LPD*%
%LPC*%
G36*
X826149Y199999D02*
X826149Y199999D01*
X826149Y205051D01*
X827800Y205051D01*
X827801Y205050D01*
X827801Y199999D01*
X826149Y199999D01*
G37*
%LPD*%
%LPC*%
G36*
X737499Y199999D02*
X737499Y199999D01*
X737499Y205051D01*
X739150Y205051D01*
X739151Y205050D01*
X739151Y199999D01*
X737499Y199999D01*
G37*
%LPD*%
%LPC*%
G36*
X522499Y199999D02*
X522499Y199999D01*
X522499Y205051D01*
X524150Y205051D01*
X524151Y205050D01*
X524151Y199999D01*
X522499Y199999D01*
G37*
%LPD*%
%LPC*%
G36*
X611149Y199999D02*
X611149Y199999D01*
X611149Y205051D01*
X612800Y205051D01*
X612801Y205050D01*
X612801Y199999D01*
X611149Y199999D01*
G37*
%LPD*%
%LPC*%
G36*
X601299Y199999D02*
X601299Y199999D01*
X601299Y205051D01*
X602950Y205051D01*
X602951Y205050D01*
X602951Y199999D01*
X601299Y199999D01*
G37*
%LPD*%
%LPC*%
G36*
X532349Y199999D02*
X532349Y199999D01*
X532349Y205051D01*
X534000Y205051D01*
X534001Y205050D01*
X534001Y199999D01*
X532349Y199999D01*
G37*
%LPD*%
%LPC*%
G36*
X737499Y191649D02*
X737499Y191649D01*
X737499Y196701D01*
X739151Y196701D01*
X739151Y191650D01*
X739150Y191649D01*
X737499Y191649D01*
G37*
%LPD*%
%LPC*%
G36*
X532349Y191649D02*
X532349Y191649D01*
X532349Y196701D01*
X534001Y196701D01*
X534001Y191650D01*
X534000Y191649D01*
X532349Y191649D01*
G37*
%LPD*%
%LPC*%
G36*
X816299Y191649D02*
X816299Y191649D01*
X816299Y196701D01*
X817951Y196701D01*
X817951Y191650D01*
X817950Y191649D01*
X816299Y191649D01*
G37*
%LPD*%
%LPC*%
G36*
X826149Y191649D02*
X826149Y191649D01*
X826149Y196701D01*
X827801Y196701D01*
X827801Y191650D01*
X827800Y191649D01*
X826149Y191649D01*
G37*
%LPD*%
%LPC*%
G36*
X611149Y191649D02*
X611149Y191649D01*
X611149Y196701D01*
X612801Y196701D01*
X612801Y191650D01*
X612800Y191649D01*
X611149Y191649D01*
G37*
%LPD*%
%LPC*%
G36*
X821199Y199999D02*
X821199Y199999D01*
X821199Y205050D01*
X821200Y205051D01*
X822851Y205051D01*
X822851Y199999D01*
X821199Y199999D01*
G37*
%LPD*%
%LPC*%
G36*
X616049Y199999D02*
X616049Y199999D01*
X616049Y205050D01*
X616050Y205051D01*
X617701Y205051D01*
X617701Y199999D01*
X616049Y199999D01*
G37*
%LPD*%
%LPC*%
G36*
X606199Y199999D02*
X606199Y199999D01*
X606199Y205050D01*
X606200Y205051D01*
X607851Y205051D01*
X607851Y199999D01*
X606199Y199999D01*
G37*
%LPD*%
%LPC*%
G36*
X742399Y199999D02*
X742399Y199999D01*
X742399Y205050D01*
X742400Y205051D01*
X744051Y205051D01*
X744051Y199999D01*
X742399Y199999D01*
G37*
%LPD*%
%LPC*%
G36*
X752249Y199999D02*
X752249Y199999D01*
X752249Y205050D01*
X752250Y205051D01*
X753901Y205051D01*
X753901Y199999D01*
X752249Y199999D01*
G37*
%LPD*%
%LPC*%
G36*
X831049Y199999D02*
X831049Y199999D01*
X831049Y205050D01*
X831050Y205051D01*
X832701Y205051D01*
X832701Y199999D01*
X831049Y199999D01*
G37*
%LPD*%
%LPC*%
G36*
X537249Y199999D02*
X537249Y199999D01*
X537249Y205050D01*
X537250Y205051D01*
X538901Y205051D01*
X538901Y199999D01*
X537249Y199999D01*
G37*
%LPD*%
%LPC*%
G36*
X527399Y199999D02*
X527399Y199999D01*
X527399Y205050D01*
X527400Y205051D01*
X529051Y205051D01*
X529051Y199999D01*
X527399Y199999D01*
G37*
%LPD*%
%LPC*%
G36*
X606200Y191649D02*
X606200Y191649D01*
X606199Y191650D01*
X606199Y196701D01*
X607851Y196701D01*
X607851Y191649D01*
X606200Y191649D01*
G37*
%LPD*%
%LPC*%
G36*
X742400Y191649D02*
X742400Y191649D01*
X742399Y191650D01*
X742399Y196701D01*
X744051Y196701D01*
X744051Y191649D01*
X742400Y191649D01*
G37*
%LPD*%
%LPC*%
G36*
X537250Y191649D02*
X537250Y191649D01*
X537249Y191650D01*
X537249Y196701D01*
X538901Y196701D01*
X538901Y191649D01*
X537250Y191649D01*
G37*
%LPD*%
%LPC*%
G36*
X821200Y191649D02*
X821200Y191649D01*
X821199Y191650D01*
X821199Y196701D01*
X822851Y196701D01*
X822851Y191649D01*
X821200Y191649D01*
G37*
%LPD*%
%LPC*%
G36*
X527400Y191649D02*
X527400Y191649D01*
X527399Y191650D01*
X527399Y196701D01*
X529051Y196701D01*
X529051Y191649D01*
X527400Y191649D01*
G37*
%LPD*%
%LPC*%
G36*
X831050Y191649D02*
X831050Y191649D01*
X831049Y191650D01*
X831049Y196701D01*
X832701Y196701D01*
X832701Y191649D01*
X831050Y191649D01*
G37*
%LPD*%
%LPC*%
G36*
X616050Y191649D02*
X616050Y191649D01*
X616049Y191650D01*
X616049Y196701D01*
X617701Y196701D01*
X617701Y191649D01*
X616050Y191649D01*
G37*
%LPD*%
%LPC*%
G36*
X752250Y191649D02*
X752250Y191649D01*
X752249Y191650D01*
X752249Y196701D01*
X753901Y196701D01*
X753901Y191649D01*
X752250Y191649D01*
G37*
%LPD*%
%LPC*%
G36*
X601299Y191649D02*
X601299Y191649D01*
X601299Y196701D01*
X602951Y196701D01*
X602951Y192000D01*
X602951Y191650D01*
X602950Y191649D01*
X601299Y191649D01*
G37*
%LPD*%
%LPC*%
G36*
X522499Y191649D02*
X522499Y191649D01*
X522499Y196701D01*
X524151Y196701D01*
X524151Y192000D01*
X524151Y191650D01*
X524150Y191649D01*
X522499Y191649D01*
G37*
%LPD*%
%LPC*%
G36*
X747349Y191649D02*
X747349Y191649D01*
X747349Y196701D01*
X749001Y196701D01*
X749001Y192000D01*
X749001Y191650D01*
X749000Y191649D01*
X747349Y191649D01*
G37*
%LPD*%
%LPC*%
G36*
X423023Y255253D02*
X423023Y255253D01*
X423023Y260081D01*
X424548Y260081D01*
X424549Y260080D01*
X424549Y255253D01*
X423023Y255253D01*
G37*
%LPD*%
%LPC*%
G36*
X435723Y255253D02*
X435723Y255253D01*
X435723Y260081D01*
X437248Y260081D01*
X437249Y260080D01*
X437249Y255253D01*
X435723Y255253D01*
G37*
%LPD*%
%LPC*%
G36*
X447323Y382793D02*
X447323Y382793D01*
X447323Y387621D01*
X448848Y387621D01*
X448849Y387620D01*
X448849Y382793D01*
X447323Y382793D01*
G37*
%LPD*%
%LPC*%
G36*
X434623Y382793D02*
X434623Y382793D01*
X434623Y387621D01*
X436148Y387621D01*
X436149Y387620D01*
X436149Y382793D01*
X434623Y382793D01*
G37*
%LPD*%
%LPC*%
G36*
X460023Y382793D02*
X460023Y382793D01*
X460023Y387621D01*
X461548Y387621D01*
X461549Y387620D01*
X461549Y382793D01*
X460023Y382793D01*
G37*
%LPD*%
%LPC*%
G36*
X434623Y379747D02*
X434623Y379747D01*
X436149Y379747D01*
X436149Y374920D01*
X436148Y374919D01*
X434623Y374919D01*
X434623Y379747D01*
G37*
%LPD*%
%LPC*%
G36*
X460023Y379747D02*
X460023Y379747D01*
X461549Y379747D01*
X461549Y374920D01*
X461548Y374919D01*
X460023Y374919D01*
X460023Y379747D01*
G37*
%LPD*%
%LPC*%
G36*
X447323Y379747D02*
X447323Y379747D01*
X448849Y379747D01*
X448849Y374920D01*
X448848Y374919D01*
X447323Y374919D01*
X447323Y379747D01*
G37*
%LPD*%
%LPC*%
G36*
X443851Y255253D02*
X443851Y255253D01*
X443851Y260080D01*
X443852Y260081D01*
X445377Y260081D01*
X445377Y255253D01*
X443851Y255253D01*
G37*
%LPD*%
%LPC*%
G36*
X431151Y255253D02*
X431151Y255253D01*
X431151Y260080D01*
X431152Y260081D01*
X432677Y260081D01*
X432677Y255253D01*
X431151Y255253D01*
G37*
%LPD*%
%LPC*%
G36*
X418451Y255253D02*
X418451Y255253D01*
X418451Y260080D01*
X418452Y260081D01*
X419977Y260081D01*
X419977Y255253D01*
X418451Y255253D01*
G37*
%LPD*%
%LPC*%
G36*
X442751Y382793D02*
X442751Y382793D01*
X442751Y387620D01*
X442752Y387621D01*
X444277Y387621D01*
X444277Y382793D01*
X442751Y382793D01*
G37*
%LPD*%
%LPC*%
G36*
X455451Y382793D02*
X455451Y382793D01*
X455451Y387620D01*
X455452Y387621D01*
X456977Y387621D01*
X456977Y382793D01*
X455451Y382793D01*
G37*
%LPD*%
%LPC*%
G36*
X430051Y382793D02*
X430051Y382793D01*
X430051Y387620D01*
X430052Y387621D01*
X431577Y387621D01*
X431577Y382793D01*
X430051Y382793D01*
G37*
%LPD*%
%LPC*%
G36*
X430052Y374919D02*
X430052Y374919D01*
X430051Y374920D01*
X430051Y379747D01*
X431577Y379747D01*
X431577Y374919D01*
X430052Y374919D01*
G37*
%LPD*%
%LPC*%
G36*
X455452Y374919D02*
X455452Y374919D01*
X455451Y374920D01*
X455451Y379747D01*
X456977Y379747D01*
X456977Y374919D01*
X455452Y374919D01*
G37*
%LPD*%
%LPC*%
G36*
X442752Y374919D02*
X442752Y374919D01*
X442751Y374920D01*
X442751Y379747D01*
X444277Y379747D01*
X444277Y374919D01*
X442752Y374919D01*
G37*
%LPD*%
%LPC*%
G36*
X255500Y104499D02*
X255500Y104499D01*
X255499Y104500D01*
X255499Y106501D01*
X259001Y106501D01*
X259001Y104499D01*
X255500Y104499D01*
G37*
%LPD*%
%LPC*%
G36*
X372162Y122374D02*
X372162Y122374D01*
X372162Y123201D01*
X380238Y123201D01*
X380238Y123200D01*
X380238Y122374D01*
X372162Y122374D01*
G37*
%LPD*%
%LPC*%
G36*
X372162Y128874D02*
X372162Y128874D01*
X372162Y129701D01*
X380238Y129701D01*
X380238Y129700D01*
X380238Y128874D01*
X372162Y128874D01*
G37*
%LPD*%
%LPC*%
G36*
X372162Y119899D02*
X372162Y119899D01*
X372162Y120726D01*
X380238Y120726D01*
X380238Y119900D01*
X380238Y119899D01*
X372162Y119899D01*
G37*
%LPD*%
%LPC*%
G36*
X372162Y126399D02*
X372162Y126399D01*
X372162Y127226D01*
X380238Y127226D01*
X380238Y126400D01*
X380238Y126399D01*
X372162Y126399D01*
G37*
%LPD*%
%LPC*%
G36*
X448423Y309863D02*
X448423Y309863D01*
X448423Y313421D01*
X449948Y313421D01*
X449949Y313420D01*
X449949Y309863D01*
X448423Y309863D01*
G37*
%LPD*%
%LPC*%
G36*
X435723Y309863D02*
X435723Y309863D01*
X435723Y313421D01*
X437248Y313421D01*
X437249Y313420D01*
X437249Y309863D01*
X435723Y309863D01*
G37*
%LPD*%
%LPC*%
G36*
X423023Y309863D02*
X423023Y309863D01*
X423023Y313421D01*
X424548Y313421D01*
X424549Y313420D01*
X424549Y309863D01*
X423023Y309863D01*
G37*
%LPD*%
%LPC*%
G36*
X461123Y309863D02*
X461123Y309863D01*
X461123Y313421D01*
X462648Y313421D01*
X462649Y313420D01*
X462649Y309863D01*
X461123Y309863D01*
G37*
%LPD*%
%LPC*%
G36*
X447323Y321579D02*
X447323Y321579D01*
X447323Y325137D01*
X448849Y325137D01*
X448849Y321580D01*
X448848Y321579D01*
X447323Y321579D01*
G37*
%LPD*%
%LPC*%
G36*
X460023Y321579D02*
X460023Y321579D01*
X460023Y325137D01*
X461549Y325137D01*
X461549Y321580D01*
X461548Y321579D01*
X460023Y321579D01*
G37*
%LPD*%
%LPC*%
G36*
X434623Y321579D02*
X434623Y321579D01*
X434623Y325137D01*
X436149Y325137D01*
X436149Y321580D01*
X436148Y321579D01*
X434623Y321579D01*
G37*
%LPD*%
%LPC*%
G36*
X421923Y321579D02*
X421923Y321579D01*
X421923Y325137D01*
X423449Y325137D01*
X423449Y321580D01*
X423448Y321579D01*
X421923Y321579D01*
G37*
%LPD*%
%LPC*%
G36*
X443851Y309863D02*
X443851Y309863D01*
X443851Y313420D01*
X443852Y313421D01*
X445377Y313421D01*
X445377Y309863D01*
X443851Y309863D01*
G37*
%LPD*%
%LPC*%
G36*
X431151Y309863D02*
X431151Y309863D01*
X431151Y313420D01*
X431152Y313421D01*
X432677Y313421D01*
X432677Y309863D01*
X431151Y309863D01*
G37*
%LPD*%
%LPC*%
G36*
X456551Y309863D02*
X456551Y309863D01*
X456551Y313420D01*
X456552Y313421D01*
X458077Y313421D01*
X458077Y309863D01*
X456551Y309863D01*
G37*
%LPD*%
%LPC*%
G36*
X430052Y321579D02*
X430052Y321579D01*
X430051Y321580D01*
X430051Y325137D01*
X431577Y325137D01*
X431577Y321579D01*
X430052Y321579D01*
G37*
%LPD*%
%LPC*%
G36*
X442752Y321579D02*
X442752Y321579D01*
X442751Y321580D01*
X442751Y325137D01*
X444277Y325137D01*
X444277Y321579D01*
X442752Y321579D01*
G37*
%LPD*%
%LPC*%
G36*
X455452Y321579D02*
X455452Y321579D01*
X455451Y321580D01*
X455451Y325137D01*
X456977Y325137D01*
X456977Y321579D01*
X455452Y321579D01*
G37*
%LPD*%
%LPC*%
G36*
X239599Y384399D02*
X239599Y384399D01*
X239599Y384401D01*
X239601Y384401D01*
X239601Y384399D01*
X239599Y384399D01*
G37*
%LPD*%
%LPC*%
G36*
X264999Y153599D02*
X264999Y153599D01*
X264999Y153601D01*
X265001Y153601D01*
X265001Y153599D01*
X264999Y153599D01*
G37*
%LPD*%
%LPC*%
G36*
X239599Y153599D02*
X239599Y153599D01*
X239599Y153601D01*
X239601Y153601D01*
X239601Y153599D01*
X239599Y153599D01*
G37*
%LPD*%
%LPC*%
G36*
X290399Y153599D02*
X290399Y153599D01*
X290399Y153601D01*
X290401Y153601D01*
X290401Y153599D01*
X290399Y153599D01*
G37*
%LPD*%
%LPC*%
G36*
X239599Y204399D02*
X239599Y204399D01*
X239599Y204401D01*
X239601Y204401D01*
X239601Y204399D01*
X239599Y204399D01*
G37*
%LPD*%
%LPC*%
G36*
X264999Y204399D02*
X264999Y204399D01*
X264999Y204401D01*
X265001Y204401D01*
X265001Y204399D01*
X264999Y204399D01*
G37*
%LPD*%
%LPC*%
G36*
X264999Y333599D02*
X264999Y333599D01*
X264999Y333601D01*
X265001Y333601D01*
X265001Y333599D01*
X264999Y333599D01*
G37*
%LPD*%
%LPC*%
G36*
X346999Y296999D02*
X346999Y296999D01*
X346999Y297001D01*
X347001Y297001D01*
X347001Y296999D01*
X346999Y296999D01*
G37*
%LPD*%
%LPC*%
G36*
X1102499Y99999D02*
X1102499Y99999D01*
X1102499Y100001D01*
X1102501Y100001D01*
X1102501Y99999D01*
X1102499Y99999D01*
G37*
%LPD*%
%LPC*%
G36*
X290399Y333599D02*
X290399Y333599D01*
X290399Y333601D01*
X290401Y333601D01*
X290401Y333599D01*
X290399Y333599D01*
G37*
%LPD*%
%LPC*%
G36*
X239599Y333599D02*
X239599Y333599D01*
X239599Y333601D01*
X239601Y333601D01*
X239601Y333599D01*
X239599Y333599D01*
G37*
%LPD*%
%LPC*%
G36*
X290399Y204399D02*
X290399Y204399D01*
X290399Y204401D01*
X290401Y204401D01*
X290401Y204399D01*
X290399Y204399D01*
G37*
%LPD*%
%LPC*%
G36*
X346999Y246999D02*
X346999Y246999D01*
X346999Y247001D01*
X347001Y247001D01*
X347001Y246999D01*
X346999Y246999D01*
G37*
%LPD*%
%LPC*%
G36*
X1102499Y74599D02*
X1102499Y74599D01*
X1102499Y74601D01*
X1102501Y74601D01*
X1102501Y74599D01*
X1102499Y74599D01*
G37*
%LPD*%
%LPC*%
G36*
X290399Y384399D02*
X290399Y384399D01*
X290399Y384401D01*
X290401Y384401D01*
X290401Y384399D01*
X290399Y384399D01*
G37*
%LPD*%
%LPC*%
G36*
X431799Y25399D02*
X431799Y25399D01*
X431799Y25401D01*
X431801Y25401D01*
X431801Y25399D01*
X431799Y25399D01*
G37*
%LPD*%
%LPC*%
G36*
X264999Y384399D02*
X264999Y384399D01*
X264999Y384401D01*
X265001Y384401D01*
X265001Y384399D01*
X264999Y384399D01*
G37*
%LPD*%
%LPC*%
G36*
X264999Y358999D02*
X264999Y358999D01*
X264999Y359001D01*
X265001Y359001D01*
X265001Y358999D01*
X264999Y358999D01*
G37*
%LPD*%
%LPC*%
G36*
X406399Y25399D02*
X406399Y25399D01*
X406399Y25401D01*
X406401Y25401D01*
X406401Y25399D01*
X406399Y25399D01*
G37*
%LPD*%
%LPC*%
G36*
X290399Y358999D02*
X290399Y358999D01*
X290399Y359001D01*
X290401Y359001D01*
X290401Y358999D01*
X290399Y358999D01*
G37*
%LPD*%
%LPC*%
G36*
X239599Y358999D02*
X239599Y358999D01*
X239599Y359001D01*
X239601Y359001D01*
X239601Y358999D01*
X239599Y358999D01*
G37*
%LPD*%
%LPC*%
G36*
X290399Y178999D02*
X290399Y178999D01*
X290399Y179001D01*
X290401Y179001D01*
X290401Y178999D01*
X290399Y178999D01*
G37*
%LPD*%
%LPC*%
G36*
X264159Y507999D02*
X264159Y507999D01*
X264159Y508001D01*
X264161Y508001D01*
X264161Y507999D01*
X264159Y507999D01*
G37*
%LPD*%
%LPC*%
G36*
X264999Y178999D02*
X264999Y178999D01*
X264999Y179001D01*
X265001Y179001D01*
X265001Y178999D01*
X264999Y178999D01*
G37*
%LPD*%
%LPC*%
G36*
X239599Y178999D02*
X239599Y178999D01*
X239599Y179001D01*
X239601Y179001D01*
X239601Y178999D01*
X239599Y178999D01*
G37*
%LPD*%
%LPC*%
G36*
X479779Y538999D02*
X479779Y538999D01*
X479779Y539001D01*
X479781Y539001D01*
X479781Y538999D01*
X479779Y538999D01*
G37*
%LPD*%
%LPC*%
G36*
X320779Y474499D02*
X320779Y474499D01*
X320779Y474501D01*
X320781Y474501D01*
X320781Y474499D01*
X320779Y474499D01*
G37*
%LPD*%
%LPC*%
G36*
X569999Y320499D02*
X569999Y320499D01*
X569999Y320501D01*
X570001Y320501D01*
X570001Y320499D01*
X569999Y320499D01*
G37*
%LPD*%
%LPC*%
G36*
X680499Y268999D02*
X680499Y268999D01*
X680499Y269001D01*
X680501Y269001D01*
X680501Y268999D01*
X680499Y268999D01*
G37*
%LPD*%
%LPC*%
G36*
X469999Y207999D02*
X469999Y207999D01*
X469999Y208001D01*
X470001Y208001D01*
X470001Y207999D01*
X469999Y207999D01*
G37*
%LPD*%
%LPC*%
G36*
X681499Y340999D02*
X681499Y340999D01*
X681499Y341001D01*
X681501Y341001D01*
X681501Y340999D01*
X681499Y340999D01*
G37*
%LPD*%
%LPC*%
G36*
X784999Y320499D02*
X784999Y320499D01*
X784999Y320501D01*
X785001Y320501D01*
X785001Y320499D01*
X784999Y320499D01*
G37*
%LPD*%
D10*
X635000Y515112D02*
X635000Y500888D01*
X609600Y500888D02*
X609600Y515112D01*
X584200Y515112D02*
X584200Y500888D01*
X558800Y500888D02*
X558800Y515112D01*
X533400Y515112D02*
X533400Y500888D01*
X508000Y500888D02*
X508000Y515112D01*
X482600Y515112D02*
X482600Y500888D01*
X457200Y500888D02*
X457200Y515112D01*
X863600Y515112D02*
X863600Y500888D01*
X838200Y500888D02*
X838200Y515112D01*
X812800Y515112D02*
X812800Y500888D01*
X787400Y500888D02*
X787400Y515112D01*
X762000Y515112D02*
X762000Y500888D01*
X736600Y500888D02*
X736600Y515112D01*
X711200Y515112D02*
X711200Y500888D01*
X685800Y500888D02*
X685800Y515112D01*
X187960Y515112D02*
X187960Y500888D01*
X213360Y500888D02*
X213360Y515112D01*
X238760Y515112D02*
X238760Y500888D01*
X264160Y500888D02*
X264160Y515112D01*
X289560Y515112D02*
X289560Y500888D01*
X314960Y500888D02*
X314960Y515112D01*
X340360Y515112D02*
X340360Y500888D01*
X365760Y500888D02*
X365760Y515112D01*
X391160Y515112D02*
X391160Y500888D01*
X416560Y500888D02*
X416560Y515112D01*
X279400Y32512D02*
X279400Y18288D01*
X304800Y18288D02*
X304800Y32512D01*
X330200Y32512D02*
X330200Y18288D01*
X355600Y18288D02*
X355600Y32512D01*
X381000Y32512D02*
X381000Y18288D01*
X406400Y18288D02*
X406400Y32512D01*
X431800Y32512D02*
X431800Y18288D01*
X457200Y18288D02*
X457200Y32512D01*
D11*
X570200Y381450D03*
X580050Y381450D03*
X589900Y381450D03*
X599750Y381450D03*
X609600Y381450D03*
X619450Y381450D03*
X629300Y381450D03*
X639150Y381450D03*
X560350Y381450D03*
X550500Y381450D03*
X540650Y381450D03*
X530800Y381450D03*
X520950Y381450D03*
X511100Y381450D03*
X501250Y381450D03*
X570100Y198350D03*
X579950Y198350D03*
X589800Y198350D03*
X599650Y198350D03*
X609500Y198350D03*
X619350Y198350D03*
X629200Y198350D03*
X639050Y198350D03*
X560250Y198350D03*
X550400Y198350D03*
X540550Y198350D03*
X530700Y198350D03*
X520850Y198350D03*
X511000Y198350D03*
X501150Y198350D03*
D12*
X570000Y320500D03*
D13*
X611650Y259500D03*
X528350Y259500D03*
D14*
X608000Y440220D03*
X608000Y411780D03*
X535000Y411780D03*
X535000Y440220D03*
X632000Y411780D03*
X632000Y440220D03*
X511000Y411780D03*
X511000Y440220D03*
X584000Y411780D03*
X584000Y440220D03*
X560000Y411780D03*
X560000Y440220D03*
D15*
X377280Y475000D03*
X405720Y475000D03*
X584220Y35000D03*
X555780Y35000D03*
D16*
X470000Y238000D03*
X470000Y208000D03*
X680500Y299000D03*
X680500Y269000D03*
D17*
X658000Y437000D03*
X658000Y418000D03*
D14*
X345000Y420780D03*
X345000Y449220D03*
D15*
X508220Y539000D03*
X479780Y539000D03*
D18*
X458500Y381270D03*
X445800Y381270D03*
X433100Y381270D03*
X420400Y381270D03*
D19*
X420400Y326660D03*
X433100Y326660D03*
X445800Y326660D03*
X458500Y326660D03*
D20*
X439450Y347742D03*
D21*
X644000Y26000D03*
X614000Y26000D03*
X533000Y26000D03*
X503000Y26000D03*
D11*
X785200Y381450D03*
X795050Y381450D03*
X804900Y381450D03*
X814750Y381450D03*
X824600Y381450D03*
X834450Y381450D03*
X844300Y381450D03*
X854150Y381450D03*
X775350Y381450D03*
X765500Y381450D03*
X755650Y381450D03*
X745800Y381450D03*
X735950Y381450D03*
X726100Y381450D03*
X716250Y381450D03*
X785100Y198350D03*
X794950Y198350D03*
X804800Y198350D03*
X814650Y198350D03*
X824500Y198350D03*
X834350Y198350D03*
X844200Y198350D03*
X854050Y198350D03*
X775250Y198350D03*
X765400Y198350D03*
X755550Y198350D03*
X745700Y198350D03*
X735850Y198350D03*
X726000Y198350D03*
X716150Y198350D03*
D12*
X785000Y320500D03*
D13*
X826650Y259500D03*
X743350Y259500D03*
D14*
X822500Y441720D03*
X822500Y413280D03*
X747500Y413280D03*
X747500Y441720D03*
X847500Y413280D03*
X847500Y441720D03*
X722500Y413280D03*
X722500Y441720D03*
X797500Y413280D03*
X797500Y441720D03*
X772500Y413280D03*
X772500Y441720D03*
D15*
X349220Y474500D03*
X320780Y474500D03*
X798220Y36500D03*
X769780Y36500D03*
D16*
X681500Y341000D03*
X681500Y371000D03*
D17*
X697000Y438000D03*
X697000Y419000D03*
D14*
X312000Y420780D03*
X312000Y449220D03*
D15*
X459220Y475000D03*
X430780Y475000D03*
D18*
X421500Y253730D03*
X434200Y253730D03*
X446900Y253730D03*
X459600Y253730D03*
D19*
X459600Y308340D03*
X446900Y308340D03*
X434200Y308340D03*
X421500Y308340D03*
D20*
X440550Y287258D03*
D21*
X856000Y27000D03*
X826000Y27000D03*
X744500Y26500D03*
X714500Y26500D03*
D22*
X599600Y65600D03*
X625000Y65600D03*
X650400Y65600D03*
X650400Y91000D03*
X625000Y91000D03*
X599600Y91000D03*
X599600Y116400D03*
X625000Y116400D03*
X650400Y116400D03*
X494600Y66600D03*
X520000Y66600D03*
X545400Y66600D03*
X545400Y92000D03*
X520000Y92000D03*
X494600Y92000D03*
X494600Y117400D03*
X520000Y117400D03*
X545400Y117400D03*
X811600Y65600D03*
X837000Y65600D03*
X862400Y65600D03*
X862400Y91000D03*
X837000Y91000D03*
X811600Y91000D03*
X811600Y116400D03*
X837000Y116400D03*
X862400Y116400D03*
X707600Y65600D03*
X733000Y65600D03*
X758400Y65600D03*
X758400Y91000D03*
X733000Y91000D03*
X707600Y91000D03*
X707600Y116400D03*
X733000Y116400D03*
X758400Y116400D03*
X239600Y333600D03*
X265000Y333600D03*
X290400Y333600D03*
X290400Y359000D03*
X265000Y359000D03*
X239600Y359000D03*
X239600Y384400D03*
X265000Y384400D03*
X290400Y384400D03*
X239600Y153600D03*
X265000Y153600D03*
X290400Y153600D03*
X290400Y179000D03*
X265000Y179000D03*
X239600Y179000D03*
X239600Y204400D03*
X265000Y204400D03*
X290400Y204400D03*
D15*
X375780Y448000D03*
X404220Y448000D03*
X375780Y420000D03*
X404220Y420000D03*
X459220Y420000D03*
X430780Y420000D03*
X459220Y448000D03*
X430780Y448000D03*
D23*
X1077500Y75000D03*
X1052100Y75000D03*
X1077500Y100400D03*
X1052100Y100400D03*
X1077500Y125800D03*
X1052100Y125800D03*
X1077500Y151200D03*
X1052100Y151200D03*
X1077500Y176600D03*
X1052100Y176600D03*
X1102500Y100000D03*
X1102500Y74600D03*
X939800Y483100D03*
X965200Y483100D03*
X939800Y457700D03*
X965200Y457700D03*
X939800Y432300D03*
X965200Y432300D03*
X939800Y406900D03*
X965200Y406900D03*
D24*
X347000Y297000D03*
X347000Y247000D03*
D25*
X311838Y128050D03*
X311838Y121550D03*
X311838Y115050D03*
X311838Y108550D03*
X311838Y102050D03*
X311838Y95550D03*
X311838Y89050D03*
X371338Y89050D03*
X371338Y95550D03*
X371338Y102050D03*
X371338Y108550D03*
X371338Y115050D03*
X371338Y121550D03*
X371338Y128050D03*
D26*
X341838Y108550D03*
D27*
X285000Y75000D03*
X275000Y75000D03*
X275000Y96000D03*
X285000Y96000D03*
X285000Y85000D03*
X275000Y85000D03*
X307000Y77000D03*
X317000Y77000D03*
X404000Y105000D03*
X394000Y105000D03*
D28*
X404000Y88000D03*
X404000Y78000D03*
X390000Y78000D03*
X390000Y88000D03*
D29*
X459500Y75000D03*
X440500Y75000D03*
X459500Y99000D03*
X440500Y99000D03*
D27*
X415000Y97000D03*
X425000Y97000D03*
D30*
X395520Y150000D03*
X455520Y150000D03*
D31*
X280000Y108500D03*
X280000Y127500D03*
D32*
X260000Y107500D03*
X260000Y122500D03*
D33*
X1077500Y151200D02*
X1077500Y176600D01*
X1077500Y100400D02*
X1077500Y75000D01*
D34*
X417500Y448000D02*
X404220Y448000D01*
X417500Y448000D02*
X430780Y448000D01*
X417500Y420000D02*
X404220Y420000D01*
X417500Y420000D02*
X430780Y420000D01*
X417500Y420000D02*
X417500Y448000D01*
X459500Y75000D02*
X459500Y70500D01*
D35*
X460000Y106000D03*
X460000Y83000D03*
X467000Y133000D03*
X459000Y133000D03*
X451000Y133000D03*
X443000Y133000D03*
D33*
X467000Y133000D01*
X460000Y99500D02*
X459500Y99000D01*
X460000Y99500D02*
X460000Y106000D01*
X460000Y75500D02*
X459500Y75000D01*
X460000Y75500D02*
X460000Y83000D01*
D35*
X451000Y141000D03*
X459000Y141000D03*
X467000Y141000D03*
X443000Y141000D03*
X417000Y419000D03*
X417000Y426000D03*
D33*
X416000Y78000D02*
X404000Y78000D01*
X433000Y61000D02*
X451000Y61000D01*
X459500Y69500D01*
X459500Y70500D01*
X433000Y61000D02*
X416000Y78000D01*
X459500Y75000D02*
X459500Y105500D01*
X460000Y106000D01*
D34*
X417000Y419000D02*
X417000Y419500D01*
X417500Y420000D01*
D33*
X1102500Y100000D02*
X1102500Y74600D01*
D36*
X681500Y371000D02*
X681500Y382500D01*
X681500Y416500D01*
X684000Y419000D02*
X697000Y419000D01*
X684000Y419000D02*
X681500Y416500D01*
X680000Y418000D02*
X658000Y418000D01*
X680000Y418000D02*
X681500Y416500D01*
D35*
X681500Y382500D03*
X680000Y277500D03*
D36*
X680000Y269500D01*
X680500Y269000D01*
D37*
X311838Y128050D02*
X311838Y121550D01*
X311838Y128050D02*
X311838Y136838D01*
X312000Y137000D01*
X312288Y122000D02*
X311838Y121550D01*
X312288Y122000D02*
X330000Y122000D01*
X356950Y89050D02*
X371338Y89050D01*
X341838Y104163D02*
X341838Y108550D01*
X355500Y90500D02*
X356950Y89050D01*
X355500Y90500D02*
X344000Y102000D01*
X341838Y104163D01*
D33*
X265000Y127500D02*
X260000Y122500D01*
X265000Y127500D02*
X280000Y127500D01*
D38*
X440500Y100500D02*
X440500Y99000D01*
D33*
X325000Y77000D02*
X317000Y77000D01*
X344000Y96000D02*
X344000Y102000D01*
X330500Y82500D02*
X325000Y77000D01*
X330500Y82500D02*
X336000Y88000D01*
X338000Y90000D01*
X344000Y96000D01*
X336000Y102713D02*
X341838Y108550D01*
X336000Y102713D02*
X336000Y88000D01*
X330500Y97213D02*
X341838Y108550D01*
X330500Y97213D02*
X330500Y82500D01*
D35*
X270000Y85000D03*
D37*
X275000Y85000D01*
D33*
X280000Y127500D02*
X280000Y138600D01*
X265000Y153600D01*
D38*
X340000Y110388D02*
X341838Y108550D01*
X340000Y110388D02*
X340000Y150000D01*
D34*
X406400Y55600D02*
X406400Y25400D01*
X406400Y55600D02*
X384000Y78000D01*
X372950Y89050D02*
X371338Y89050D01*
X372950Y89050D02*
X384000Y78000D01*
X390000Y78000D01*
X348000Y90000D02*
X338000Y90000D01*
X348000Y90000D02*
X355000Y90000D01*
X355500Y90500D01*
X348000Y102388D02*
X341838Y108550D01*
X348000Y102388D02*
X348000Y90000D01*
D33*
X440500Y97000D02*
X440500Y75000D01*
X440500Y97000D02*
X440500Y100500D01*
X433000Y97000D02*
X425000Y97000D01*
X433000Y97000D02*
X440500Y97000D01*
D39*
X341838Y108550D02*
X341838Y152838D01*
X344000Y155000D01*
X320000Y179000D01*
X290400Y179000D01*
D35*
X335000Y117000D03*
X349000Y117000D03*
X349000Y108000D03*
X335000Y108000D03*
X335000Y98000D03*
X349000Y98000D03*
D37*
X444000Y539000D02*
X479780Y539000D01*
X434000Y478220D02*
X430780Y475000D01*
X434000Y529000D02*
X444000Y539000D01*
X434000Y529000D02*
X434000Y478220D01*
X430780Y475000D02*
X405720Y475000D01*
X264160Y508000D02*
X264160Y528160D01*
X275000Y539000D02*
X444000Y539000D01*
X275000Y539000D02*
X264160Y528160D01*
D35*
X195000Y479000D03*
X211000Y479000D03*
X230000Y479000D03*
X248000Y479000D03*
X432000Y97000D03*
D38*
X433000Y97000D01*
X558800Y508000D02*
X560000Y509200D01*
X560000Y535000D01*
X565000Y540000D01*
X1010000Y540000D02*
X1015000Y535000D01*
X1015000Y105000D02*
X1020000Y100000D01*
X1020400Y100400D01*
X1052100Y100400D01*
X1010000Y540000D02*
X565000Y540000D01*
X1015000Y535000D02*
X1015000Y105000D01*
X585000Y508800D02*
X584200Y508000D01*
X585000Y508800D02*
X585000Y525000D01*
X590000Y530000D01*
X1000000Y530000D02*
X1005000Y525000D01*
X1005000Y85000D01*
X1015000Y75000D01*
X1052100Y75000D01*
X1000000Y530000D02*
X590000Y530000D01*
D34*
X585000Y441220D02*
X584000Y440220D01*
X585000Y441220D02*
X585000Y452500D01*
D38*
X527000Y489000D02*
X508000Y508000D01*
X527000Y489000D02*
X556000Y489000D01*
X585000Y460000D01*
X585000Y452500D01*
X508220Y508220D02*
X508220Y539000D01*
X508220Y508220D02*
X508000Y508000D01*
D34*
X797500Y460000D02*
X797500Y441720D01*
D35*
X797500Y460000D03*
X482500Y460000D03*
D38*
X482600Y460100D01*
X482600Y477500D01*
X482600Y508000D01*
X461720Y477500D02*
X459220Y475000D01*
X461720Y477500D02*
X482600Y477500D01*
X533400Y508000D02*
X533400Y538400D01*
X543912Y548912D01*
X1016088Y548912D01*
X1023912Y541088D01*
X1052100Y195900D02*
X1052100Y176600D01*
X1038088Y209912D02*
X1027478Y209912D01*
X1023912Y213478D01*
X1023912Y541088D01*
X1038088Y209912D02*
X1052100Y195900D01*
D34*
X631500Y440720D02*
X631500Y474500D01*
X631500Y440720D02*
X632000Y440220D01*
D35*
X631500Y474500D03*
D38*
X847500Y441720D02*
X876000Y470220D01*
X876000Y491000D01*
X896000Y511000D01*
D35*
X896000Y511000D03*
X965000Y512000D03*
D38*
X965200Y511800D02*
X965200Y483100D01*
X965200Y511800D02*
X965000Y512000D01*
D34*
X608000Y450500D02*
X608000Y440220D01*
X608000Y450500D02*
X610000Y452500D01*
D35*
X610000Y452500D03*
D34*
X822500Y460000D02*
X822500Y441720D01*
D35*
X822500Y460000D03*
X924000Y469000D03*
D38*
X924000Y498000D01*
X929000Y503000D01*
D35*
X929000Y503000D03*
D34*
X511000Y466000D02*
X511000Y440220D01*
X511000Y466000D02*
X512500Y467500D01*
D35*
X512500Y467500D03*
X907500Y467500D03*
D38*
X907500Y437500D01*
X912500Y432500D01*
D35*
X912500Y432500D03*
D38*
X722500Y441720D02*
X722500Y473500D01*
X723000Y474000D01*
D35*
X723000Y474000D03*
X537500Y477500D03*
X889000Y410000D03*
X884500Y487458D03*
D38*
X537500Y442720D02*
X535000Y440220D01*
X537500Y442720D02*
X537500Y477500D01*
X884500Y472500D02*
X884500Y487458D01*
X884500Y472500D02*
X894666Y462334D01*
X894666Y415666D02*
X889000Y410000D01*
X894666Y415666D02*
X894666Y462334D01*
D34*
X747500Y470000D02*
X747500Y441720D01*
D35*
X747500Y472500D03*
X892500Y475000D03*
D38*
X900000Y467500D01*
X900000Y395000D01*
D35*
X900000Y395000D03*
D38*
X747500Y470000D02*
X747500Y472500D01*
X611000Y382850D02*
X609600Y381450D01*
X632000Y409000D02*
X632000Y411780D01*
X614706Y391706D02*
X614677Y391706D01*
D40*
X614706Y391706D02*
X632000Y409000D01*
X611000Y388029D02*
X611000Y382850D01*
X611000Y388029D02*
X614677Y391706D01*
X550500Y383000D02*
X550500Y381450D01*
D38*
X522810Y399970D02*
X511000Y411780D01*
X522810Y399970D02*
X533000Y399970D01*
X539970Y393000D01*
X547000Y393000D01*
X550500Y389500D01*
X550500Y383000D01*
D40*
X580050Y381450D02*
X580050Y390050D01*
X584000Y394000D01*
X584000Y411780D01*
X570200Y388800D02*
X570200Y381450D01*
X560000Y399000D02*
X560000Y411780D01*
X560000Y399000D02*
X570200Y388800D01*
D33*
X570200Y381450D02*
X570200Y372200D01*
X570000Y372000D01*
D35*
X570000Y372000D03*
D38*
X560000Y411780D02*
X560000Y425000D01*
D35*
X560000Y425000D03*
X378000Y488000D03*
D38*
X377280Y487280D02*
X377280Y475000D01*
X377280Y487280D02*
X378000Y488000D01*
D35*
X585000Y280000D03*
X600000Y280000D03*
X615000Y280000D03*
X630000Y280000D03*
X585000Y265000D03*
X600000Y265000D03*
X615000Y265000D03*
X630000Y265000D03*
X585000Y250000D03*
X600000Y250000D03*
X615000Y250000D03*
X630000Y250000D03*
X585000Y235000D03*
X600000Y235000D03*
X615000Y235000D03*
X630000Y235000D03*
D33*
X589800Y198350D02*
X589800Y186200D01*
X590000Y186000D01*
D35*
X590000Y186000D03*
D33*
X639050Y187050D02*
X639050Y198350D01*
X639050Y187050D02*
X639000Y187000D01*
D35*
X639000Y187000D03*
D33*
X639150Y381450D02*
X645450Y381450D01*
X646000Y382000D01*
D35*
X646000Y382000D03*
D34*
X644000Y26000D02*
X644000Y21874D01*
D38*
X516000Y13000D02*
X503000Y26000D01*
X631000Y13000D02*
X644000Y26000D01*
X631000Y13000D02*
X516000Y13000D01*
X644000Y26000D02*
X650400Y32400D01*
X650400Y65600D01*
D35*
X505000Y280000D03*
X520000Y280000D03*
X535000Y280000D03*
X550000Y280000D03*
X505000Y265000D03*
X520000Y265000D03*
X535000Y265000D03*
X550000Y265000D03*
X505000Y250000D03*
X520000Y250000D03*
X535000Y250000D03*
X550000Y250000D03*
X505000Y235000D03*
X520000Y235000D03*
X535000Y235000D03*
X550000Y235000D03*
D33*
X501150Y198350D02*
X501150Y187150D01*
X500000Y186000D01*
D35*
X500000Y186000D03*
D33*
X550400Y188600D02*
X550400Y198350D01*
X550400Y188600D02*
X552000Y187000D01*
D35*
X552000Y187000D03*
D33*
X499800Y380000D02*
X501250Y381450D01*
X499800Y380000D02*
X494000Y380000D01*
D35*
X494000Y380000D03*
D38*
X555780Y56220D02*
X555780Y35000D01*
X555780Y56220D02*
X545400Y66600D01*
X560350Y381450D02*
X559000Y382800D01*
D40*
X559000Y390000D01*
X550920Y398080D01*
D38*
X382000Y426220D02*
X382000Y430000D01*
X382000Y426220D02*
X375780Y420000D01*
D35*
X382000Y430000D03*
D33*
X534000Y423000D02*
X534000Y412780D01*
X535000Y411780D01*
D35*
X534000Y423000D03*
D38*
X537220Y411780D02*
X550920Y398080D01*
X537220Y411780D02*
X535000Y411780D01*
D40*
X599750Y389750D02*
X599750Y381450D01*
X608000Y398000D02*
X608000Y411780D01*
X608000Y398000D02*
X599750Y389750D01*
D38*
X375780Y440780D02*
X375780Y448000D01*
X375780Y440780D02*
X375000Y440000D01*
D35*
X375000Y440000D03*
D33*
X608000Y425000D02*
X608000Y411780D01*
D35*
X608000Y425000D03*
X540000Y368000D03*
X411000Y373000D03*
D33*
X412130Y373000D02*
X420400Y381270D01*
X412130Y373000D02*
X411000Y373000D01*
X540650Y368650D02*
X540650Y381450D01*
X540650Y368650D02*
X540000Y368000D01*
D35*
X590000Y369000D03*
D38*
X345000Y420780D02*
X342000Y420780D01*
X334220Y413000D01*
X331000Y413000D01*
D35*
X331000Y413000D03*
D33*
X589900Y381450D02*
X589900Y369100D01*
X590000Y369000D01*
X560000Y440220D02*
X559500Y440720D01*
D38*
X658500Y437500D02*
X658500Y444000D01*
X658500Y437500D02*
X658000Y437000D01*
D35*
X658500Y444000D03*
D38*
X560000Y440220D02*
X560000Y449000D01*
D35*
X560000Y449000D03*
D34*
X590220Y26000D02*
X614000Y26000D01*
D38*
X610000Y22000D01*
X537000Y22000D01*
X533000Y26000D01*
D33*
X584220Y35000D02*
X590220Y29000D01*
X590220Y26000D01*
D38*
X824600Y381450D02*
X825000Y381850D01*
X825000Y390000D01*
X835000Y400000D01*
X842500Y400000D01*
X847500Y405000D01*
X847500Y413280D01*
X765500Y381450D02*
X765000Y381950D01*
X765000Y390000D01*
X760334Y394666D01*
X747791Y394666D01*
X742457Y400000D02*
X732500Y400000D01*
X742457Y400000D02*
X747791Y394666D01*
X732500Y400000D02*
X722500Y410000D01*
X722500Y413280D01*
D34*
X795050Y397550D02*
X795050Y381450D01*
X795050Y397550D02*
X797500Y400000D01*
X797500Y413280D01*
X785200Y392300D02*
X785200Y381450D01*
X785200Y392300D02*
X780000Y397500D01*
D38*
X772500Y405000D02*
X772500Y413280D01*
X772500Y405000D02*
X780000Y397500D01*
D35*
X780000Y397500D03*
D38*
X772500Y413280D02*
X757780Y428000D01*
X677000Y428000D01*
X673000Y432000D01*
X673000Y451000D02*
X665000Y459000D01*
X665000Y512000D01*
X662000Y515000D01*
X673000Y451000D02*
X673000Y432000D01*
D35*
X662000Y515000D03*
X352000Y479000D03*
D33*
X352000Y477280D02*
X349220Y474500D01*
X352000Y477280D02*
X352000Y479000D01*
D34*
X775350Y387150D02*
X775350Y381450D01*
X775350Y387150D02*
X775000Y387500D01*
D38*
X775350Y389650D02*
X775350Y381450D01*
X765000Y400000D02*
X750000Y400000D01*
X747500Y402500D01*
X747500Y413280D01*
X765000Y400000D02*
X775350Y389650D01*
X747500Y413280D02*
X747500Y419500D01*
D35*
X747500Y419500D03*
X484000Y417000D03*
D38*
X484000Y423220D02*
X459220Y448000D01*
X484000Y423220D02*
X484000Y417000D01*
X814750Y392250D02*
X814750Y381450D01*
X814750Y392250D02*
X822500Y400000D01*
X822500Y413280D01*
X470000Y420000D02*
X459220Y420000D01*
X470000Y420000D02*
X484000Y406000D01*
D35*
X484000Y406000D03*
X815000Y371000D03*
D38*
X815000Y381200D01*
X814750Y381450D01*
X312000Y420780D02*
X311000Y420780D01*
X309220Y419000D01*
X309000Y419000D01*
X308000Y418000D01*
X303000Y418000D01*
X299000Y414000D01*
D35*
X299000Y414000D03*
D34*
X804900Y381450D02*
X805000Y381550D01*
X805000Y392500D01*
D35*
X805000Y392500D03*
D38*
X798220Y36500D02*
X807720Y27000D01*
X826000Y27000D01*
X798220Y36500D02*
X784720Y23000D01*
X748000Y23000D02*
X744500Y26500D01*
X748000Y23000D02*
X784720Y23000D01*
D33*
X466730Y253730D02*
X459600Y253730D01*
X466730Y253730D02*
X467000Y254000D01*
D35*
X467000Y254000D03*
D34*
X755650Y367850D02*
X755650Y381450D01*
X755650Y367850D02*
X756000Y367500D01*
D35*
X756000Y367500D03*
D38*
X459600Y253730D02*
X459600Y248600D01*
X455000Y244000D01*
X455000Y229000D01*
X457000Y227000D01*
X651000Y227000D01*
X664000Y240000D02*
X664000Y286000D01*
X668000Y290000D01*
X699000Y290000D01*
X664000Y240000D02*
X651000Y227000D01*
D41*
X699000Y290000D03*
D42*
X717500Y280000D03*
X717500Y265000D03*
X717500Y250000D03*
X717500Y235000D03*
X735000Y280000D03*
X735000Y265000D03*
X735000Y250000D03*
X735000Y235000D03*
X752500Y280000D03*
X752500Y265000D03*
X752500Y250000D03*
X752500Y235000D03*
X770000Y280000D03*
X770000Y265000D03*
X770000Y250000D03*
X770000Y235000D03*
D33*
X716250Y380250D02*
X716250Y381450D01*
X716250Y380250D02*
X710000Y374000D01*
D35*
X710000Y374000D03*
D34*
X765400Y198350D02*
X765400Y185400D01*
X765000Y185000D01*
D35*
X765000Y185000D03*
D34*
X716150Y186350D02*
X716150Y198350D01*
X716150Y186350D02*
X717500Y185000D01*
D35*
X717500Y185000D03*
D34*
X764000Y42280D02*
X769780Y36500D01*
X764000Y60000D02*
X758400Y65600D01*
D38*
X764000Y60000D02*
X764000Y42280D01*
D42*
X800000Y280000D03*
X800000Y265000D03*
X800000Y250000D03*
X800000Y235000D03*
X815000Y250000D03*
X815000Y265000D03*
X815000Y280000D03*
X815000Y235000D03*
X830000Y280000D03*
X830000Y265000D03*
X830000Y235000D03*
X830000Y250000D03*
X847500Y235000D03*
X847500Y250000D03*
X847500Y265000D03*
X847500Y280000D03*
D33*
X855600Y380000D02*
X854150Y381450D01*
X855600Y380000D02*
X862500Y380000D01*
D35*
X862500Y380000D03*
D33*
X854150Y287000D02*
X826650Y259500D01*
X854150Y287000D02*
X854150Y381450D01*
D34*
X804800Y198350D02*
X805000Y198150D01*
X805000Y185000D01*
D35*
X805000Y185000D03*
D34*
X854050Y185950D02*
X854050Y198350D01*
X854050Y185950D02*
X855000Y185000D01*
D35*
X855000Y185000D03*
D38*
X752388Y16000D02*
X752078Y15690D01*
X725310Y15690D02*
X714500Y26500D01*
X725310Y15690D02*
X752078Y15690D01*
X845000Y16000D02*
X856000Y27000D01*
X845000Y16000D02*
X752388Y16000D01*
X856000Y27000D02*
X856000Y59200D01*
X862400Y65600D01*
X697000Y438000D02*
X697500Y438500D01*
X697500Y441000D01*
D35*
X697500Y441000D03*
D38*
X772500Y441720D02*
X772500Y432500D01*
D35*
X772500Y432500D03*
D33*
X446900Y253730D02*
X421500Y253730D01*
X347000Y297000D02*
X337000Y307000D01*
X334000Y307000D02*
X307400Y333600D01*
X290400Y333600D01*
X433100Y381270D02*
X433100Y393900D01*
X432000Y395000D01*
X344000Y307000D02*
X337000Y307000D01*
X334000Y307000D01*
X429954Y392954D02*
X432000Y395000D01*
X402618Y365618D02*
X344000Y307000D01*
X415143Y392954D02*
X429954Y392954D01*
X402618Y380429D02*
X402618Y365618D01*
X275000Y103500D02*
X275000Y96000D01*
X275000Y103500D02*
X280000Y108500D01*
X279000Y107500D01*
X260000Y107500D01*
X268000Y75000D02*
X275000Y75000D01*
X268000Y75000D02*
X260000Y83000D01*
X260000Y107500D01*
D37*
X286550Y115050D02*
X311838Y115050D01*
X286550Y115050D02*
X280000Y108500D01*
D33*
X402618Y380429D02*
X415143Y392954D01*
D37*
X530800Y381450D02*
X530800Y372200D01*
D33*
X531000Y372000D01*
D35*
X531000Y372000D03*
D33*
X745800Y369800D02*
X745800Y381450D01*
X745800Y369800D02*
X745000Y369000D01*
D35*
X745000Y369000D03*
D37*
X530800Y381450D02*
X530800Y390200D01*
X527516Y393484D02*
X472484Y393484D01*
X527516Y393484D02*
X530800Y390200D01*
D33*
X460270Y381270D02*
X458500Y381270D01*
X460270Y381270D02*
X472484Y393484D01*
D35*
X636000Y365000D03*
D33*
X718000Y360000D02*
X723000Y365000D01*
D35*
X723000Y365000D03*
D33*
X641000Y360000D02*
X636000Y365000D01*
X641000Y360000D02*
X718000Y360000D01*
D35*
X525000Y340000D03*
X540000Y340000D03*
X555000Y340000D03*
X570000Y340000D03*
X585000Y340000D03*
X600000Y340000D03*
X615000Y340000D03*
X525000Y325000D03*
X540000Y325000D03*
X555000Y325000D03*
X570000Y325000D03*
X585000Y325000D03*
X600000Y325000D03*
X615000Y325000D03*
X525000Y310000D03*
X540000Y310000D03*
X555000Y310000D03*
X570000Y310000D03*
X585000Y310000D03*
X600000Y310000D03*
X615000Y310000D03*
D33*
X570100Y198350D02*
X570100Y186100D01*
X570000Y186000D01*
D35*
X570000Y186000D03*
D36*
X472000Y238000D02*
X470000Y238000D01*
X489000Y255000D02*
X489000Y293000D01*
X489000Y255000D02*
X472000Y238000D01*
D33*
X520950Y344050D02*
X520950Y381450D01*
X520950Y344050D02*
X525000Y340000D01*
X619450Y344450D02*
X619450Y381450D01*
X619450Y344450D02*
X615000Y340000D01*
D35*
X740000Y340000D03*
X755000Y340000D03*
X770000Y340000D03*
X785000Y340000D03*
X800000Y340000D03*
X815000Y340000D03*
X830000Y340000D03*
X740000Y325000D03*
X755000Y325000D03*
X770000Y325000D03*
X785000Y325000D03*
X800000Y325000D03*
X815000Y325000D03*
X830000Y325000D03*
X740000Y310000D03*
X755000Y310000D03*
X770000Y310000D03*
X785000Y310000D03*
X800000Y310000D03*
X815000Y310000D03*
X830000Y310000D03*
D37*
X785100Y198350D02*
X785100Y182600D01*
X785000Y182500D01*
D35*
X785000Y182500D03*
D37*
X740000Y340000D02*
X735950Y344050D01*
X830000Y340000D02*
X832500Y342500D01*
X762500Y320500D02*
X759500Y320500D01*
X740000Y340000D01*
D34*
X735950Y344050D02*
X735950Y381450D01*
X762500Y320500D02*
X785000Y320500D01*
X834450Y344450D02*
X834450Y381450D01*
X834450Y344450D02*
X832500Y342500D01*
D41*
X1027000Y189000D03*
D38*
X1027000Y132000D01*
X1033000Y126000D01*
X1051900Y126000D01*
X1052100Y125800D01*
X311838Y102050D02*
X299050Y102050D01*
X293000Y96000D02*
X293000Y80000D01*
X288000Y75000D01*
X285000Y75000D01*
X293000Y96000D02*
X299050Y102050D01*
X301550Y95550D02*
X311838Y95550D01*
X301550Y95550D02*
X299000Y93000D01*
X299000Y79000D01*
X301000Y77000D01*
X307000Y77000D01*
X371338Y108550D02*
X390450Y108550D01*
X394000Y105000D01*
D37*
X371338Y115050D02*
X371338Y128050D01*
X371338Y115050D02*
X400950Y115050D01*
X404000Y112000D01*
X404000Y105000D01*
D38*
X404000Y88000D02*
X390000Y88000D01*
X381450Y95550D02*
X371338Y95550D01*
X389000Y88000D02*
X390000Y88000D01*
X389000Y88000D02*
X381450Y95550D01*
X384950Y102050D02*
X371338Y102050D01*
X384950Y102050D02*
X390000Y97000D01*
X415000Y97000D01*
X297550Y108550D02*
X285000Y96000D01*
X297550Y108550D02*
X311838Y108550D01*
D33*
X285000Y96000D02*
X285000Y85000D01*
M02*
