G04 EAGLE Gerber RS-274X export*
G75*
%MOMM*%
%FSLAX34Y34*%
%LPD*%
%INBottom Copper*%
%IPPOS*%
%AMOC8*
5,1,8,0,0,1.08239X$1,22.5*%
G01*
%ADD10C,1.422400*%
%ADD11R,1.779778X1.779778*%
%ADD12C,1.879600*%
%ADD13C,1.304800*%
%ADD14C,0.609600*%
%ADD15C,0.609600*%
%ADD16C,0.812800*%
%ADD17C,0.304800*%
%ADD18C,0.508000*%
%ADD19C,0.525000*%
%ADD20C,0.600000*%
%ADD21C,0.406400*%

G36*
X472012Y8503D02*
X472012Y8503D01*
X472025Y8501D01*
X472109Y8523D01*
X472195Y8540D01*
X472205Y8548D01*
X472217Y8551D01*
X472353Y8647D01*
X472707Y9001D01*
X1060000Y9001D01*
X1060095Y9014D01*
X1060191Y9019D01*
X1060234Y9034D01*
X1060279Y9041D01*
X1060367Y9080D01*
X1060458Y9112D01*
X1060492Y9137D01*
X1060536Y9157D01*
X1060634Y9240D01*
X1060707Y9293D01*
X1090707Y39293D01*
X1090719Y39310D01*
X1090728Y39318D01*
X1090750Y39351D01*
X1090764Y39370D01*
X1090829Y39442D01*
X1090849Y39483D01*
X1090876Y39519D01*
X1090910Y39609D01*
X1090952Y39695D01*
X1090958Y39737D01*
X1090975Y39783D01*
X1090985Y39911D01*
X1090999Y40000D01*
X1090999Y71633D01*
X1090993Y71674D01*
X1090996Y71716D01*
X1090976Y71799D01*
X1090959Y71912D01*
X1090935Y71966D01*
X1090923Y72015D01*
X1090815Y72276D01*
X1090815Y76924D01*
X1090923Y77185D01*
X1090934Y77225D01*
X1090952Y77263D01*
X1090965Y77348D01*
X1090993Y77458D01*
X1090991Y77517D01*
X1090999Y77567D01*
X1090999Y82500D01*
X1090990Y82564D01*
X1090991Y82628D01*
X1090970Y82703D01*
X1090959Y82779D01*
X1090933Y82838D01*
X1090916Y82900D01*
X1090875Y82966D01*
X1090843Y83036D01*
X1090801Y83085D01*
X1090768Y83140D01*
X1090710Y83192D01*
X1090660Y83250D01*
X1090606Y83286D01*
X1090558Y83329D01*
X1090489Y83362D01*
X1090424Y83405D01*
X1090362Y83424D01*
X1090305Y83452D01*
X1090235Y83463D01*
X1090154Y83487D01*
X1090069Y83488D01*
X1090000Y83499D01*
X1084705Y83499D01*
X1084673Y83495D01*
X1084641Y83497D01*
X1084534Y83475D01*
X1084426Y83459D01*
X1084396Y83446D01*
X1084365Y83440D01*
X1084268Y83388D01*
X1084169Y83343D01*
X1084144Y83322D01*
X1084116Y83307D01*
X1084037Y83231D01*
X1083955Y83160D01*
X1083937Y83133D01*
X1083914Y83110D01*
X1083860Y83015D01*
X1083800Y82924D01*
X1083791Y82893D01*
X1083775Y82865D01*
X1083750Y82758D01*
X1083718Y82654D01*
X1083717Y82622D01*
X1083710Y82591D01*
X1083715Y82481D01*
X1083714Y82372D01*
X1083722Y82341D01*
X1083724Y82309D01*
X1083760Y82206D01*
X1083789Y82100D01*
X1083806Y82073D01*
X1083817Y82042D01*
X1083870Y81969D01*
X1083937Y81860D01*
X1083973Y81828D01*
X1083998Y81793D01*
X1084669Y81123D01*
X1085538Y79926D01*
X1086210Y78608D01*
X1086667Y77201D01*
X1086699Y76999D01*
X1078500Y76999D01*
X1078437Y76990D01*
X1078372Y76991D01*
X1078298Y76970D01*
X1078221Y76959D01*
X1078162Y76933D01*
X1078100Y76916D01*
X1078034Y76875D01*
X1077964Y76843D01*
X1077915Y76801D01*
X1077860Y76768D01*
X1077809Y76710D01*
X1077750Y76660D01*
X1077714Y76606D01*
X1077671Y76558D01*
X1077638Y76489D01*
X1077595Y76424D01*
X1077576Y76362D01*
X1077548Y76305D01*
X1077538Y76235D01*
X1077513Y76154D01*
X1077512Y76069D01*
X1077501Y76000D01*
X1077501Y74999D01*
X1076500Y74999D01*
X1076436Y74990D01*
X1076372Y74991D01*
X1076297Y74970D01*
X1076221Y74959D01*
X1076162Y74933D01*
X1076100Y74916D01*
X1076034Y74875D01*
X1075964Y74843D01*
X1075915Y74801D01*
X1075860Y74768D01*
X1075808Y74710D01*
X1075750Y74660D01*
X1075714Y74606D01*
X1075671Y74558D01*
X1075638Y74489D01*
X1075595Y74424D01*
X1075576Y74362D01*
X1075548Y74304D01*
X1075537Y74235D01*
X1075513Y74154D01*
X1075512Y74069D01*
X1075501Y74000D01*
X1075501Y65801D01*
X1075299Y65833D01*
X1073892Y66290D01*
X1072574Y66962D01*
X1071377Y67831D01*
X1070331Y68877D01*
X1069462Y70074D01*
X1068790Y71392D01*
X1068450Y72437D01*
X1068395Y72550D01*
X1068343Y72664D01*
X1068333Y72676D01*
X1068326Y72690D01*
X1068242Y72783D01*
X1068160Y72879D01*
X1068147Y72887D01*
X1068136Y72899D01*
X1068029Y72964D01*
X1067924Y73033D01*
X1067909Y73038D01*
X1067896Y73046D01*
X1067774Y73079D01*
X1067654Y73116D01*
X1067639Y73116D01*
X1067624Y73120D01*
X1067498Y73118D01*
X1067372Y73119D01*
X1067357Y73115D01*
X1067342Y73115D01*
X1067222Y73078D01*
X1067100Y73044D01*
X1067087Y73036D01*
X1067072Y73031D01*
X1066967Y72962D01*
X1066860Y72896D01*
X1066850Y72884D01*
X1066837Y72876D01*
X1066756Y72780D01*
X1066671Y72687D01*
X1066665Y72673D01*
X1066654Y72661D01*
X1066603Y72546D01*
X1066548Y72433D01*
X1066546Y72418D01*
X1066539Y72403D01*
X1066506Y72162D01*
X1066501Y72128D01*
X1066501Y52914D01*
X1057086Y43499D01*
X473499Y43499D01*
X473499Y388690D01*
X473498Y388698D01*
X473499Y388707D01*
X473478Y388795D01*
X473460Y388885D01*
X473455Y388892D01*
X473453Y388900D01*
X473399Y388973D01*
X473347Y389049D01*
X473340Y389053D01*
X473335Y389060D01*
X473257Y389107D01*
X473180Y389156D01*
X473171Y389157D01*
X473164Y389162D01*
X473000Y389189D01*
X432785Y389189D01*
X432773Y389187D01*
X432760Y389189D01*
X432676Y389167D01*
X432590Y389150D01*
X432580Y389143D01*
X432568Y389139D01*
X432432Y389043D01*
X416481Y373092D01*
X416474Y373081D01*
X416464Y373074D01*
X416419Y372999D01*
X416371Y372926D01*
X416369Y372914D01*
X416362Y372903D01*
X416335Y372739D01*
X416335Y370790D01*
X413210Y367665D01*
X408790Y367665D01*
X405665Y370790D01*
X405665Y375210D01*
X408790Y378335D01*
X410739Y378335D01*
X410751Y378337D01*
X410764Y378335D01*
X410848Y378357D01*
X410934Y378374D01*
X410944Y378381D01*
X410956Y378385D01*
X411092Y378481D01*
X429422Y396811D01*
X449595Y396811D01*
X449599Y396812D01*
X449603Y396811D01*
X449696Y396831D01*
X449790Y396850D01*
X449793Y396853D01*
X449797Y396854D01*
X449875Y396909D01*
X449954Y396963D01*
X449956Y396966D01*
X449959Y396969D01*
X450009Y397050D01*
X450061Y397130D01*
X450061Y397135D01*
X450064Y397138D01*
X450078Y397232D01*
X450094Y397327D01*
X450093Y397331D01*
X450093Y397335D01*
X450070Y397427D01*
X450048Y397520D01*
X450045Y397523D01*
X450044Y397527D01*
X449948Y397663D01*
X418710Y428901D01*
X418702Y428906D01*
X418697Y428913D01*
X418695Y428914D01*
X418692Y428918D01*
X418617Y428963D01*
X418544Y429011D01*
X418532Y429013D01*
X418521Y429020D01*
X418357Y429047D01*
X413643Y429047D01*
X413631Y429045D01*
X413618Y429047D01*
X413534Y429025D01*
X413448Y429008D01*
X413438Y429001D01*
X413426Y428997D01*
X413290Y428901D01*
X393578Y409189D01*
X370000Y409189D01*
X369992Y409188D01*
X369983Y409189D01*
X369895Y409168D01*
X369805Y409150D01*
X369798Y409145D01*
X369790Y409143D01*
X369717Y409089D01*
X369641Y409037D01*
X369637Y409030D01*
X369630Y409025D01*
X369583Y408947D01*
X369534Y408870D01*
X369533Y408861D01*
X369528Y408854D01*
X369501Y408690D01*
X369501Y225000D01*
X369503Y224988D01*
X369501Y224975D01*
X369523Y224891D01*
X369540Y224805D01*
X369548Y224795D01*
X369551Y224783D01*
X369647Y224647D01*
X437501Y156793D01*
X437501Y40310D01*
X437503Y40297D01*
X437501Y40285D01*
X437523Y40201D01*
X437540Y40115D01*
X437548Y40105D01*
X437551Y40092D01*
X437647Y39957D01*
X439768Y37836D01*
X441199Y34382D01*
X441199Y16418D01*
X440060Y13670D01*
X440058Y13659D01*
X440053Y13650D01*
X440039Y13562D01*
X440022Y13474D01*
X440024Y13464D01*
X440023Y13454D01*
X440045Y13367D01*
X440063Y13280D01*
X440069Y13271D01*
X440072Y13261D01*
X440168Y13126D01*
X444647Y8647D01*
X444658Y8640D01*
X444665Y8630D01*
X444740Y8586D01*
X444813Y8537D01*
X444825Y8535D01*
X444836Y8528D01*
X445000Y8501D01*
X472000Y8501D01*
X472012Y8503D01*
G37*
G36*
X359008Y80502D02*
X359008Y80502D01*
X359017Y80501D01*
X359105Y80522D01*
X359195Y80540D01*
X359202Y80545D01*
X359210Y80547D01*
X359283Y80601D01*
X359359Y80653D01*
X359363Y80660D01*
X359370Y80665D01*
X359417Y80743D01*
X359466Y80820D01*
X359467Y80829D01*
X359472Y80836D01*
X359499Y81000D01*
X359499Y217000D01*
X359498Y217008D01*
X359499Y217017D01*
X359478Y217105D01*
X359460Y217195D01*
X359455Y217202D01*
X359453Y217210D01*
X359399Y217283D01*
X359347Y217359D01*
X359340Y217363D01*
X359335Y217370D01*
X359257Y217417D01*
X359180Y217466D01*
X359171Y217467D01*
X359164Y217472D01*
X359000Y217499D01*
X228207Y217499D01*
X227499Y218207D01*
X227499Y459793D01*
X231207Y463501D01*
X414905Y463501D01*
X414909Y463502D01*
X414913Y463501D01*
X415006Y463521D01*
X415100Y463540D01*
X415103Y463543D01*
X415107Y463544D01*
X415185Y463599D01*
X415264Y463653D01*
X415266Y463656D01*
X415269Y463659D01*
X415319Y463740D01*
X415371Y463820D01*
X415371Y463825D01*
X415374Y463828D01*
X415388Y463922D01*
X415404Y464017D01*
X415403Y464021D01*
X415403Y464025D01*
X415380Y464117D01*
X415358Y464210D01*
X415355Y464213D01*
X415354Y464217D01*
X415258Y464353D01*
X395568Y484043D01*
X395557Y484050D01*
X395550Y484060D01*
X395475Y484105D01*
X395402Y484153D01*
X395390Y484155D01*
X395379Y484162D01*
X395215Y484189D01*
X381941Y484189D01*
X381928Y484187D01*
X381916Y484189D01*
X381831Y484167D01*
X381746Y484150D01*
X381735Y484143D01*
X381723Y484139D01*
X381587Y484043D01*
X380210Y482665D01*
X375790Y482665D01*
X373103Y485353D01*
X373092Y485360D01*
X373085Y485370D01*
X373010Y485414D01*
X372937Y485463D01*
X372924Y485465D01*
X372914Y485472D01*
X372750Y485499D01*
X356310Y485499D01*
X356302Y485498D01*
X356293Y485499D01*
X356205Y485478D01*
X356115Y485460D01*
X356108Y485455D01*
X356100Y485453D01*
X356027Y485399D01*
X355951Y485347D01*
X355947Y485340D01*
X355940Y485335D01*
X355893Y485257D01*
X355844Y485180D01*
X355843Y485171D01*
X355838Y485164D01*
X355811Y485000D01*
X355811Y482941D01*
X355813Y482928D01*
X355811Y482916D01*
X355833Y482831D01*
X355850Y482746D01*
X355857Y482735D01*
X355861Y482723D01*
X355957Y482587D01*
X357335Y481210D01*
X357335Y476790D01*
X355957Y475413D01*
X355950Y475402D01*
X355940Y475395D01*
X355895Y475320D01*
X355847Y475247D01*
X355845Y475234D01*
X355838Y475224D01*
X355811Y475059D01*
X355811Y474422D01*
X353578Y472189D01*
X350422Y472189D01*
X348189Y474422D01*
X348189Y475059D01*
X348187Y475072D01*
X348189Y475084D01*
X348167Y475169D01*
X348150Y475254D01*
X348143Y475265D01*
X348139Y475277D01*
X348043Y475413D01*
X346665Y476790D01*
X346665Y481210D01*
X348043Y482587D01*
X348050Y482598D01*
X348060Y482605D01*
X348105Y482680D01*
X348153Y482753D01*
X348155Y482766D01*
X348162Y482776D01*
X348189Y482941D01*
X348189Y485000D01*
X348188Y485008D01*
X348189Y485017D01*
X348168Y485105D01*
X348150Y485195D01*
X348145Y485202D01*
X348143Y485210D01*
X348089Y485283D01*
X348037Y485359D01*
X348030Y485363D01*
X348025Y485370D01*
X347947Y485417D01*
X347870Y485466D01*
X347861Y485467D01*
X347854Y485472D01*
X347690Y485499D01*
X165064Y485499D01*
X165056Y485498D01*
X165047Y485499D01*
X164959Y485478D01*
X164869Y485460D01*
X164862Y485455D01*
X164854Y485453D01*
X164781Y485399D01*
X164705Y485347D01*
X164701Y485340D01*
X164694Y485335D01*
X164647Y485257D01*
X164598Y485180D01*
X164597Y485171D01*
X164592Y485164D01*
X164565Y485000D01*
X164565Y481688D01*
X164580Y481613D01*
X164588Y481536D01*
X164600Y481513D01*
X164604Y481493D01*
X164630Y481456D01*
X164665Y481388D01*
X193436Y443027D01*
X193459Y443006D01*
X193482Y442973D01*
X194565Y441891D01*
X194565Y441688D01*
X194580Y441613D01*
X194588Y441536D01*
X194600Y441513D01*
X194604Y441493D01*
X194630Y441456D01*
X194665Y441388D01*
X194786Y441226D01*
X194570Y439711D01*
X194572Y439680D01*
X194565Y439640D01*
X194565Y98109D01*
X177809Y81353D01*
X177806Y81349D01*
X177803Y81347D01*
X177752Y81267D01*
X177699Y81187D01*
X177698Y81183D01*
X177696Y81180D01*
X177680Y81086D01*
X177662Y80992D01*
X177663Y80988D01*
X177663Y80983D01*
X177684Y80892D01*
X177705Y80798D01*
X177708Y80794D01*
X177709Y80790D01*
X177765Y80714D01*
X177820Y80636D01*
X177824Y80633D01*
X177826Y80630D01*
X177908Y80581D01*
X177990Y80531D01*
X177994Y80531D01*
X177998Y80528D01*
X178162Y80501D01*
X359000Y80501D01*
X359008Y80502D01*
G37*
G36*
X879020Y53242D02*
X879020Y53242D01*
X879039Y53240D01*
X879141Y53262D01*
X879243Y53279D01*
X879260Y53288D01*
X879280Y53292D01*
X879369Y53345D01*
X879460Y53394D01*
X879474Y53408D01*
X879491Y53418D01*
X879558Y53497D01*
X879630Y53572D01*
X879638Y53590D01*
X879651Y53605D01*
X879690Y53701D01*
X879733Y53795D01*
X879735Y53815D01*
X879743Y53833D01*
X879761Y54000D01*
X879761Y131000D01*
X879747Y131090D01*
X879739Y131181D01*
X879727Y131211D01*
X879722Y131243D01*
X879679Y131323D01*
X879643Y131407D01*
X879617Y131439D01*
X879606Y131460D01*
X879583Y131482D01*
X879538Y131538D01*
X860761Y150315D01*
X860761Y286000D01*
X860747Y286090D01*
X860739Y286181D01*
X860727Y286211D01*
X860722Y286243D01*
X860679Y286323D01*
X860643Y286407D01*
X860617Y286439D01*
X860606Y286460D01*
X860583Y286482D01*
X860538Y286538D01*
X859538Y287538D01*
X859464Y287591D01*
X859395Y287651D01*
X859365Y287663D01*
X859339Y287682D01*
X859252Y287709D01*
X859167Y287743D01*
X859126Y287747D01*
X859103Y287754D01*
X859071Y287753D01*
X859000Y287761D01*
X793000Y287761D01*
X792980Y287758D01*
X792961Y287760D01*
X792859Y287738D01*
X792757Y287722D01*
X792740Y287712D01*
X792720Y287708D01*
X792631Y287655D01*
X792540Y287606D01*
X792526Y287592D01*
X792509Y287582D01*
X792442Y287503D01*
X792371Y287428D01*
X792362Y287410D01*
X792349Y287395D01*
X792310Y287299D01*
X792267Y287205D01*
X792265Y287185D01*
X792257Y287167D01*
X792239Y287000D01*
X792239Y55000D01*
X792254Y54910D01*
X792261Y54819D01*
X792273Y54789D01*
X792279Y54757D01*
X792321Y54677D01*
X792357Y54593D01*
X792383Y54561D01*
X792394Y54540D01*
X792417Y54518D01*
X792462Y54462D01*
X793462Y53462D01*
X793536Y53409D01*
X793605Y53349D01*
X793635Y53337D01*
X793661Y53318D01*
X793748Y53291D01*
X793833Y53257D01*
X793874Y53253D01*
X793897Y53246D01*
X793929Y53247D01*
X794000Y53239D01*
X879000Y53239D01*
X879020Y53242D01*
G37*
G36*
X662020Y53242D02*
X662020Y53242D01*
X662039Y53240D01*
X662141Y53262D01*
X662243Y53279D01*
X662260Y53288D01*
X662280Y53292D01*
X662369Y53345D01*
X662460Y53394D01*
X662474Y53408D01*
X662491Y53418D01*
X662558Y53497D01*
X662630Y53572D01*
X662638Y53590D01*
X662651Y53605D01*
X662690Y53701D01*
X662733Y53795D01*
X662735Y53815D01*
X662743Y53833D01*
X662761Y54000D01*
X662761Y127000D01*
X662747Y127090D01*
X662739Y127181D01*
X662727Y127211D01*
X662722Y127243D01*
X662679Y127323D01*
X662643Y127407D01*
X662617Y127439D01*
X662606Y127460D01*
X662583Y127482D01*
X662538Y127538D01*
X644761Y145315D01*
X644761Y287000D01*
X644758Y287020D01*
X644760Y287039D01*
X644738Y287141D01*
X644722Y287243D01*
X644712Y287260D01*
X644708Y287280D01*
X644655Y287369D01*
X644606Y287460D01*
X644592Y287474D01*
X644582Y287491D01*
X644503Y287558D01*
X644428Y287630D01*
X644410Y287638D01*
X644395Y287651D01*
X644299Y287690D01*
X644205Y287733D01*
X644185Y287735D01*
X644167Y287743D01*
X644000Y287761D01*
X582000Y287761D01*
X581910Y287747D01*
X581819Y287739D01*
X581789Y287727D01*
X581757Y287722D01*
X581677Y287679D01*
X581593Y287643D01*
X581561Y287617D01*
X581540Y287606D01*
X581518Y287583D01*
X581462Y287538D01*
X580462Y286538D01*
X580409Y286464D01*
X580349Y286395D01*
X580337Y286365D01*
X580318Y286339D01*
X580291Y286252D01*
X580257Y286167D01*
X580253Y286126D01*
X580246Y286103D01*
X580247Y286071D01*
X580239Y286000D01*
X580239Y54000D01*
X580242Y53980D01*
X580240Y53961D01*
X580262Y53859D01*
X580279Y53757D01*
X580288Y53740D01*
X580292Y53720D01*
X580345Y53631D01*
X580394Y53540D01*
X580408Y53526D01*
X580418Y53509D01*
X580497Y53442D01*
X580572Y53371D01*
X580590Y53362D01*
X580605Y53349D01*
X580701Y53310D01*
X580795Y53267D01*
X580815Y53265D01*
X580833Y53257D01*
X581000Y53239D01*
X662000Y53239D01*
X662020Y53242D01*
G37*
G36*
X561058Y52993D02*
X561058Y52993D01*
X561116Y52991D01*
X561198Y53013D01*
X561282Y53025D01*
X561335Y53049D01*
X561391Y53063D01*
X561464Y53106D01*
X561541Y53141D01*
X561586Y53179D01*
X561636Y53209D01*
X561694Y53270D01*
X561758Y53325D01*
X561790Y53373D01*
X561830Y53416D01*
X561869Y53491D01*
X561916Y53561D01*
X561933Y53617D01*
X561960Y53669D01*
X561971Y53737D01*
X562001Y53832D01*
X562004Y53932D01*
X562015Y54000D01*
X562015Y285000D01*
X562007Y285058D01*
X562009Y285116D01*
X561987Y285198D01*
X561975Y285282D01*
X561952Y285335D01*
X561937Y285391D01*
X561894Y285464D01*
X561859Y285541D01*
X561821Y285586D01*
X561792Y285636D01*
X561730Y285694D01*
X561676Y285758D01*
X561627Y285790D01*
X561584Y285830D01*
X561509Y285869D01*
X561439Y285916D01*
X561383Y285933D01*
X561331Y285960D01*
X561263Y285971D01*
X561168Y286001D01*
X561068Y286004D01*
X561000Y286015D01*
X498000Y286015D01*
X497942Y286007D01*
X497884Y286009D01*
X497802Y285987D01*
X497719Y285975D01*
X497665Y285952D01*
X497609Y285937D01*
X497536Y285894D01*
X497459Y285859D01*
X497414Y285821D01*
X497364Y285792D01*
X497306Y285730D01*
X497242Y285676D01*
X497210Y285627D01*
X497170Y285584D01*
X497131Y285509D01*
X497085Y285439D01*
X497067Y285383D01*
X497040Y285331D01*
X497029Y285263D01*
X496999Y285168D01*
X496996Y285068D01*
X496985Y285000D01*
X496985Y144421D01*
X481282Y128718D01*
X481230Y128648D01*
X481170Y128584D01*
X481144Y128535D01*
X481111Y128491D01*
X481080Y128409D01*
X481040Y128331D01*
X481032Y128284D01*
X481010Y128225D01*
X480998Y128077D01*
X480985Y128000D01*
X480985Y54000D01*
X480993Y53942D01*
X480991Y53884D01*
X481013Y53802D01*
X481025Y53719D01*
X481049Y53665D01*
X481063Y53609D01*
X481106Y53536D01*
X481141Y53459D01*
X481179Y53414D01*
X481209Y53364D01*
X481270Y53306D01*
X481325Y53242D01*
X481373Y53210D01*
X481416Y53170D01*
X481491Y53131D01*
X481561Y53085D01*
X481617Y53067D01*
X481669Y53040D01*
X481737Y53029D01*
X481832Y52999D01*
X481932Y52996D01*
X482000Y52985D01*
X561000Y52985D01*
X561058Y52993D01*
G37*
G36*
X774020Y52242D02*
X774020Y52242D01*
X774039Y52240D01*
X774141Y52262D01*
X774243Y52279D01*
X774260Y52288D01*
X774280Y52292D01*
X774369Y52345D01*
X774460Y52394D01*
X774474Y52408D01*
X774491Y52418D01*
X774558Y52497D01*
X774630Y52572D01*
X774638Y52590D01*
X774651Y52605D01*
X774690Y52701D01*
X774733Y52795D01*
X774735Y52815D01*
X774743Y52833D01*
X774761Y53000D01*
X774761Y287000D01*
X774758Y287020D01*
X774760Y287039D01*
X774738Y287141D01*
X774722Y287243D01*
X774712Y287260D01*
X774708Y287280D01*
X774655Y287369D01*
X774606Y287460D01*
X774592Y287474D01*
X774582Y287491D01*
X774503Y287558D01*
X774428Y287630D01*
X774410Y287638D01*
X774395Y287651D01*
X774299Y287690D01*
X774205Y287733D01*
X774185Y287735D01*
X774167Y287743D01*
X774000Y287761D01*
X712000Y287761D01*
X711980Y287758D01*
X711961Y287760D01*
X711859Y287738D01*
X711757Y287722D01*
X711740Y287712D01*
X711720Y287708D01*
X711631Y287655D01*
X711540Y287606D01*
X711526Y287592D01*
X711509Y287582D01*
X711442Y287503D01*
X711371Y287428D01*
X711362Y287410D01*
X711349Y287395D01*
X711310Y287299D01*
X711267Y287205D01*
X711265Y287185D01*
X711257Y287167D01*
X711239Y287000D01*
X711239Y141315D01*
X696462Y126538D01*
X696409Y126464D01*
X696349Y126395D01*
X696337Y126365D01*
X696318Y126339D01*
X696291Y126252D01*
X696257Y126167D01*
X696253Y126126D01*
X696246Y126103D01*
X696247Y126071D01*
X696239Y126000D01*
X696239Y54000D01*
X696254Y53910D01*
X696261Y53819D01*
X696273Y53789D01*
X696279Y53757D01*
X696321Y53677D01*
X696357Y53593D01*
X696383Y53561D01*
X696394Y53540D01*
X696417Y53518D01*
X696462Y53462D01*
X697462Y52462D01*
X697536Y52409D01*
X697605Y52349D01*
X697635Y52337D01*
X697661Y52318D01*
X697748Y52291D01*
X697833Y52257D01*
X697874Y52253D01*
X697897Y52246D01*
X697929Y52247D01*
X698000Y52239D01*
X774000Y52239D01*
X774020Y52242D01*
G37*
%LPC*%
G36*
X464790Y248665D02*
X464790Y248665D01*
X461665Y251790D01*
X461665Y256210D01*
X464790Y259335D01*
X469210Y259335D01*
X472335Y256210D01*
X472335Y251790D01*
X469210Y248665D01*
X464790Y248665D01*
G37*
%LPD*%
%LPC*%
G36*
X291399Y205399D02*
X291399Y205399D01*
X291399Y213300D01*
X299299Y213300D01*
X299300Y213299D01*
X299300Y205399D01*
X291399Y205399D01*
G37*
%LPD*%
%LPC*%
G36*
X265999Y154599D02*
X265999Y154599D01*
X265999Y162500D01*
X273899Y162500D01*
X273900Y162499D01*
X273900Y154599D01*
X265999Y154599D01*
G37*
%LPD*%
%LPC*%
G36*
X265999Y205399D02*
X265999Y205399D01*
X265999Y213300D01*
X273899Y213300D01*
X273900Y213299D01*
X273900Y205399D01*
X265999Y205399D01*
G37*
%LPD*%
%LPC*%
G36*
X291399Y154599D02*
X291399Y154599D01*
X291399Y162500D01*
X299299Y162500D01*
X299300Y162499D01*
X299300Y154599D01*
X291399Y154599D01*
G37*
%LPD*%
%LPC*%
G36*
X240599Y205399D02*
X240599Y205399D01*
X240599Y213300D01*
X248499Y213300D01*
X248500Y213299D01*
X248500Y205399D01*
X240599Y205399D01*
G37*
%LPD*%
%LPC*%
G36*
X240599Y154599D02*
X240599Y154599D01*
X240599Y162500D01*
X248499Y162500D01*
X248500Y162499D01*
X248500Y154599D01*
X240599Y154599D01*
G37*
%LPD*%
%LPC*%
G36*
X291399Y179999D02*
X291399Y179999D01*
X291399Y187900D01*
X299299Y187900D01*
X299300Y187899D01*
X299300Y179999D01*
X291399Y179999D01*
G37*
%LPD*%
%LPC*%
G36*
X265999Y179999D02*
X265999Y179999D01*
X265999Y187900D01*
X273899Y187900D01*
X273900Y187899D01*
X273900Y179999D01*
X265999Y179999D01*
G37*
%LPD*%
%LPC*%
G36*
X240599Y179999D02*
X240599Y179999D01*
X240599Y187900D01*
X248499Y187900D01*
X248500Y187899D01*
X248500Y179999D01*
X240599Y179999D01*
G37*
%LPD*%
%LPC*%
G36*
X256100Y154599D02*
X256100Y154599D01*
X256100Y162499D01*
X256101Y162500D01*
X264001Y162500D01*
X264001Y154599D01*
X256100Y154599D01*
G37*
%LPD*%
%LPC*%
G36*
X281500Y205399D02*
X281500Y205399D01*
X281500Y213299D01*
X281501Y213300D01*
X289401Y213300D01*
X289401Y205399D01*
X281500Y205399D01*
G37*
%LPD*%
%LPC*%
G36*
X281500Y154599D02*
X281500Y154599D01*
X281500Y162499D01*
X281501Y162500D01*
X289401Y162500D01*
X289401Y154599D01*
X281500Y154599D01*
G37*
%LPD*%
%LPC*%
G36*
X230700Y154599D02*
X230700Y154599D01*
X230700Y162499D01*
X230701Y162500D01*
X238601Y162500D01*
X238601Y154599D01*
X230700Y154599D01*
G37*
%LPD*%
%LPC*%
G36*
X256100Y205399D02*
X256100Y205399D01*
X256100Y213299D01*
X256101Y213300D01*
X264001Y213300D01*
X264001Y205399D01*
X256100Y205399D01*
G37*
%LPD*%
%LPC*%
G36*
X230700Y205399D02*
X230700Y205399D01*
X230700Y213299D01*
X230701Y213300D01*
X238601Y213300D01*
X238601Y205399D01*
X230700Y205399D01*
G37*
%LPD*%
%LPC*%
G36*
X230700Y179999D02*
X230700Y179999D01*
X230700Y187899D01*
X230701Y187900D01*
X238601Y187900D01*
X238601Y179999D01*
X230700Y179999D01*
G37*
%LPD*%
%LPC*%
G36*
X281500Y179999D02*
X281500Y179999D01*
X281500Y187899D01*
X281501Y187900D01*
X289401Y187900D01*
X289401Y179999D01*
X281500Y179999D01*
G37*
%LPD*%
%LPC*%
G36*
X256100Y179999D02*
X256100Y179999D01*
X256100Y187899D01*
X256101Y187900D01*
X264001Y187900D01*
X264001Y179999D01*
X256100Y179999D01*
G37*
%LPD*%
%LPC*%
G36*
X265999Y195500D02*
X265999Y195500D01*
X265999Y203401D01*
X273900Y203401D01*
X273900Y195501D01*
X273899Y195500D01*
X265999Y195500D01*
G37*
%LPD*%
%LPC*%
G36*
X291399Y144700D02*
X291399Y144700D01*
X291399Y152601D01*
X299300Y152601D01*
X299300Y144701D01*
X299299Y144700D01*
X291399Y144700D01*
G37*
%LPD*%
%LPC*%
G36*
X240599Y144700D02*
X240599Y144700D01*
X240599Y152601D01*
X248500Y152601D01*
X248500Y144701D01*
X248499Y144700D01*
X240599Y144700D01*
G37*
%LPD*%
%LPC*%
G36*
X265999Y144700D02*
X265999Y144700D01*
X265999Y152601D01*
X273900Y152601D01*
X273900Y144701D01*
X273899Y144700D01*
X265999Y144700D01*
G37*
%LPD*%
%LPC*%
G36*
X291399Y195500D02*
X291399Y195500D01*
X291399Y203401D01*
X299300Y203401D01*
X299300Y195501D01*
X299299Y195500D01*
X291399Y195500D01*
G37*
%LPD*%
%LPC*%
G36*
X240599Y195500D02*
X240599Y195500D01*
X240599Y203401D01*
X248500Y203401D01*
X248500Y195501D01*
X248499Y195500D01*
X240599Y195500D01*
G37*
%LPD*%
%LPC*%
G36*
X291399Y170100D02*
X291399Y170100D01*
X291399Y178001D01*
X299300Y178001D01*
X299300Y170101D01*
X299299Y170100D01*
X291399Y170100D01*
G37*
%LPD*%
%LPC*%
G36*
X240599Y170100D02*
X240599Y170100D01*
X240599Y178001D01*
X248500Y178001D01*
X248500Y170101D01*
X248499Y170100D01*
X240599Y170100D01*
G37*
%LPD*%
%LPC*%
G36*
X265999Y170100D02*
X265999Y170100D01*
X265999Y178001D01*
X273900Y178001D01*
X273900Y170101D01*
X273899Y170100D01*
X265999Y170100D01*
G37*
%LPD*%
%LPC*%
G36*
X256101Y170100D02*
X256101Y170100D01*
X256100Y170101D01*
X256100Y178001D01*
X264001Y178001D01*
X264001Y170100D01*
X256101Y170100D01*
G37*
%LPD*%
%LPC*%
G36*
X281501Y170100D02*
X281501Y170100D01*
X281500Y170101D01*
X281500Y178001D01*
X289401Y178001D01*
X289401Y170100D01*
X281501Y170100D01*
G37*
%LPD*%
%LPC*%
G36*
X230701Y170100D02*
X230701Y170100D01*
X230700Y170101D01*
X230700Y178001D01*
X238601Y178001D01*
X238601Y170100D01*
X230701Y170100D01*
G37*
%LPD*%
%LPC*%
G36*
X281501Y195500D02*
X281501Y195500D01*
X281500Y195501D01*
X281500Y203401D01*
X289401Y203401D01*
X289401Y195500D01*
X281501Y195500D01*
G37*
%LPD*%
%LPC*%
G36*
X256101Y195500D02*
X256101Y195500D01*
X256100Y195501D01*
X256100Y203401D01*
X264001Y203401D01*
X264001Y195500D01*
X256101Y195500D01*
G37*
%LPD*%
%LPC*%
G36*
X230701Y144700D02*
X230701Y144700D01*
X230700Y144701D01*
X230700Y152601D01*
X238601Y152601D01*
X238601Y144700D01*
X230701Y144700D01*
G37*
%LPD*%
%LPC*%
G36*
X256101Y144700D02*
X256101Y144700D01*
X256100Y144701D01*
X256100Y152601D01*
X264001Y152601D01*
X264001Y144700D01*
X256101Y144700D01*
G37*
%LPD*%
%LPC*%
G36*
X281501Y144700D02*
X281501Y144700D01*
X281500Y144701D01*
X281500Y152601D01*
X289401Y152601D01*
X289401Y144700D01*
X281501Y144700D01*
G37*
%LPD*%
%LPC*%
G36*
X230701Y195500D02*
X230701Y195500D01*
X230700Y195501D01*
X230700Y203401D01*
X238601Y203401D01*
X238601Y195500D01*
X230701Y195500D01*
G37*
%LPD*%
%LPC*%
G36*
X626523Y92523D02*
X626523Y92523D01*
X626523Y99900D01*
X633899Y99900D01*
X633899Y99899D01*
X633900Y99899D01*
X633900Y92523D01*
X626523Y92523D01*
G37*
%LPD*%
%LPC*%
G36*
X813123Y67123D02*
X813123Y67123D01*
X813123Y74500D01*
X820499Y74500D01*
X820499Y74499D01*
X820500Y74499D01*
X820500Y67123D01*
X813123Y67123D01*
G37*
%LPD*%
%LPC*%
G36*
X626523Y67123D02*
X626523Y67123D01*
X626523Y74500D01*
X633899Y74500D01*
X633899Y74499D01*
X633900Y74499D01*
X633900Y67123D01*
X626523Y67123D01*
G37*
%LPD*%
%LPC*%
G36*
X838523Y67123D02*
X838523Y67123D01*
X838523Y74500D01*
X845899Y74500D01*
X845899Y74499D01*
X845900Y74499D01*
X845900Y67123D01*
X838523Y67123D01*
G37*
%LPD*%
%LPC*%
G36*
X651923Y67123D02*
X651923Y67123D01*
X651923Y74500D01*
X659299Y74500D01*
X659299Y74499D01*
X659300Y74499D01*
X659300Y67123D01*
X651923Y67123D01*
G37*
%LPD*%
%LPC*%
G36*
X863923Y67123D02*
X863923Y67123D01*
X863923Y74500D01*
X871299Y74500D01*
X871299Y74499D01*
X871300Y74499D01*
X871300Y67123D01*
X863923Y67123D01*
G37*
%LPD*%
%LPC*%
G36*
X601123Y67123D02*
X601123Y67123D01*
X601123Y74500D01*
X608499Y74500D01*
X608499Y74499D01*
X608500Y74499D01*
X608500Y67123D01*
X601123Y67123D01*
G37*
%LPD*%
%LPC*%
G36*
X759923Y67123D02*
X759923Y67123D01*
X759923Y74500D01*
X767299Y74500D01*
X767299Y74499D01*
X767300Y74499D01*
X767300Y67123D01*
X759923Y67123D01*
G37*
%LPD*%
%LPC*%
G36*
X734523Y67123D02*
X734523Y67123D01*
X734523Y74500D01*
X741899Y74500D01*
X741899Y74499D01*
X741900Y74499D01*
X741900Y67123D01*
X734523Y67123D01*
G37*
%LPD*%
%LPC*%
G36*
X709123Y67123D02*
X709123Y67123D01*
X709123Y74500D01*
X716499Y74500D01*
X716499Y74499D01*
X716500Y74499D01*
X716500Y67123D01*
X709123Y67123D01*
G37*
%LPD*%
%LPC*%
G36*
X709123Y92523D02*
X709123Y92523D01*
X709123Y99900D01*
X716499Y99900D01*
X716499Y99899D01*
X716500Y99899D01*
X716500Y92523D01*
X709123Y92523D01*
G37*
%LPD*%
%LPC*%
G36*
X759923Y92523D02*
X759923Y92523D01*
X759923Y99900D01*
X767299Y99900D01*
X767299Y99899D01*
X767300Y99899D01*
X767300Y92523D01*
X759923Y92523D01*
G37*
%LPD*%
%LPC*%
G36*
X601123Y92523D02*
X601123Y92523D01*
X601123Y99900D01*
X608499Y99900D01*
X608499Y99899D01*
X608500Y99899D01*
X608500Y92523D01*
X601123Y92523D01*
G37*
%LPD*%
%LPC*%
G36*
X863923Y92523D02*
X863923Y92523D01*
X863923Y99900D01*
X871299Y99900D01*
X871299Y99899D01*
X871300Y99899D01*
X871300Y92523D01*
X863923Y92523D01*
G37*
%LPD*%
%LPC*%
G36*
X838523Y92523D02*
X838523Y92523D01*
X838523Y99900D01*
X845899Y99900D01*
X845899Y99899D01*
X845900Y99899D01*
X845900Y92523D01*
X838523Y92523D01*
G37*
%LPD*%
%LPC*%
G36*
X813123Y92523D02*
X813123Y92523D01*
X813123Y99900D01*
X820499Y99900D01*
X820499Y99899D01*
X820500Y99899D01*
X820500Y92523D01*
X813123Y92523D01*
G37*
%LPD*%
%LPC*%
G36*
X759923Y117923D02*
X759923Y117923D01*
X759923Y125300D01*
X767299Y125300D01*
X767299Y125299D01*
X767300Y125299D01*
X767300Y117923D01*
X759923Y117923D01*
G37*
%LPD*%
%LPC*%
G36*
X709123Y117923D02*
X709123Y117923D01*
X709123Y125300D01*
X716499Y125300D01*
X716499Y125299D01*
X716500Y125299D01*
X716500Y117923D01*
X709123Y117923D01*
G37*
%LPD*%
%LPC*%
G36*
X651923Y117923D02*
X651923Y117923D01*
X651923Y125300D01*
X659299Y125300D01*
X659299Y125299D01*
X659300Y125299D01*
X659300Y117923D01*
X651923Y117923D01*
G37*
%LPD*%
%LPC*%
G36*
X863923Y117923D02*
X863923Y117923D01*
X863923Y125300D01*
X871299Y125300D01*
X871299Y125299D01*
X871300Y125299D01*
X871300Y117923D01*
X863923Y117923D01*
G37*
%LPD*%
%LPC*%
G36*
X651923Y92523D02*
X651923Y92523D01*
X651923Y99900D01*
X659299Y99900D01*
X659299Y99899D01*
X659300Y99899D01*
X659300Y92523D01*
X651923Y92523D01*
G37*
%LPD*%
%LPC*%
G36*
X838523Y117923D02*
X838523Y117923D01*
X838523Y125300D01*
X845899Y125300D01*
X845899Y125299D01*
X845900Y125299D01*
X845900Y117923D01*
X838523Y117923D01*
G37*
%LPD*%
%LPC*%
G36*
X734523Y92523D02*
X734523Y92523D01*
X734523Y99900D01*
X741899Y99900D01*
X741899Y99899D01*
X741900Y99899D01*
X741900Y92523D01*
X734523Y92523D01*
G37*
%LPD*%
%LPC*%
G36*
X813123Y117923D02*
X813123Y117923D01*
X813123Y125300D01*
X820499Y125300D01*
X820499Y125299D01*
X820500Y125299D01*
X820500Y117923D01*
X813123Y117923D01*
G37*
%LPD*%
%LPC*%
G36*
X626523Y117923D02*
X626523Y117923D01*
X626523Y125300D01*
X633899Y125300D01*
X633899Y125299D01*
X633900Y125299D01*
X633900Y117923D01*
X626523Y117923D01*
G37*
%LPD*%
%LPC*%
G36*
X734523Y117923D02*
X734523Y117923D01*
X734523Y125300D01*
X741899Y125300D01*
X741899Y125299D01*
X741900Y125299D01*
X741900Y117923D01*
X734523Y117923D01*
G37*
%LPD*%
%LPC*%
G36*
X601123Y117923D02*
X601123Y117923D01*
X601123Y125300D01*
X608499Y125300D01*
X608499Y125299D01*
X608500Y125299D01*
X608500Y117923D01*
X601123Y117923D01*
G37*
%LPD*%
%LPC*%
G36*
X698700Y117923D02*
X698700Y117923D01*
X698700Y125299D01*
X698701Y125299D01*
X698701Y125300D01*
X706077Y125300D01*
X706077Y117923D01*
X698700Y117923D01*
G37*
%LPD*%
%LPC*%
G36*
X590700Y117923D02*
X590700Y117923D01*
X590700Y125299D01*
X590701Y125299D01*
X590701Y125300D01*
X598077Y125300D01*
X598077Y117923D01*
X590700Y117923D01*
G37*
%LPD*%
%LPC*%
G36*
X724100Y117923D02*
X724100Y117923D01*
X724100Y125299D01*
X724101Y125299D01*
X724101Y125300D01*
X731477Y125300D01*
X731477Y117923D01*
X724100Y117923D01*
G37*
%LPD*%
%LPC*%
G36*
X616100Y117923D02*
X616100Y117923D01*
X616100Y125299D01*
X616101Y125299D01*
X616101Y125300D01*
X623477Y125300D01*
X623477Y117923D01*
X616100Y117923D01*
G37*
%LPD*%
%LPC*%
G36*
X828100Y117923D02*
X828100Y117923D01*
X828100Y125299D01*
X828101Y125299D01*
X828101Y125300D01*
X835477Y125300D01*
X835477Y117923D01*
X828100Y117923D01*
G37*
%LPD*%
%LPC*%
G36*
X641500Y117923D02*
X641500Y117923D01*
X641500Y125299D01*
X641501Y125299D01*
X641501Y125300D01*
X648877Y125300D01*
X648877Y117923D01*
X641500Y117923D01*
G37*
%LPD*%
%LPC*%
G36*
X641500Y92523D02*
X641500Y92523D01*
X641500Y99899D01*
X641501Y99899D01*
X641501Y99900D01*
X648877Y99900D01*
X648877Y92523D01*
X641500Y92523D01*
G37*
%LPD*%
%LPC*%
G36*
X802700Y117923D02*
X802700Y117923D01*
X802700Y125299D01*
X802701Y125299D01*
X802701Y125300D01*
X810077Y125300D01*
X810077Y117923D01*
X802700Y117923D01*
G37*
%LPD*%
%LPC*%
G36*
X853500Y92523D02*
X853500Y92523D01*
X853500Y99899D01*
X853501Y99899D01*
X853501Y99900D01*
X860877Y99900D01*
X860877Y92523D01*
X853500Y92523D01*
G37*
%LPD*%
%LPC*%
G36*
X853500Y67123D02*
X853500Y67123D01*
X853500Y74499D01*
X853501Y74499D01*
X853501Y74500D01*
X860877Y74500D01*
X860877Y67123D01*
X853500Y67123D01*
G37*
%LPD*%
%LPC*%
G36*
X616100Y92523D02*
X616100Y92523D01*
X616100Y99899D01*
X616101Y99899D01*
X616101Y99900D01*
X623477Y99900D01*
X623477Y92523D01*
X616100Y92523D01*
G37*
%LPD*%
%LPC*%
G36*
X590700Y67123D02*
X590700Y67123D01*
X590700Y74499D01*
X590701Y74499D01*
X590701Y74500D01*
X598077Y74500D01*
X598077Y67123D01*
X590700Y67123D01*
G37*
%LPD*%
%LPC*%
G36*
X698700Y67123D02*
X698700Y67123D01*
X698700Y74499D01*
X698701Y74499D01*
X698701Y74500D01*
X706077Y74500D01*
X706077Y67123D01*
X698700Y67123D01*
G37*
%LPD*%
%LPC*%
G36*
X724100Y92523D02*
X724100Y92523D01*
X724100Y99899D01*
X724101Y99899D01*
X724101Y99900D01*
X731477Y99900D01*
X731477Y92523D01*
X724100Y92523D01*
G37*
%LPD*%
%LPC*%
G36*
X749500Y117923D02*
X749500Y117923D01*
X749500Y125299D01*
X749501Y125299D01*
X749501Y125300D01*
X756877Y125300D01*
X756877Y117923D01*
X749500Y117923D01*
G37*
%LPD*%
%LPC*%
G36*
X724100Y67123D02*
X724100Y67123D01*
X724100Y74499D01*
X724101Y74499D01*
X724101Y74500D01*
X731477Y74500D01*
X731477Y67123D01*
X724100Y67123D01*
G37*
%LPD*%
%LPC*%
G36*
X641500Y67123D02*
X641500Y67123D01*
X641500Y74499D01*
X641501Y74499D01*
X641501Y74500D01*
X648877Y74500D01*
X648877Y67123D01*
X641500Y67123D01*
G37*
%LPD*%
%LPC*%
G36*
X616100Y67123D02*
X616100Y67123D01*
X616100Y74499D01*
X616101Y74499D01*
X616101Y74500D01*
X623477Y74500D01*
X623477Y67123D01*
X616100Y67123D01*
G37*
%LPD*%
%LPC*%
G36*
X698700Y92523D02*
X698700Y92523D01*
X698700Y99899D01*
X698701Y99899D01*
X698701Y99900D01*
X706077Y99900D01*
X706077Y92523D01*
X698700Y92523D01*
G37*
%LPD*%
%LPC*%
G36*
X828100Y67123D02*
X828100Y67123D01*
X828100Y74499D01*
X828101Y74499D01*
X828101Y74500D01*
X835477Y74500D01*
X835477Y67123D01*
X828100Y67123D01*
G37*
%LPD*%
%LPC*%
G36*
X828100Y92523D02*
X828100Y92523D01*
X828100Y99899D01*
X828101Y99899D01*
X828101Y99900D01*
X835477Y99900D01*
X835477Y92523D01*
X828100Y92523D01*
G37*
%LPD*%
%LPC*%
G36*
X749500Y67123D02*
X749500Y67123D01*
X749500Y74499D01*
X749501Y74499D01*
X749501Y74500D01*
X756877Y74500D01*
X756877Y67123D01*
X749500Y67123D01*
G37*
%LPD*%
%LPC*%
G36*
X802700Y67123D02*
X802700Y67123D01*
X802700Y74499D01*
X802701Y74499D01*
X802701Y74500D01*
X810077Y74500D01*
X810077Y67123D01*
X802700Y67123D01*
G37*
%LPD*%
%LPC*%
G36*
X802700Y92523D02*
X802700Y92523D01*
X802700Y99899D01*
X802701Y99899D01*
X802701Y99900D01*
X810077Y99900D01*
X810077Y92523D01*
X802700Y92523D01*
G37*
%LPD*%
%LPC*%
G36*
X590700Y92523D02*
X590700Y92523D01*
X590700Y99899D01*
X590701Y99899D01*
X590701Y99900D01*
X598077Y99900D01*
X598077Y92523D01*
X590700Y92523D01*
G37*
%LPD*%
%LPC*%
G36*
X749500Y92523D02*
X749500Y92523D01*
X749500Y99899D01*
X749501Y99899D01*
X749501Y99900D01*
X756877Y99900D01*
X756877Y92523D01*
X749500Y92523D01*
G37*
%LPD*%
%LPC*%
G36*
X853500Y117923D02*
X853500Y117923D01*
X853500Y125299D01*
X853501Y125299D01*
X853501Y125300D01*
X860877Y125300D01*
X860877Y117923D01*
X853500Y117923D01*
G37*
%LPD*%
%LPC*%
G36*
X734523Y107500D02*
X734523Y107500D01*
X734523Y114877D01*
X741900Y114877D01*
X741900Y107501D01*
X741899Y107501D01*
X741899Y107500D01*
X734523Y107500D01*
G37*
%LPD*%
%LPC*%
G36*
X651923Y56700D02*
X651923Y56700D01*
X651923Y64077D01*
X659300Y64077D01*
X659300Y56701D01*
X659299Y56701D01*
X659299Y56700D01*
X651923Y56700D01*
G37*
%LPD*%
%LPC*%
G36*
X863923Y107500D02*
X863923Y107500D01*
X863923Y114877D01*
X871300Y114877D01*
X871300Y107501D01*
X871299Y107501D01*
X871299Y107500D01*
X863923Y107500D01*
G37*
%LPD*%
%LPC*%
G36*
X813123Y107500D02*
X813123Y107500D01*
X813123Y114877D01*
X820500Y114877D01*
X820500Y107501D01*
X820499Y107501D01*
X820499Y107500D01*
X813123Y107500D01*
G37*
%LPD*%
%LPC*%
G36*
X734523Y82100D02*
X734523Y82100D01*
X734523Y89477D01*
X741900Y89477D01*
X741900Y82101D01*
X741899Y82101D01*
X741899Y82100D01*
X734523Y82100D01*
G37*
%LPD*%
%LPC*%
G36*
X626523Y107500D02*
X626523Y107500D01*
X626523Y114877D01*
X633900Y114877D01*
X633900Y107501D01*
X633899Y107501D01*
X633899Y107500D01*
X626523Y107500D01*
G37*
%LPD*%
%LPC*%
G36*
X759923Y107500D02*
X759923Y107500D01*
X759923Y114877D01*
X767300Y114877D01*
X767300Y107501D01*
X767299Y107501D01*
X767299Y107500D01*
X759923Y107500D01*
G37*
%LPD*%
%LPC*%
G36*
X838523Y82100D02*
X838523Y82100D01*
X838523Y89477D01*
X845900Y89477D01*
X845900Y82101D01*
X845899Y82101D01*
X845899Y82100D01*
X838523Y82100D01*
G37*
%LPD*%
%LPC*%
G36*
X601123Y107500D02*
X601123Y107500D01*
X601123Y114877D01*
X608500Y114877D01*
X608500Y107501D01*
X608499Y107501D01*
X608499Y107500D01*
X601123Y107500D01*
G37*
%LPD*%
%LPC*%
G36*
X601123Y82100D02*
X601123Y82100D01*
X601123Y89477D01*
X608500Y89477D01*
X608500Y82101D01*
X608499Y82101D01*
X608499Y82100D01*
X601123Y82100D01*
G37*
%LPD*%
%LPC*%
G36*
X651923Y107500D02*
X651923Y107500D01*
X651923Y114877D01*
X659300Y114877D01*
X659300Y107501D01*
X659299Y107501D01*
X659299Y107500D01*
X651923Y107500D01*
G37*
%LPD*%
%LPC*%
G36*
X709123Y107500D02*
X709123Y107500D01*
X709123Y114877D01*
X716500Y114877D01*
X716500Y107501D01*
X716499Y107501D01*
X716499Y107500D01*
X709123Y107500D01*
G37*
%LPD*%
%LPC*%
G36*
X651923Y82100D02*
X651923Y82100D01*
X651923Y89477D01*
X659300Y89477D01*
X659300Y82101D01*
X659299Y82101D01*
X659299Y82100D01*
X651923Y82100D01*
G37*
%LPD*%
%LPC*%
G36*
X838523Y107500D02*
X838523Y107500D01*
X838523Y114877D01*
X845900Y114877D01*
X845900Y107501D01*
X845899Y107501D01*
X845899Y107500D01*
X838523Y107500D01*
G37*
%LPD*%
%LPC*%
G36*
X759923Y82100D02*
X759923Y82100D01*
X759923Y89477D01*
X767300Y89477D01*
X767300Y82101D01*
X767299Y82101D01*
X767299Y82100D01*
X759923Y82100D01*
G37*
%LPD*%
%LPC*%
G36*
X813123Y82100D02*
X813123Y82100D01*
X813123Y89477D01*
X820500Y89477D01*
X820500Y82101D01*
X820499Y82101D01*
X820499Y82100D01*
X813123Y82100D01*
G37*
%LPD*%
%LPC*%
G36*
X734523Y56700D02*
X734523Y56700D01*
X734523Y64077D01*
X741900Y64077D01*
X741900Y56701D01*
X741899Y56701D01*
X741899Y56700D01*
X734523Y56700D01*
G37*
%LPD*%
%LPC*%
G36*
X601123Y56700D02*
X601123Y56700D01*
X601123Y64077D01*
X608500Y64077D01*
X608500Y56701D01*
X608499Y56701D01*
X608499Y56700D01*
X601123Y56700D01*
G37*
%LPD*%
%LPC*%
G36*
X759923Y56700D02*
X759923Y56700D01*
X759923Y64077D01*
X767300Y64077D01*
X767300Y56701D01*
X767299Y56701D01*
X767299Y56700D01*
X759923Y56700D01*
G37*
%LPD*%
%LPC*%
G36*
X863923Y56700D02*
X863923Y56700D01*
X863923Y64077D01*
X871300Y64077D01*
X871300Y56701D01*
X871299Y56701D01*
X871299Y56700D01*
X863923Y56700D01*
G37*
%LPD*%
%LPC*%
G36*
X709123Y56700D02*
X709123Y56700D01*
X709123Y64077D01*
X716500Y64077D01*
X716500Y56701D01*
X716499Y56701D01*
X716499Y56700D01*
X709123Y56700D01*
G37*
%LPD*%
%LPC*%
G36*
X626523Y56700D02*
X626523Y56700D01*
X626523Y64077D01*
X633900Y64077D01*
X633900Y56701D01*
X633899Y56701D01*
X633899Y56700D01*
X626523Y56700D01*
G37*
%LPD*%
%LPC*%
G36*
X813123Y56700D02*
X813123Y56700D01*
X813123Y64077D01*
X820500Y64077D01*
X820500Y56701D01*
X820499Y56701D01*
X820499Y56700D01*
X813123Y56700D01*
G37*
%LPD*%
%LPC*%
G36*
X626523Y82100D02*
X626523Y82100D01*
X626523Y89477D01*
X633900Y89477D01*
X633900Y82101D01*
X633899Y82101D01*
X633899Y82100D01*
X626523Y82100D01*
G37*
%LPD*%
%LPC*%
G36*
X838523Y56700D02*
X838523Y56700D01*
X838523Y64077D01*
X845900Y64077D01*
X845900Y56701D01*
X845899Y56701D01*
X845899Y56700D01*
X838523Y56700D01*
G37*
%LPD*%
%LPC*%
G36*
X863923Y82100D02*
X863923Y82100D01*
X863923Y89477D01*
X871300Y89477D01*
X871300Y82101D01*
X871299Y82101D01*
X871299Y82100D01*
X863923Y82100D01*
G37*
%LPD*%
%LPC*%
G36*
X709123Y82100D02*
X709123Y82100D01*
X709123Y89477D01*
X716500Y89477D01*
X716500Y82101D01*
X716499Y82101D01*
X716499Y82100D01*
X709123Y82100D01*
G37*
%LPD*%
%LPC*%
G36*
X749501Y107500D02*
X749501Y107500D01*
X749501Y107501D01*
X749500Y107501D01*
X749500Y114877D01*
X756877Y114877D01*
X756877Y107500D01*
X749501Y107500D01*
G37*
%LPD*%
%LPC*%
G36*
X853501Y82100D02*
X853501Y82100D01*
X853501Y82101D01*
X853500Y82101D01*
X853500Y89477D01*
X860877Y89477D01*
X860877Y82100D01*
X853501Y82100D01*
G37*
%LPD*%
%LPC*%
G36*
X802701Y56700D02*
X802701Y56700D01*
X802701Y56701D01*
X802700Y56701D01*
X802700Y64077D01*
X810077Y64077D01*
X810077Y56700D01*
X802701Y56700D01*
G37*
%LPD*%
%LPC*%
G36*
X853501Y56700D02*
X853501Y56700D01*
X853501Y56701D01*
X853500Y56701D01*
X853500Y64077D01*
X860877Y64077D01*
X860877Y56700D01*
X853501Y56700D01*
G37*
%LPD*%
%LPC*%
G36*
X828101Y56700D02*
X828101Y56700D01*
X828101Y56701D01*
X828100Y56701D01*
X828100Y64077D01*
X835477Y64077D01*
X835477Y56700D01*
X828101Y56700D01*
G37*
%LPD*%
%LPC*%
G36*
X828101Y107500D02*
X828101Y107500D01*
X828101Y107501D01*
X828100Y107501D01*
X828100Y114877D01*
X835477Y114877D01*
X835477Y107500D01*
X828101Y107500D01*
G37*
%LPD*%
%LPC*%
G36*
X828101Y82100D02*
X828101Y82100D01*
X828101Y82101D01*
X828100Y82101D01*
X828100Y89477D01*
X835477Y89477D01*
X835477Y82100D01*
X828101Y82100D01*
G37*
%LPD*%
%LPC*%
G36*
X749501Y56700D02*
X749501Y56700D01*
X749501Y56701D01*
X749500Y56701D01*
X749500Y64077D01*
X756877Y64077D01*
X756877Y56700D01*
X749501Y56700D01*
G37*
%LPD*%
%LPC*%
G36*
X749501Y82100D02*
X749501Y82100D01*
X749501Y82101D01*
X749500Y82101D01*
X749500Y89477D01*
X756877Y89477D01*
X756877Y82100D01*
X749501Y82100D01*
G37*
%LPD*%
%LPC*%
G36*
X802701Y82100D02*
X802701Y82100D01*
X802701Y82101D01*
X802700Y82101D01*
X802700Y89477D01*
X810077Y89477D01*
X810077Y82100D01*
X802701Y82100D01*
G37*
%LPD*%
%LPC*%
G36*
X802701Y107500D02*
X802701Y107500D01*
X802701Y107501D01*
X802700Y107501D01*
X802700Y114877D01*
X810077Y114877D01*
X810077Y107500D01*
X802701Y107500D01*
G37*
%LPD*%
%LPC*%
G36*
X853501Y107500D02*
X853501Y107500D01*
X853501Y107501D01*
X853500Y107501D01*
X853500Y114877D01*
X860877Y114877D01*
X860877Y107500D01*
X853501Y107500D01*
G37*
%LPD*%
%LPC*%
G36*
X641501Y107500D02*
X641501Y107500D01*
X641501Y107501D01*
X641500Y107501D01*
X641500Y114877D01*
X648877Y114877D01*
X648877Y107500D01*
X641501Y107500D01*
G37*
%LPD*%
%LPC*%
G36*
X724101Y107500D02*
X724101Y107500D01*
X724101Y107501D01*
X724100Y107501D01*
X724100Y114877D01*
X731477Y114877D01*
X731477Y107500D01*
X724101Y107500D01*
G37*
%LPD*%
%LPC*%
G36*
X590701Y82100D02*
X590701Y82100D01*
X590701Y82101D01*
X590700Y82101D01*
X590700Y89477D01*
X598077Y89477D01*
X598077Y82100D01*
X590701Y82100D01*
G37*
%LPD*%
%LPC*%
G36*
X616101Y107500D02*
X616101Y107500D01*
X616101Y107501D01*
X616100Y107501D01*
X616100Y114877D01*
X623477Y114877D01*
X623477Y107500D01*
X616101Y107500D01*
G37*
%LPD*%
%LPC*%
G36*
X698701Y107500D02*
X698701Y107500D01*
X698701Y107501D01*
X698700Y107501D01*
X698700Y114877D01*
X706077Y114877D01*
X706077Y107500D01*
X698701Y107500D01*
G37*
%LPD*%
%LPC*%
G36*
X590701Y56700D02*
X590701Y56700D01*
X590701Y56701D01*
X590700Y56701D01*
X590700Y64077D01*
X598077Y64077D01*
X598077Y56700D01*
X590701Y56700D01*
G37*
%LPD*%
%LPC*%
G36*
X724101Y82100D02*
X724101Y82100D01*
X724101Y82101D01*
X724100Y82101D01*
X724100Y89477D01*
X731477Y89477D01*
X731477Y82100D01*
X724101Y82100D01*
G37*
%LPD*%
%LPC*%
G36*
X698701Y82100D02*
X698701Y82100D01*
X698701Y82101D01*
X698700Y82101D01*
X698700Y89477D01*
X706077Y89477D01*
X706077Y82100D01*
X698701Y82100D01*
G37*
%LPD*%
%LPC*%
G36*
X590701Y107500D02*
X590701Y107500D01*
X590701Y107501D01*
X590700Y107501D01*
X590700Y114877D01*
X598077Y114877D01*
X598077Y107500D01*
X590701Y107500D01*
G37*
%LPD*%
%LPC*%
G36*
X724101Y56700D02*
X724101Y56700D01*
X724101Y56701D01*
X724100Y56701D01*
X724100Y64077D01*
X731477Y64077D01*
X731477Y56700D01*
X724101Y56700D01*
G37*
%LPD*%
%LPC*%
G36*
X698701Y56700D02*
X698701Y56700D01*
X698701Y56701D01*
X698700Y56701D01*
X698700Y64077D01*
X706077Y64077D01*
X706077Y56700D01*
X698701Y56700D01*
G37*
%LPD*%
%LPC*%
G36*
X616101Y56700D02*
X616101Y56700D01*
X616101Y56701D01*
X616100Y56701D01*
X616100Y64077D01*
X623477Y64077D01*
X623477Y56700D01*
X616101Y56700D01*
G37*
%LPD*%
%LPC*%
G36*
X641501Y82100D02*
X641501Y82100D01*
X641501Y82101D01*
X641500Y82101D01*
X641500Y89477D01*
X648877Y89477D01*
X648877Y82100D01*
X641501Y82100D01*
G37*
%LPD*%
%LPC*%
G36*
X641501Y56700D02*
X641501Y56700D01*
X641501Y56701D01*
X641500Y56701D01*
X641500Y64077D01*
X648877Y64077D01*
X648877Y56700D01*
X641501Y56700D01*
G37*
%LPD*%
%LPC*%
G36*
X616101Y82100D02*
X616101Y82100D01*
X616101Y82101D01*
X616100Y82101D01*
X616100Y89477D01*
X623477Y89477D01*
X623477Y82100D01*
X616101Y82100D01*
G37*
%LPD*%
%LPC*%
G36*
X459199Y27399D02*
X459199Y27399D01*
X459199Y39366D01*
X459275Y39351D01*
X460569Y38815D01*
X461734Y38037D01*
X462725Y37046D01*
X463503Y35881D01*
X464039Y34587D01*
X464313Y33213D01*
X464313Y27399D01*
X459199Y27399D01*
G37*
%LPD*%
%LPC*%
G36*
X459199Y23401D02*
X459199Y23401D01*
X464313Y23401D01*
X464313Y17587D01*
X464039Y16213D01*
X463503Y14919D01*
X462725Y13754D01*
X461734Y12763D01*
X460569Y11985D01*
X459275Y11449D01*
X459199Y11434D01*
X459199Y23401D01*
G37*
%LPD*%
%LPC*%
G36*
X450087Y27399D02*
X450087Y27399D01*
X450087Y33213D01*
X450361Y34587D01*
X450897Y35881D01*
X451675Y37046D01*
X452666Y38037D01*
X453831Y38815D01*
X455125Y39351D01*
X455201Y39366D01*
X455201Y27399D01*
X450087Y27399D01*
G37*
%LPD*%
%LPC*%
G36*
X455125Y11449D02*
X455125Y11449D01*
X453831Y11985D01*
X452666Y12763D01*
X451675Y13754D01*
X450897Y14919D01*
X450361Y16213D01*
X450087Y17587D01*
X450087Y23401D01*
X455201Y23401D01*
X455201Y11434D01*
X455125Y11449D01*
G37*
%LPD*%
%LPC*%
G36*
X496631Y119431D02*
X496631Y119431D01*
X496631Y126300D01*
X503499Y126300D01*
X503500Y126299D01*
X503500Y119431D01*
X496631Y119431D01*
G37*
%LPD*%
%LPC*%
G36*
X547431Y94031D02*
X547431Y94031D01*
X547431Y100900D01*
X554299Y100900D01*
X554300Y100899D01*
X554300Y94031D01*
X547431Y94031D01*
G37*
%LPD*%
%LPC*%
G36*
X496631Y94031D02*
X496631Y94031D01*
X496631Y100900D01*
X503499Y100900D01*
X503500Y100899D01*
X503500Y94031D01*
X496631Y94031D01*
G37*
%LPD*%
%LPC*%
G36*
X522031Y119431D02*
X522031Y119431D01*
X522031Y126300D01*
X528899Y126300D01*
X528900Y126299D01*
X528900Y119431D01*
X522031Y119431D01*
G37*
%LPD*%
%LPC*%
G36*
X496631Y68631D02*
X496631Y68631D01*
X496631Y75500D01*
X503499Y75500D01*
X503500Y75499D01*
X503500Y68631D01*
X496631Y68631D01*
G37*
%LPD*%
%LPC*%
G36*
X522031Y68631D02*
X522031Y68631D01*
X522031Y75500D01*
X528899Y75500D01*
X528900Y75499D01*
X528900Y68631D01*
X522031Y68631D01*
G37*
%LPD*%
%LPC*%
G36*
X547431Y68631D02*
X547431Y68631D01*
X547431Y75500D01*
X554299Y75500D01*
X554300Y75499D01*
X554300Y68631D01*
X547431Y68631D01*
G37*
%LPD*%
%LPC*%
G36*
X522031Y94031D02*
X522031Y94031D01*
X522031Y100900D01*
X528899Y100900D01*
X528900Y100899D01*
X528900Y94031D01*
X522031Y94031D01*
G37*
%LPD*%
%LPC*%
G36*
X547431Y119431D02*
X547431Y119431D01*
X547431Y126300D01*
X554299Y126300D01*
X554300Y126299D01*
X554300Y119431D01*
X547431Y119431D01*
G37*
%LPD*%
%LPC*%
G36*
X511100Y68631D02*
X511100Y68631D01*
X511100Y75499D01*
X511101Y75500D01*
X517969Y75500D01*
X517969Y68631D01*
X511100Y68631D01*
G37*
%LPD*%
%LPC*%
G36*
X536500Y94031D02*
X536500Y94031D01*
X536500Y100899D01*
X536501Y100900D01*
X543369Y100900D01*
X543369Y94031D01*
X536500Y94031D01*
G37*
%LPD*%
%LPC*%
G36*
X536500Y119431D02*
X536500Y119431D01*
X536500Y126299D01*
X536501Y126300D01*
X543369Y126300D01*
X543369Y119431D01*
X536500Y119431D01*
G37*
%LPD*%
%LPC*%
G36*
X485700Y119431D02*
X485700Y119431D01*
X485700Y126299D01*
X485701Y126300D01*
X492569Y126300D01*
X492569Y119431D01*
X485700Y119431D01*
G37*
%LPD*%
%LPC*%
G36*
X511100Y94031D02*
X511100Y94031D01*
X511100Y100899D01*
X511101Y100900D01*
X517969Y100900D01*
X517969Y94031D01*
X511100Y94031D01*
G37*
%LPD*%
%LPC*%
G36*
X485700Y94031D02*
X485700Y94031D01*
X485700Y100899D01*
X485701Y100900D01*
X492569Y100900D01*
X492569Y94031D01*
X485700Y94031D01*
G37*
%LPD*%
%LPC*%
G36*
X511100Y119431D02*
X511100Y119431D01*
X511100Y126299D01*
X511101Y126300D01*
X517969Y126300D01*
X517969Y119431D01*
X511100Y119431D01*
G37*
%LPD*%
%LPC*%
G36*
X485700Y68631D02*
X485700Y68631D01*
X485700Y75499D01*
X485701Y75500D01*
X492569Y75500D01*
X492569Y68631D01*
X485700Y68631D01*
G37*
%LPD*%
%LPC*%
G36*
X536500Y68631D02*
X536500Y68631D01*
X536500Y75499D01*
X536501Y75500D01*
X543369Y75500D01*
X543369Y68631D01*
X536500Y68631D01*
G37*
%LPD*%
%LPC*%
G36*
X522031Y83100D02*
X522031Y83100D01*
X522031Y89969D01*
X528900Y89969D01*
X528900Y83101D01*
X528899Y83100D01*
X522031Y83100D01*
G37*
%LPD*%
%LPC*%
G36*
X522031Y57700D02*
X522031Y57700D01*
X522031Y64569D01*
X528900Y64569D01*
X528900Y57701D01*
X528899Y57700D01*
X522031Y57700D01*
G37*
%LPD*%
%LPC*%
G36*
X547431Y57700D02*
X547431Y57700D01*
X547431Y64569D01*
X554300Y64569D01*
X554300Y57701D01*
X554299Y57700D01*
X547431Y57700D01*
G37*
%LPD*%
%LPC*%
G36*
X496631Y57700D02*
X496631Y57700D01*
X496631Y64569D01*
X503500Y64569D01*
X503500Y57701D01*
X503499Y57700D01*
X496631Y57700D01*
G37*
%LPD*%
%LPC*%
G36*
X547431Y108500D02*
X547431Y108500D01*
X547431Y115369D01*
X554300Y115369D01*
X554300Y108501D01*
X554299Y108500D01*
X547431Y108500D01*
G37*
%LPD*%
%LPC*%
G36*
X547431Y83100D02*
X547431Y83100D01*
X547431Y89969D01*
X554300Y89969D01*
X554300Y83101D01*
X554299Y83100D01*
X547431Y83100D01*
G37*
%LPD*%
%LPC*%
G36*
X522031Y108500D02*
X522031Y108500D01*
X522031Y115369D01*
X528900Y115369D01*
X528900Y108501D01*
X528899Y108500D01*
X522031Y108500D01*
G37*
%LPD*%
%LPC*%
G36*
X496631Y83100D02*
X496631Y83100D01*
X496631Y89969D01*
X503500Y89969D01*
X503500Y83101D01*
X503499Y83100D01*
X496631Y83100D01*
G37*
%LPD*%
%LPC*%
G36*
X496631Y108500D02*
X496631Y108500D01*
X496631Y115369D01*
X503500Y115369D01*
X503500Y108501D01*
X503499Y108500D01*
X496631Y108500D01*
G37*
%LPD*%
%LPC*%
G36*
X511101Y83100D02*
X511101Y83100D01*
X511100Y83101D01*
X511100Y89969D01*
X517969Y89969D01*
X517969Y83100D01*
X511101Y83100D01*
G37*
%LPD*%
%LPC*%
G36*
X536501Y108500D02*
X536501Y108500D01*
X536500Y108501D01*
X536500Y115369D01*
X543369Y115369D01*
X543369Y108500D01*
X536501Y108500D01*
G37*
%LPD*%
%LPC*%
G36*
X485701Y108500D02*
X485701Y108500D01*
X485700Y108501D01*
X485700Y115369D01*
X492569Y115369D01*
X492569Y108500D01*
X485701Y108500D01*
G37*
%LPD*%
%LPC*%
G36*
X485701Y83100D02*
X485701Y83100D01*
X485700Y83101D01*
X485700Y89969D01*
X492569Y89969D01*
X492569Y83100D01*
X485701Y83100D01*
G37*
%LPD*%
%LPC*%
G36*
X536501Y57700D02*
X536501Y57700D01*
X536500Y57701D01*
X536500Y64569D01*
X543369Y64569D01*
X543369Y57700D01*
X536501Y57700D01*
G37*
%LPD*%
%LPC*%
G36*
X511101Y108500D02*
X511101Y108500D01*
X511100Y108501D01*
X511100Y115369D01*
X517969Y115369D01*
X517969Y108500D01*
X511101Y108500D01*
G37*
%LPD*%
%LPC*%
G36*
X536501Y83100D02*
X536501Y83100D01*
X536500Y83101D01*
X536500Y89969D01*
X543369Y89969D01*
X543369Y83100D01*
X536501Y83100D01*
G37*
%LPD*%
%LPC*%
G36*
X485701Y57700D02*
X485701Y57700D01*
X485700Y57701D01*
X485700Y64569D01*
X492569Y64569D01*
X492569Y57700D01*
X485701Y57700D01*
G37*
%LPD*%
%LPC*%
G36*
X511101Y57700D02*
X511101Y57700D01*
X511100Y57701D01*
X511100Y64569D01*
X517969Y64569D01*
X517969Y57700D01*
X511101Y57700D01*
G37*
%LPD*%
%LPC*%
G36*
X1079499Y73001D02*
X1079499Y73001D01*
X1086699Y73001D01*
X1086667Y72799D01*
X1086210Y71392D01*
X1085538Y70074D01*
X1084669Y68877D01*
X1083623Y67831D01*
X1082426Y66962D01*
X1081108Y66290D01*
X1079701Y65833D01*
X1079499Y65801D01*
X1079499Y73001D01*
G37*
%LPD*%
%LPC*%
G36*
X599599Y90999D02*
X599599Y90999D01*
X599599Y91001D01*
X599601Y91001D01*
X599601Y90999D01*
X599599Y90999D01*
G37*
%LPD*%
%LPC*%
G36*
X811599Y90999D02*
X811599Y90999D01*
X811599Y91001D01*
X811601Y91001D01*
X811601Y90999D01*
X811599Y90999D01*
G37*
%LPD*%
%LPC*%
G36*
X836999Y90999D02*
X836999Y90999D01*
X836999Y91001D01*
X837001Y91001D01*
X837001Y90999D01*
X836999Y90999D01*
G37*
%LPD*%
%LPC*%
G36*
X862399Y90999D02*
X862399Y90999D01*
X862399Y91001D01*
X862401Y91001D01*
X862401Y90999D01*
X862399Y90999D01*
G37*
%LPD*%
%LPC*%
G36*
X624999Y90999D02*
X624999Y90999D01*
X624999Y91001D01*
X625001Y91001D01*
X625001Y90999D01*
X624999Y90999D01*
G37*
%LPD*%
%LPC*%
G36*
X519999Y66599D02*
X519999Y66599D01*
X519999Y66601D01*
X520001Y66601D01*
X520001Y66599D01*
X519999Y66599D01*
G37*
%LPD*%
%LPC*%
G36*
X494599Y66599D02*
X494599Y66599D01*
X494599Y66601D01*
X494601Y66601D01*
X494601Y66599D01*
X494599Y66599D01*
G37*
%LPD*%
%LPC*%
G36*
X545399Y66599D02*
X545399Y66599D01*
X545399Y66601D01*
X545401Y66601D01*
X545401Y66599D01*
X545399Y66599D01*
G37*
%LPD*%
%LPC*%
G36*
X836999Y65599D02*
X836999Y65599D01*
X836999Y65601D01*
X837001Y65601D01*
X837001Y65599D01*
X836999Y65599D01*
G37*
%LPD*%
%LPC*%
G36*
X811599Y65599D02*
X811599Y65599D01*
X811599Y65601D01*
X811601Y65601D01*
X811601Y65599D01*
X811599Y65599D01*
G37*
%LPD*%
%LPC*%
G36*
X732999Y65599D02*
X732999Y65599D01*
X732999Y65601D01*
X733001Y65601D01*
X733001Y65599D01*
X732999Y65599D01*
G37*
%LPD*%
%LPC*%
G36*
X624999Y65599D02*
X624999Y65599D01*
X624999Y65601D01*
X625001Y65601D01*
X625001Y65599D01*
X624999Y65599D01*
G37*
%LPD*%
%LPC*%
G36*
X650399Y65599D02*
X650399Y65599D01*
X650399Y65601D01*
X650401Y65601D01*
X650401Y65599D01*
X650399Y65599D01*
G37*
%LPD*%
%LPC*%
G36*
X599599Y65599D02*
X599599Y65599D01*
X599599Y65601D01*
X599601Y65601D01*
X599601Y65599D01*
X599599Y65599D01*
G37*
%LPD*%
%LPC*%
G36*
X758399Y65599D02*
X758399Y65599D01*
X758399Y65601D01*
X758401Y65601D01*
X758401Y65599D01*
X758399Y65599D01*
G37*
%LPD*%
%LPC*%
G36*
X707599Y65599D02*
X707599Y65599D01*
X707599Y65601D01*
X707601Y65601D01*
X707601Y65599D01*
X707599Y65599D01*
G37*
%LPD*%
%LPC*%
G36*
X862399Y65599D02*
X862399Y65599D01*
X862399Y65601D01*
X862401Y65601D01*
X862401Y65599D01*
X862399Y65599D01*
G37*
%LPD*%
%LPC*%
G36*
X758399Y90999D02*
X758399Y90999D01*
X758399Y91001D01*
X758401Y91001D01*
X758401Y90999D01*
X758399Y90999D01*
G37*
%LPD*%
%LPC*%
G36*
X290399Y153599D02*
X290399Y153599D01*
X290399Y153601D01*
X290401Y153601D01*
X290401Y153599D01*
X290399Y153599D01*
G37*
%LPD*%
%LPC*%
G36*
X650399Y90999D02*
X650399Y90999D01*
X650399Y91001D01*
X650401Y91001D01*
X650401Y90999D01*
X650399Y90999D01*
G37*
%LPD*%
%LPC*%
G36*
X707599Y90999D02*
X707599Y90999D01*
X707599Y91001D01*
X707601Y91001D01*
X707601Y90999D01*
X707599Y90999D01*
G37*
%LPD*%
%LPC*%
G36*
X494599Y91999D02*
X494599Y91999D01*
X494599Y92001D01*
X494601Y92001D01*
X494601Y91999D01*
X494599Y91999D01*
G37*
%LPD*%
%LPC*%
G36*
X519999Y91999D02*
X519999Y91999D01*
X519999Y92001D01*
X520001Y92001D01*
X520001Y91999D01*
X519999Y91999D01*
G37*
%LPD*%
%LPC*%
G36*
X545399Y91999D02*
X545399Y91999D01*
X545399Y92001D01*
X545401Y92001D01*
X545401Y91999D01*
X545399Y91999D01*
G37*
%LPD*%
%LPC*%
G36*
X239599Y153599D02*
X239599Y153599D01*
X239599Y153601D01*
X239601Y153601D01*
X239601Y153599D01*
X239599Y153599D01*
G37*
%LPD*%
%LPC*%
G36*
X836999Y116399D02*
X836999Y116399D01*
X836999Y116401D01*
X837001Y116401D01*
X837001Y116399D01*
X836999Y116399D01*
G37*
%LPD*%
%LPC*%
G36*
X862399Y116399D02*
X862399Y116399D01*
X862399Y116401D01*
X862401Y116401D01*
X862401Y116399D01*
X862399Y116399D01*
G37*
%LPD*%
%LPC*%
G36*
X599599Y116399D02*
X599599Y116399D01*
X599599Y116401D01*
X599601Y116401D01*
X599601Y116399D01*
X599599Y116399D01*
G37*
%LPD*%
%LPC*%
G36*
X758399Y116399D02*
X758399Y116399D01*
X758399Y116401D01*
X758401Y116401D01*
X758401Y116399D01*
X758399Y116399D01*
G37*
%LPD*%
%LPC*%
G36*
X811599Y116399D02*
X811599Y116399D01*
X811599Y116401D01*
X811601Y116401D01*
X811601Y116399D01*
X811599Y116399D01*
G37*
%LPD*%
%LPC*%
G36*
X732999Y116399D02*
X732999Y116399D01*
X732999Y116401D01*
X733001Y116401D01*
X733001Y116399D01*
X732999Y116399D01*
G37*
%LPD*%
%LPC*%
G36*
X707599Y116399D02*
X707599Y116399D01*
X707599Y116401D01*
X707601Y116401D01*
X707601Y116399D01*
X707599Y116399D01*
G37*
%LPD*%
%LPC*%
G36*
X624999Y116399D02*
X624999Y116399D01*
X624999Y116401D01*
X625001Y116401D01*
X625001Y116399D01*
X624999Y116399D01*
G37*
%LPD*%
%LPC*%
G36*
X650399Y116399D02*
X650399Y116399D01*
X650399Y116401D01*
X650401Y116401D01*
X650401Y116399D01*
X650399Y116399D01*
G37*
%LPD*%
%LPC*%
G36*
X545399Y117399D02*
X545399Y117399D01*
X545399Y117401D01*
X545401Y117401D01*
X545401Y117399D01*
X545399Y117399D01*
G37*
%LPD*%
%LPC*%
G36*
X519999Y117399D02*
X519999Y117399D01*
X519999Y117401D01*
X520001Y117401D01*
X520001Y117399D01*
X519999Y117399D01*
G37*
%LPD*%
%LPC*%
G36*
X494599Y117399D02*
X494599Y117399D01*
X494599Y117401D01*
X494601Y117401D01*
X494601Y117399D01*
X494599Y117399D01*
G37*
%LPD*%
%LPC*%
G36*
X239599Y204399D02*
X239599Y204399D01*
X239599Y204401D01*
X239601Y204401D01*
X239601Y204399D01*
X239599Y204399D01*
G37*
%LPD*%
%LPC*%
G36*
X290399Y204399D02*
X290399Y204399D01*
X290399Y204401D01*
X290401Y204401D01*
X290401Y204399D01*
X290399Y204399D01*
G37*
%LPD*%
%LPC*%
G36*
X264999Y204399D02*
X264999Y204399D01*
X264999Y204401D01*
X265001Y204401D01*
X265001Y204399D01*
X264999Y204399D01*
G37*
%LPD*%
%LPC*%
G36*
X239599Y178999D02*
X239599Y178999D01*
X239599Y179001D01*
X239601Y179001D01*
X239601Y178999D01*
X239599Y178999D01*
G37*
%LPD*%
%LPC*%
G36*
X290399Y178999D02*
X290399Y178999D01*
X290399Y179001D01*
X290401Y179001D01*
X290401Y178999D01*
X290399Y178999D01*
G37*
%LPD*%
%LPC*%
G36*
X264999Y178999D02*
X264999Y178999D01*
X264999Y179001D01*
X265001Y179001D01*
X265001Y178999D01*
X264999Y178999D01*
G37*
%LPD*%
%LPC*%
G36*
X457199Y25399D02*
X457199Y25399D01*
X457199Y25401D01*
X457201Y25401D01*
X457201Y25399D01*
X457199Y25399D01*
G37*
%LPD*%
%LPC*%
G36*
X264999Y153599D02*
X264999Y153599D01*
X264999Y153601D01*
X265001Y153601D01*
X265001Y153599D01*
X264999Y153599D01*
G37*
%LPD*%
%LPC*%
G36*
X732999Y90999D02*
X732999Y90999D01*
X732999Y91001D01*
X733001Y91001D01*
X733001Y90999D01*
X732999Y90999D01*
G37*
%LPD*%
D10*
X635000Y515112D02*
X635000Y500888D01*
X609600Y500888D02*
X609600Y515112D01*
X584200Y515112D02*
X584200Y500888D01*
X558800Y500888D02*
X558800Y515112D01*
X533400Y515112D02*
X533400Y500888D01*
X508000Y500888D02*
X508000Y515112D01*
X482600Y515112D02*
X482600Y500888D01*
X457200Y500888D02*
X457200Y515112D01*
X863600Y515112D02*
X863600Y500888D01*
X838200Y500888D02*
X838200Y515112D01*
X812800Y515112D02*
X812800Y500888D01*
X787400Y500888D02*
X787400Y515112D01*
X762000Y515112D02*
X762000Y500888D01*
X736600Y500888D02*
X736600Y515112D01*
X711200Y515112D02*
X711200Y500888D01*
X685800Y500888D02*
X685800Y515112D01*
X187960Y515112D02*
X187960Y500888D01*
X213360Y500888D02*
X213360Y515112D01*
X238760Y515112D02*
X238760Y500888D01*
X264160Y500888D02*
X264160Y515112D01*
X289560Y515112D02*
X289560Y500888D01*
X314960Y500888D02*
X314960Y515112D01*
X340360Y515112D02*
X340360Y500888D01*
X365760Y500888D02*
X365760Y515112D01*
X391160Y515112D02*
X391160Y500888D01*
X416560Y500888D02*
X416560Y515112D01*
X279400Y32512D02*
X279400Y18288D01*
X304800Y18288D02*
X304800Y32512D01*
X330200Y32512D02*
X330200Y18288D01*
X355600Y18288D02*
X355600Y32512D01*
X381000Y32512D02*
X381000Y18288D01*
X406400Y18288D02*
X406400Y32512D01*
X431800Y32512D02*
X431800Y18288D01*
X457200Y18288D02*
X457200Y32512D01*
D11*
X599600Y65600D03*
X625000Y65600D03*
X650400Y65600D03*
X650400Y91000D03*
X625000Y91000D03*
X599600Y91000D03*
X599600Y116400D03*
X625000Y116400D03*
X650400Y116400D03*
X494600Y66600D03*
X520000Y66600D03*
X545400Y66600D03*
X545400Y92000D03*
X520000Y92000D03*
X494600Y92000D03*
X494600Y117400D03*
X520000Y117400D03*
X545400Y117400D03*
X811600Y65600D03*
X837000Y65600D03*
X862400Y65600D03*
X862400Y91000D03*
X837000Y91000D03*
X811600Y91000D03*
X811600Y116400D03*
X837000Y116400D03*
X862400Y116400D03*
X707600Y65600D03*
X733000Y65600D03*
X758400Y65600D03*
X758400Y91000D03*
X733000Y91000D03*
X707600Y91000D03*
X707600Y116400D03*
X733000Y116400D03*
X758400Y116400D03*
X239600Y333600D03*
X265000Y333600D03*
X290400Y333600D03*
X290400Y359000D03*
X265000Y359000D03*
X239600Y359000D03*
X239600Y384400D03*
X265000Y384400D03*
X290400Y384400D03*
X239600Y153600D03*
X265000Y153600D03*
X290400Y153600D03*
X290400Y179000D03*
X265000Y179000D03*
X239600Y179000D03*
X239600Y204400D03*
X265000Y204400D03*
X290400Y204400D03*
D12*
X1077500Y75000D03*
X1052100Y75000D03*
X1077500Y100400D03*
X1052100Y100400D03*
X1077500Y125800D03*
X1052100Y125800D03*
X1077500Y151200D03*
X1052100Y151200D03*
X1077500Y176600D03*
X1052100Y176600D03*
X1102500Y100000D03*
X1102500Y74600D03*
X939800Y483100D03*
X965200Y483100D03*
X939800Y457700D03*
X965200Y457700D03*
X939800Y432300D03*
X965200Y432300D03*
X939800Y406900D03*
X965200Y406900D03*
D13*
X347000Y297000D03*
X347000Y247000D03*
D14*
X460000Y106000D03*
X460000Y83000D03*
X467000Y133000D03*
X459000Y133000D03*
X451000Y133000D03*
X443000Y133000D03*
X451000Y141000D03*
X459000Y141000D03*
X467000Y141000D03*
X443000Y141000D03*
X417000Y419000D03*
X417000Y426000D03*
D15*
X1077500Y151200D02*
X1077500Y125800D01*
X1077500Y100400D01*
D14*
X681500Y382500D03*
D16*
X681500Y279000D01*
X680000Y277500D01*
D14*
X680000Y277500D03*
X270000Y85000D03*
X335000Y117000D03*
X349000Y117000D03*
X349000Y108000D03*
X335000Y108000D03*
X335000Y98000D03*
X349000Y98000D03*
D17*
X264160Y476160D02*
X264160Y508000D01*
X264160Y476160D02*
X264000Y476000D01*
D14*
X195000Y479000D03*
X211000Y479000D03*
X230000Y479000D03*
X248000Y479000D03*
X432000Y97000D03*
D15*
X432000Y25600D02*
X431800Y25400D01*
X416000Y25400D01*
X406400Y25400D01*
X416000Y25400D02*
X416000Y81000D01*
X432000Y97000D01*
X416000Y81000D02*
X355000Y81000D01*
X347000Y89000D01*
X349000Y91000D01*
X349000Y98000D01*
D14*
X797500Y460000D03*
X482500Y460000D03*
D17*
X797500Y460000D01*
D14*
X631500Y474500D03*
D17*
X642500Y482500D02*
X642600Y482600D01*
X639600Y482600D01*
X631500Y474500D01*
X939300Y482600D02*
X939800Y483100D01*
X879659Y482600D02*
X642600Y482600D01*
X879659Y482600D02*
X881659Y480600D01*
X887341Y480600D01*
X889341Y482600D01*
X939300Y482600D01*
D14*
X896000Y511000D03*
D17*
X964000Y511000D01*
X965000Y512000D01*
D14*
X965000Y512000D03*
X610000Y452500D03*
D17*
X834699Y452500D01*
X836865Y454666D01*
X936766Y454666D02*
X939800Y457700D01*
X936766Y454666D02*
X836865Y454666D01*
D14*
X822500Y460000D03*
D17*
X920000Y460000D01*
X924000Y464000D01*
X924000Y469000D01*
D14*
X924000Y469000D03*
X929000Y503000D03*
D17*
X975000Y503000D01*
X971700Y457700D02*
X965200Y457700D01*
X975700Y457700D01*
X981000Y463000D01*
X981000Y497000D01*
X975000Y503000D01*
D14*
X512500Y467500D03*
D17*
X725000Y467500D01*
X742801Y467500D01*
X744967Y465334D01*
X755334Y465334D02*
X757500Y467500D01*
X755334Y465334D02*
X744967Y465334D01*
D14*
X907500Y467500D03*
X912500Y432500D03*
D17*
X913200Y431800D01*
X907500Y467500D02*
X757500Y467500D01*
X912500Y432500D02*
X939600Y432500D01*
X939800Y432300D01*
X725000Y467500D02*
X725000Y472000D01*
X723000Y474000D01*
D14*
X723000Y474000D03*
X537500Y477500D03*
X889000Y410000D03*
X884500Y487458D03*
D17*
X884024Y487934D01*
X542166Y472834D02*
X537500Y477500D01*
X889000Y410000D02*
X936700Y410000D01*
X939800Y406900D01*
X617834Y472834D02*
X542166Y472834D01*
X617834Y472834D02*
X632934Y487934D01*
X884024Y487934D01*
D14*
X747500Y472500D03*
D17*
X752500Y475000D01*
X892500Y475000D01*
D14*
X892500Y475000D03*
X900000Y395000D03*
D17*
X906000Y389000D01*
X965200Y396200D02*
X965200Y406900D01*
X958000Y389000D02*
X906000Y389000D01*
X958000Y389000D02*
X965200Y396200D01*
D14*
X570000Y372000D03*
X560000Y425000D03*
X378000Y488000D03*
D17*
X544500Y440500D02*
X560000Y425000D01*
X397000Y488000D02*
X378000Y488000D01*
X397000Y488000D02*
X444666Y440334D01*
X544334Y440334D02*
X544500Y440500D01*
X544334Y440334D02*
X444666Y440334D01*
D14*
X585000Y280000D03*
X600000Y280000D03*
X615000Y280000D03*
X630000Y280000D03*
X585000Y265000D03*
X600000Y265000D03*
X615000Y265000D03*
X630000Y265000D03*
X585000Y250000D03*
X600000Y250000D03*
X615000Y250000D03*
X630000Y250000D03*
X585000Y235000D03*
X600000Y235000D03*
X615000Y235000D03*
X630000Y235000D03*
X590000Y186000D03*
X639000Y187000D03*
X646000Y382000D03*
D18*
X646000Y296000D01*
X630000Y280000D01*
D14*
X505000Y280000D03*
X520000Y280000D03*
X535000Y280000D03*
X550000Y280000D03*
X505000Y265000D03*
X520000Y265000D03*
X535000Y265000D03*
X550000Y265000D03*
X505000Y250000D03*
X520000Y250000D03*
X535000Y250000D03*
X550000Y250000D03*
X505000Y235000D03*
X520000Y235000D03*
X535000Y235000D03*
X550000Y235000D03*
X500000Y186000D03*
X552000Y187000D03*
X494000Y380000D03*
D18*
X494000Y291000D01*
X505000Y280000D01*
D14*
X382000Y430000D03*
X534000Y423000D03*
D17*
X393913Y430000D02*
X382000Y430000D01*
X393913Y430000D02*
X407439Y443526D01*
X424561Y443526D01*
X438753Y429334D01*
X498209Y423000D02*
X534000Y423000D01*
X498209Y423000D02*
X491875Y429334D01*
X438753Y429334D01*
D14*
X375000Y440000D03*
X608000Y425000D03*
D17*
X608000Y426000D01*
X557000Y418000D02*
X540000Y435000D01*
X562841Y418142D02*
X566858Y422159D01*
X557142Y418142D02*
X557000Y418000D01*
X566858Y427858D02*
X577000Y438000D01*
X562841Y418142D02*
X557142Y418142D01*
X566858Y422159D02*
X566858Y427858D01*
X577000Y438000D02*
X596000Y438000D01*
X608000Y426000D01*
X396370Y440000D02*
X375000Y440000D01*
X396370Y440000D02*
X405230Y448860D01*
X428140Y448860D01*
X442000Y435000D01*
X540000Y435000D01*
D14*
X540000Y368000D03*
X411000Y373000D03*
D17*
X431000Y393000D01*
X529500Y393000D02*
X540000Y382500D01*
X529500Y393000D02*
X431000Y393000D01*
X540000Y382500D02*
X540000Y368000D01*
D14*
X590000Y369000D03*
X331000Y413000D03*
D17*
X481159Y399142D02*
X508858Y399142D01*
X590000Y369000D02*
X591000Y370000D01*
X509150Y398850D02*
X508858Y399142D01*
X509150Y398850D02*
X532630Y398850D01*
X552480Y379000D02*
X587000Y379000D01*
X552480Y379000D02*
X532630Y398850D01*
X587000Y379000D02*
X591000Y375000D01*
X591000Y370000D01*
X420142Y432858D02*
X411858Y432858D01*
X392000Y413000D01*
X420142Y432858D02*
X454000Y399000D01*
X481017Y399000D01*
X481159Y399142D01*
X392000Y413000D02*
X331000Y413000D01*
D14*
X658500Y444000D03*
X560000Y449000D03*
D17*
X565000Y444000D02*
X658500Y444000D01*
X565000Y444000D02*
X560000Y449000D01*
D14*
X780000Y397500D03*
X662000Y515000D03*
D17*
X628088Y548912D01*
X379000Y548912D01*
X352000Y521912D01*
X352000Y479000D01*
X352000Y476000D01*
D14*
X352000Y479000D03*
X747500Y419500D03*
X484000Y417000D03*
D17*
X536757Y409810D02*
X549233Y397334D01*
X536757Y409810D02*
X491190Y409810D01*
X549233Y397334D02*
X737000Y397334D01*
X747500Y407834D01*
X747500Y419500D01*
X491190Y409810D02*
X484000Y417000D01*
D14*
X484000Y406000D03*
D17*
X534548Y404476D02*
X534840Y404184D01*
X535512Y403512D02*
X547024Y392000D01*
X774000Y392000D02*
X785000Y381000D01*
X815000Y381000D01*
X815000Y371000D02*
X815000Y370000D01*
X774000Y392000D02*
X547024Y392000D01*
D14*
X815000Y371000D03*
D17*
X815000Y381000D01*
X485524Y404476D02*
X484000Y406000D01*
X485524Y404476D02*
X511067Y404476D01*
X511359Y404184D01*
X534840Y404184D02*
X535512Y403512D01*
X534840Y404184D02*
X511359Y404184D01*
D14*
X299000Y414000D03*
X805000Y392500D03*
D17*
X322301Y414000D02*
X299000Y414000D01*
X322301Y414000D02*
X328651Y420349D01*
X744659Y426358D02*
X750341Y426358D01*
X744659Y426358D02*
X739651Y421349D01*
X750341Y426358D02*
X765365Y411334D01*
X786166Y411334D01*
X805000Y392500D01*
X538967Y415144D02*
X498522Y415144D01*
X538967Y415144D02*
X551443Y402668D01*
X733000Y402668D01*
X739651Y409319D01*
X739651Y421349D01*
X498522Y415144D02*
X489666Y424000D01*
X422351Y438192D02*
X409649Y438192D01*
X422351Y438192D02*
X436543Y424000D01*
X409649Y438192D02*
X391806Y420349D01*
X328651Y420349D01*
X436543Y424000D02*
X489666Y424000D01*
D14*
X467000Y254000D03*
X756000Y367500D03*
D17*
X700000Y385000D02*
X699000Y384000D01*
X699000Y290000D01*
D19*
X699000Y290000D03*
D17*
X756000Y376000D02*
X747000Y385000D01*
X756000Y376000D02*
X756000Y367500D01*
X747000Y385000D02*
X700000Y385000D01*
D20*
X717500Y280000D03*
X717500Y265000D03*
X717500Y250000D03*
X717500Y235000D03*
X735000Y280000D03*
X735000Y265000D03*
X735000Y250000D03*
X735000Y235000D03*
X752500Y280000D03*
X752500Y265000D03*
X752500Y250000D03*
X752500Y235000D03*
X770000Y280000D03*
X770000Y265000D03*
X770000Y250000D03*
X770000Y235000D03*
D14*
X710000Y374000D03*
X765000Y185000D03*
X717500Y185000D03*
D18*
X710000Y287500D02*
X710000Y374000D01*
X710000Y287500D02*
X717500Y280000D01*
D20*
X800000Y280000D03*
X800000Y265000D03*
X800000Y250000D03*
X800000Y235000D03*
X815000Y250000D03*
X815000Y265000D03*
X815000Y280000D03*
X815000Y235000D03*
X830000Y280000D03*
X830000Y265000D03*
X830000Y235000D03*
X830000Y250000D03*
X847500Y235000D03*
X847500Y250000D03*
X847500Y265000D03*
X847500Y280000D03*
D14*
X862500Y380000D03*
X805000Y185000D03*
X855000Y185000D03*
X697500Y441000D03*
X772500Y432500D03*
D17*
X766500Y438500D01*
X697500Y438500D01*
X697500Y441000D01*
D14*
X531000Y372000D03*
X745000Y369000D03*
D15*
X531000Y372000D02*
X531000Y362000D01*
X533382Y359618D02*
X630618Y359618D01*
X533382Y359618D02*
X531000Y362000D01*
X630618Y359618D02*
X636000Y365000D01*
D14*
X636000Y365000D03*
X723000Y365000D03*
D15*
X741000Y365000D01*
X745000Y369000D01*
D14*
X525000Y340000D03*
X540000Y340000D03*
X555000Y340000D03*
X570000Y340000D03*
X585000Y340000D03*
X600000Y340000D03*
X615000Y340000D03*
X525000Y325000D03*
X540000Y325000D03*
X555000Y325000D03*
X570000Y325000D03*
X585000Y325000D03*
X600000Y325000D03*
X615000Y325000D03*
X525000Y310000D03*
X540000Y310000D03*
X555000Y310000D03*
X570000Y310000D03*
X585000Y310000D03*
X600000Y310000D03*
X615000Y310000D03*
X570000Y186000D03*
D15*
X570000Y310000D01*
D14*
X740000Y340000D03*
X755000Y340000D03*
X770000Y340000D03*
X785000Y340000D03*
X800000Y340000D03*
X815000Y340000D03*
X830000Y340000D03*
X740000Y325000D03*
X755000Y325000D03*
X770000Y325000D03*
X785000Y325000D03*
X800000Y325000D03*
X815000Y325000D03*
X830000Y325000D03*
X740000Y310000D03*
X755000Y310000D03*
X770000Y310000D03*
X785000Y310000D03*
X800000Y310000D03*
X815000Y310000D03*
X830000Y310000D03*
X785000Y182500D03*
D21*
X785000Y310000D01*
D17*
X787400Y508000D02*
X787400Y536400D01*
X799912Y548912D01*
X1016088Y548912D01*
X1023912Y541088D02*
X1023912Y213478D01*
X1027000Y210390D01*
X1027000Y189000D01*
X1023912Y541088D02*
X1016088Y548912D01*
D19*
X1027000Y189000D03*
D17*
X812800Y508000D02*
X812800Y532800D01*
X820000Y540000D01*
X1002000Y540000D01*
X1010000Y532000D01*
X1010000Y161000D01*
X1019800Y151200D01*
X1052100Y151200D01*
M02*
