M48
;GenerationSoftware,Autodesk,EAGLE,9.2.1*%
;CreationDate,2018-12-12T20:10:48Z*%
FMAT,2
ICI,OFF
METRIC,TZ,000.000
T7C0.350
T6C0.400
T5C0.406
T4C0.850
T3C1.000
T2C1.016
T1C1.475
%
G90
M71
T1
X86240Y6560
X59960Y6560
X65040Y6560
X65040Y9100
X62500Y9100
X59960Y9100
X59960Y11640
X62500Y11640
X65040Y11640
X49460Y6660
X52000Y6660
X54540Y6660
X54540Y9200
X52000Y9200
X49460Y9200
X49460Y11740
X52000Y11740
X54540Y11740
X81160Y6560
X83700Y6560
X62500Y6560
X86240Y9100
X29040Y20440
X26500Y20440
X23960Y20440
X23960Y17900
X26500Y17900
X29040Y17900
X29040Y15360
X26500Y15360
X23960Y15360
X29040Y38440
X26500Y38440
X23960Y38440
X23960Y35900
X26500Y35900
X29040Y35900
X29040Y33360
X26500Y33360
X23960Y33360
X75840Y11640
X73300Y11640
X70760Y11640
X70760Y9100
X73300Y9100
X75840Y9100
X75840Y6560
X73300Y6560
X70760Y6560
X86240Y11640
X83700Y11640
X81160Y11640
X81160Y9100
X83700Y9100
T2
X107750Y7500
X105210Y7500
X107750Y10040
X105210Y10040
X107750Y12580
X105210Y12580
X107750Y15120
X105210Y15120
X107750Y17660
X105210Y17660
X110250Y10000
X110250Y7460
X93980Y48310
X96520Y48310
X93980Y45770
X96520Y45770
X93980Y43230
X96520Y43230
X93980Y40690
X96520Y40690
T3
X34700Y24700
X34700Y29700
T4
X45720Y2540
X43180Y2540
X40640Y2540
X38100Y2540
X35560Y2540
X33020Y2540
X30480Y2540
X27940Y2540
X41656Y50800
X39116Y50800
X36576Y50800
X34036Y50800
X31496Y50800
X28956Y50800
X26416Y50800
X23876Y50800
X21336Y50800
X18796Y50800
X68580Y50800
X71120Y50800
X73660Y50800
X76200Y50800
X78740Y50800
X81280Y50800
X83820Y50800
X86360Y50800
X45720Y50800
X48260Y50800
X50800Y50800
X53340Y50800
X55880Y50800
X58420Y50800
X60960Y50800
X63500Y50800
T5
X46000Y10600
X66200Y51500
X46000Y8300
X46700Y13300
X45900Y13300
X45100Y13300
X44300Y13300
X45100Y14100
X45900Y14100
X46700Y14100
X44300Y14100
X41700Y41900
X41700Y42600
X68150Y38250
X71000Y37400
X76500Y18500
X71750Y18500
X68000Y27750
X27000Y8500
X33500Y11700
X34900Y11700
X34900Y10800
X33500Y10800
X33500Y9800
X34900Y9800
X19500Y47900
X21100Y47900
X23000Y47900
X24800Y47900
X43200Y9700
X79750Y46000
X48250Y46000
X63150Y47450
X86250Y38000
X80500Y18500
X85500Y18500
X69750Y44100
X77250Y43250
X53100Y37200
X74500Y36900
X63600Y36500
X72300Y36500
X52500Y34000
X89600Y51100
X55500Y34000
X57000Y34000
X58500Y34000
X60000Y34000
X61500Y34000
X52500Y32500
X54000Y32500
X55500Y32500
X57000Y32500
X58500Y32500
X60000Y32500
X61500Y32500
X52500Y31000
X54000Y31000
X55500Y31000
X57000Y31000
X58500Y31000
X60000Y31000
X61500Y31000
X57000Y18600
X74000Y34000
X75500Y34000
X77000Y34000
X78500Y34000
X80000Y34000
X81500Y34000
X83000Y34000
X74000Y32500
X75500Y32500
X77000Y32500
X78500Y32500
X80000Y32500
X81500Y32500
X83000Y32500
X74000Y31000
X75500Y31000
X77000Y31000
X78500Y31000
X80000Y31000
X81500Y31000
X83000Y31000
X78500Y18250
X96500Y51200
X61000Y45250
X82250Y46000
X92400Y46900
X75600Y36750
X46700Y25400
X80500Y39250
X29900Y41400
X81500Y37100
X48400Y40600
X48400Y41700
X74750Y41950
X35200Y47900
X54000Y34000
X78000Y39750
X56000Y44900
X65850Y44400
X33100Y41300
X59000Y36900
X41100Y37300
X54000Y36800
X60800Y42500
X37500Y44000
X53400Y42300
X38200Y43000
X49400Y38000
X55200Y18700
X50000Y18600
X55000Y23500
X53500Y23500
X52000Y23500
X50500Y23500
X55000Y25000
X53500Y25000
X52000Y25000
X50500Y25000
X55000Y26500
X53500Y26500
X52000Y26500
X50500Y26500
X55000Y28000
X53500Y28000
X52000Y28000
X50500Y28000
X64600Y38200
X63900Y18700
X59000Y18600
X63000Y23500
X61500Y23500
X60000Y23500
X58500Y23500
X63000Y25000
X61500Y25000
X60000Y25000
X58500Y25000
X63000Y26500
X61500Y26500
X60000Y26500
X58500Y26500
X63000Y28000
X61500Y28000
X60000Y28000
X58500Y28000
X37800Y48800
X56000Y42500
X57000Y37200
X90000Y39500
X89250Y47500
X74750Y47250
X88450Y48746
X88900Y41000
X53750Y47750
X72300Y47400
X91250Y43250
X90750Y46750
X51250Y46750
X92900Y50300
T6
X80000Y23500
X71750Y28000
X71750Y26500
X73500Y28000
X71750Y25000
X84750Y28000
X84750Y26500
X84750Y25000
X84750Y23500
X83000Y25000
X83000Y23500
X83000Y26500
X83000Y28000
X81500Y23500
X81500Y28000
X81500Y26500
X81500Y25000
X71750Y23500
X80000Y25000
X80000Y26500
X80000Y28000
X77000Y23500
X77000Y25000
X77000Y26500
X77000Y28000
X75250Y23500
X75250Y25000
X75250Y26500
X75250Y28000
X73500Y23500
X73500Y25000
X73500Y26500
T7
X102700Y18900
X69900Y29000
M30