G04 EAGLE Gerber RS-274X export*
G75*
%MOMM*%
%FSLAX34Y34*%
%LPD*%
%INSoldermask Top*%
%IPNEG*%
%AMOC8*
5,1,8,0,0,1.08239X$1,22.5*%
G01*
%ADD10C,1.625600*%
%ADD11R,0.863200X1.543200*%
%ADD12R,10.503200X5.453200*%
%ADD13R,6.433200X5.453200*%
%ADD14R,2.006200X1.803200*%
%ADD15R,1.803200X2.006200*%
%ADD16R,1.803200X1.103200*%
%ADD17R,1.503200X1.003200*%
%ADD18R,0.812800X1.473200*%
%ADD19R,0.812800X1.219200*%
%ADD20R,4.114800X4.013200*%
%ADD21R,1.403200X1.603200*%
%ADD22R,1.982978X1.982978*%
%ADD23C,2.082800*%
%ADD24C,1.508000*%
%ADD25R,1.983200X0.533200*%
%ADD26R,3.203200X3.303200*%
%ADD27R,0.703200X0.803200*%
%ADD28R,0.803200X0.703200*%
%ADD29R,0.903200X1.503200*%
%ADD30R,2.703200X3.453200*%
%ADD31R,1.503200X0.903200*%
%ADD32R,1.103200X0.803200*%
%ADD33C,0.812800*%
%ADD34C,0.803200*%


D10*
X635000Y515112D02*
X635000Y500888D01*
X609600Y500888D02*
X609600Y515112D01*
X584200Y515112D02*
X584200Y500888D01*
X558800Y500888D02*
X558800Y515112D01*
X533400Y515112D02*
X533400Y500888D01*
X508000Y500888D02*
X508000Y515112D01*
X482600Y515112D02*
X482600Y500888D01*
X457200Y500888D02*
X457200Y515112D01*
X863600Y515112D02*
X863600Y500888D01*
X838200Y500888D02*
X838200Y515112D01*
X812800Y515112D02*
X812800Y500888D01*
X787400Y500888D02*
X787400Y515112D01*
X762000Y515112D02*
X762000Y500888D01*
X736600Y500888D02*
X736600Y515112D01*
X711200Y515112D02*
X711200Y500888D01*
X685800Y500888D02*
X685800Y515112D01*
X187960Y515112D02*
X187960Y500888D01*
X213360Y500888D02*
X213360Y515112D01*
X238760Y515112D02*
X238760Y500888D01*
X264160Y500888D02*
X264160Y515112D01*
X289560Y515112D02*
X289560Y500888D01*
X314960Y500888D02*
X314960Y515112D01*
X340360Y515112D02*
X340360Y500888D01*
X365760Y500888D02*
X365760Y515112D01*
X391160Y515112D02*
X391160Y500888D01*
X416560Y500888D02*
X416560Y515112D01*
X279400Y32512D02*
X279400Y18288D01*
X304800Y18288D02*
X304800Y32512D01*
X330200Y32512D02*
X330200Y18288D01*
X355600Y18288D02*
X355600Y32512D01*
X381000Y32512D02*
X381000Y18288D01*
X406400Y18288D02*
X406400Y32512D01*
X431800Y32512D02*
X431800Y18288D01*
X457200Y18288D02*
X457200Y32512D01*
D11*
X570200Y381450D03*
X580050Y381450D03*
X589900Y381450D03*
X599750Y381450D03*
X609600Y381450D03*
X619450Y381450D03*
X629300Y381450D03*
X639150Y381450D03*
X560350Y381450D03*
X550500Y381450D03*
X540650Y381450D03*
X530800Y381450D03*
X520950Y381450D03*
X511100Y381450D03*
X501250Y381450D03*
X570100Y198350D03*
X579950Y198350D03*
X589800Y198350D03*
X599650Y198350D03*
X609500Y198350D03*
X619350Y198350D03*
X629200Y198350D03*
X639050Y198350D03*
X560250Y198350D03*
X550400Y198350D03*
X540550Y198350D03*
X530700Y198350D03*
X520850Y198350D03*
X511000Y198350D03*
X501150Y198350D03*
D12*
X570000Y320500D03*
D13*
X611650Y259500D03*
X528350Y259500D03*
D14*
X608000Y440220D03*
X608000Y411780D03*
X535000Y411780D03*
X535000Y440220D03*
X632000Y411780D03*
X632000Y440220D03*
X511000Y411780D03*
X511000Y440220D03*
X584000Y411780D03*
X584000Y440220D03*
X560000Y411780D03*
X560000Y440220D03*
D15*
X377280Y475000D03*
X405720Y475000D03*
X584220Y35000D03*
X555780Y35000D03*
D16*
X470000Y238000D03*
X470000Y208000D03*
X680500Y299000D03*
X680500Y269000D03*
D17*
X658000Y437000D03*
X658000Y418000D03*
D14*
X345000Y420780D03*
X345000Y449220D03*
D15*
X508220Y539000D03*
X479780Y539000D03*
D18*
X458500Y381270D03*
X445800Y381270D03*
X433100Y381270D03*
X420400Y381270D03*
D19*
X420400Y326660D03*
X433100Y326660D03*
X445800Y326660D03*
X458500Y326660D03*
D20*
X439450Y347742D03*
D21*
X644000Y26000D03*
X614000Y26000D03*
X533000Y26000D03*
X503000Y26000D03*
D11*
X785200Y381450D03*
X795050Y381450D03*
X804900Y381450D03*
X814750Y381450D03*
X824600Y381450D03*
X834450Y381450D03*
X844300Y381450D03*
X854150Y381450D03*
X775350Y381450D03*
X765500Y381450D03*
X755650Y381450D03*
X745800Y381450D03*
X735950Y381450D03*
X726100Y381450D03*
X716250Y381450D03*
X785100Y198350D03*
X794950Y198350D03*
X804800Y198350D03*
X814650Y198350D03*
X824500Y198350D03*
X834350Y198350D03*
X844200Y198350D03*
X854050Y198350D03*
X775250Y198350D03*
X765400Y198350D03*
X755550Y198350D03*
X745700Y198350D03*
X735850Y198350D03*
X726000Y198350D03*
X716150Y198350D03*
D12*
X785000Y320500D03*
D13*
X826650Y259500D03*
X743350Y259500D03*
D14*
X822500Y441720D03*
X822500Y413280D03*
X747500Y413280D03*
X747500Y441720D03*
X847500Y413280D03*
X847500Y441720D03*
X722500Y413280D03*
X722500Y441720D03*
X797500Y413280D03*
X797500Y441720D03*
X772500Y413280D03*
X772500Y441720D03*
D15*
X349220Y474500D03*
X320780Y474500D03*
X798220Y36500D03*
X769780Y36500D03*
D16*
X681500Y341000D03*
X681500Y371000D03*
D17*
X697000Y438000D03*
X697000Y419000D03*
D14*
X312000Y420780D03*
X312000Y449220D03*
D15*
X459220Y475000D03*
X430780Y475000D03*
D18*
X421500Y253730D03*
X434200Y253730D03*
X446900Y253730D03*
X459600Y253730D03*
D19*
X459600Y308340D03*
X446900Y308340D03*
X434200Y308340D03*
X421500Y308340D03*
D20*
X440550Y287258D03*
D21*
X856000Y27000D03*
X826000Y27000D03*
X744500Y26500D03*
X714500Y26500D03*
D22*
X599600Y65600D03*
X625000Y65600D03*
X650400Y65600D03*
X650400Y91000D03*
X625000Y91000D03*
X599600Y91000D03*
X599600Y116400D03*
X625000Y116400D03*
X650400Y116400D03*
X494600Y66600D03*
X520000Y66600D03*
X545400Y66600D03*
X545400Y92000D03*
X520000Y92000D03*
X494600Y92000D03*
X494600Y117400D03*
X520000Y117400D03*
X545400Y117400D03*
X811600Y65600D03*
X837000Y65600D03*
X862400Y65600D03*
X862400Y91000D03*
X837000Y91000D03*
X811600Y91000D03*
X811600Y116400D03*
X837000Y116400D03*
X862400Y116400D03*
X707600Y65600D03*
X733000Y65600D03*
X758400Y65600D03*
X758400Y91000D03*
X733000Y91000D03*
X707600Y91000D03*
X707600Y116400D03*
X733000Y116400D03*
X758400Y116400D03*
X239600Y333600D03*
X265000Y333600D03*
X290400Y333600D03*
X290400Y359000D03*
X265000Y359000D03*
X239600Y359000D03*
X239600Y384400D03*
X265000Y384400D03*
X290400Y384400D03*
X239600Y153600D03*
X265000Y153600D03*
X290400Y153600D03*
X290400Y179000D03*
X265000Y179000D03*
X239600Y179000D03*
X239600Y204400D03*
X265000Y204400D03*
X290400Y204400D03*
D15*
X375780Y448000D03*
X404220Y448000D03*
X375780Y420000D03*
X404220Y420000D03*
X459220Y420000D03*
X430780Y420000D03*
X459220Y448000D03*
X430780Y448000D03*
D23*
X1077500Y75000D03*
X1052100Y75000D03*
X1077500Y100400D03*
X1052100Y100400D03*
X1077500Y125800D03*
X1052100Y125800D03*
X1077500Y151200D03*
X1052100Y151200D03*
X1077500Y176600D03*
X1052100Y176600D03*
X1102500Y100000D03*
X1102500Y74600D03*
X939800Y483100D03*
X965200Y483100D03*
X939800Y457700D03*
X965200Y457700D03*
X939800Y432300D03*
X965200Y432300D03*
X939800Y406900D03*
X965200Y406900D03*
D24*
X347000Y297000D03*
X347000Y247000D03*
D25*
X311838Y128050D03*
X311838Y121550D03*
X311838Y115050D03*
X311838Y108550D03*
X311838Y102050D03*
X311838Y95550D03*
X311838Y89050D03*
X371338Y89050D03*
X371338Y95550D03*
X371338Y102050D03*
X371338Y108550D03*
X371338Y115050D03*
X371338Y121550D03*
X371338Y128050D03*
D26*
X341838Y108550D03*
D27*
X285000Y75000D03*
X275000Y75000D03*
X275000Y96000D03*
X285000Y96000D03*
X285000Y85000D03*
X275000Y85000D03*
X307000Y77000D03*
X317000Y77000D03*
X404000Y105000D03*
X394000Y105000D03*
D28*
X404000Y88000D03*
X404000Y78000D03*
X390000Y78000D03*
X390000Y88000D03*
D29*
X459500Y75000D03*
X440500Y75000D03*
X459500Y99000D03*
X440500Y99000D03*
D27*
X415000Y97000D03*
X425000Y97000D03*
D30*
X395520Y150000D03*
X455520Y150000D03*
D31*
X280000Y108500D03*
X280000Y127500D03*
D32*
X260000Y107500D03*
X260000Y122500D03*
D33*
X460000Y106000D03*
X460000Y83000D03*
X467000Y133000D03*
X459000Y133000D03*
X451000Y133000D03*
X443000Y133000D03*
X451000Y141000D03*
X459000Y141000D03*
X467000Y141000D03*
X443000Y141000D03*
X417000Y419000D03*
X417000Y426000D03*
X681500Y382500D03*
X680000Y277500D03*
X270000Y85000D03*
X335000Y117000D03*
X349000Y117000D03*
X349000Y108000D03*
X335000Y108000D03*
X335000Y98000D03*
X349000Y98000D03*
X195000Y479000D03*
X211000Y479000D03*
X230000Y479000D03*
X248000Y479000D03*
X432000Y97000D03*
X797500Y460000D03*
X482500Y460000D03*
X631500Y474500D03*
X896000Y511000D03*
X965000Y512000D03*
X610000Y452500D03*
X822500Y460000D03*
X924000Y469000D03*
X929000Y503000D03*
X512500Y467500D03*
X907500Y467500D03*
X912500Y432500D03*
X723000Y474000D03*
X537500Y477500D03*
X889000Y410000D03*
X884500Y487458D03*
X747500Y472500D03*
X892500Y475000D03*
X900000Y395000D03*
X570000Y372000D03*
X560000Y425000D03*
X378000Y488000D03*
X585000Y280000D03*
X600000Y280000D03*
X615000Y280000D03*
X630000Y280000D03*
X585000Y265000D03*
X600000Y265000D03*
X615000Y265000D03*
X630000Y265000D03*
X585000Y250000D03*
X600000Y250000D03*
X615000Y250000D03*
X630000Y250000D03*
X585000Y235000D03*
X600000Y235000D03*
X615000Y235000D03*
X630000Y235000D03*
X590000Y186000D03*
X639000Y187000D03*
X646000Y382000D03*
X505000Y280000D03*
X520000Y280000D03*
X535000Y280000D03*
X550000Y280000D03*
X505000Y265000D03*
X520000Y265000D03*
X535000Y265000D03*
X550000Y265000D03*
X505000Y250000D03*
X520000Y250000D03*
X535000Y250000D03*
X550000Y250000D03*
X505000Y235000D03*
X520000Y235000D03*
X535000Y235000D03*
X550000Y235000D03*
X500000Y186000D03*
X552000Y187000D03*
X494000Y380000D03*
X382000Y430000D03*
X534000Y423000D03*
X375000Y440000D03*
X608000Y425000D03*
X540000Y368000D03*
X411000Y373000D03*
X590000Y369000D03*
X331000Y413000D03*
X658500Y444000D03*
X560000Y449000D03*
X780000Y397500D03*
X662000Y515000D03*
X352000Y479000D03*
X747500Y419500D03*
X484000Y417000D03*
X484000Y406000D03*
X815000Y371000D03*
X299000Y414000D03*
X805000Y392500D03*
X467000Y254000D03*
X756000Y367500D03*
D34*
X717500Y280000D03*
X717500Y265000D03*
X717500Y250000D03*
X717500Y235000D03*
X735000Y280000D03*
X735000Y265000D03*
X735000Y250000D03*
X735000Y235000D03*
X752500Y280000D03*
X752500Y265000D03*
X752500Y250000D03*
X752500Y235000D03*
X770000Y280000D03*
X770000Y265000D03*
X770000Y250000D03*
X770000Y235000D03*
D33*
X710000Y374000D03*
X765000Y185000D03*
X717500Y185000D03*
D34*
X800000Y280000D03*
X800000Y265000D03*
X800000Y250000D03*
X800000Y235000D03*
X815000Y250000D03*
X815000Y265000D03*
X815000Y280000D03*
X815000Y235000D03*
X830000Y280000D03*
X830000Y265000D03*
X830000Y235000D03*
X830000Y250000D03*
X847500Y235000D03*
X847500Y250000D03*
X847500Y265000D03*
X847500Y280000D03*
D33*
X862500Y380000D03*
X805000Y185000D03*
X855000Y185000D03*
X697500Y441000D03*
X772500Y432500D03*
X531000Y372000D03*
X745000Y369000D03*
X636000Y365000D03*
X723000Y365000D03*
X525000Y340000D03*
X540000Y340000D03*
X555000Y340000D03*
X570000Y340000D03*
X585000Y340000D03*
X600000Y340000D03*
X615000Y340000D03*
X525000Y325000D03*
X540000Y325000D03*
X555000Y325000D03*
X570000Y325000D03*
X585000Y325000D03*
X600000Y325000D03*
X615000Y325000D03*
X525000Y310000D03*
X540000Y310000D03*
X555000Y310000D03*
X570000Y310000D03*
X585000Y310000D03*
X600000Y310000D03*
X615000Y310000D03*
X570000Y186000D03*
X740000Y340000D03*
X755000Y340000D03*
X770000Y340000D03*
X785000Y340000D03*
X800000Y340000D03*
X815000Y340000D03*
X830000Y340000D03*
X740000Y325000D03*
X755000Y325000D03*
X770000Y325000D03*
X785000Y325000D03*
X800000Y325000D03*
X815000Y325000D03*
X830000Y325000D03*
X740000Y310000D03*
X755000Y310000D03*
X770000Y310000D03*
X785000Y310000D03*
X800000Y310000D03*
X815000Y310000D03*
X830000Y310000D03*
X785000Y182500D03*
M02*
