G04 EAGLE Gerber RS-274X export*
G75*
%MOMM*%
%FSLAX34Y34*%
%LPD*%
%INSolderpaste Top*%
%IPPOS*%
%AMOC8*
5,1,8,0,0,1.08239X$1,22.5*%
G01*
%ADD10R,0.660000X1.340000*%
%ADD11R,10.300000X5.250000*%
%ADD12R,6.230000X5.250000*%
%ADD13R,1.803000X1.600000*%
%ADD14R,1.600000X1.803000*%
%ADD15R,1.600000X0.900000*%
%ADD16R,1.300000X0.800000*%
%ADD17R,0.609600X1.270000*%
%ADD18R,0.609600X1.016000*%
%ADD19R,3.911600X3.810000*%
%ADD20R,1.200000X1.400000*%
%ADD21R,1.780000X0.330000*%
%ADD22R,3.000000X3.100000*%
%ADD23R,0.500000X0.600000*%
%ADD24R,0.600000X0.500000*%
%ADD25R,0.700000X1.300000*%
%ADD26R,2.500000X3.250000*%
%ADD27R,1.300000X0.700000*%
%ADD28R,0.900000X0.600000*%


D10*
X570200Y381450D03*
X580050Y381450D03*
X589900Y381450D03*
X599750Y381450D03*
X609600Y381450D03*
X619450Y381450D03*
X629300Y381450D03*
X639150Y381450D03*
X560350Y381450D03*
X550500Y381450D03*
X540650Y381450D03*
X530800Y381450D03*
X520950Y381450D03*
X511100Y381450D03*
X501250Y381450D03*
X570100Y198350D03*
X579950Y198350D03*
X589800Y198350D03*
X599650Y198350D03*
X609500Y198350D03*
X619350Y198350D03*
X629200Y198350D03*
X639050Y198350D03*
X560250Y198350D03*
X550400Y198350D03*
X540550Y198350D03*
X530700Y198350D03*
X520850Y198350D03*
X511000Y198350D03*
X501150Y198350D03*
D11*
X570000Y320500D03*
D12*
X611650Y259500D03*
X528350Y259500D03*
D13*
X608000Y440220D03*
X608000Y411780D03*
X535000Y411780D03*
X535000Y440220D03*
X632000Y411780D03*
X632000Y440220D03*
X511000Y411780D03*
X511000Y440220D03*
X584000Y411780D03*
X584000Y440220D03*
X560000Y411780D03*
X560000Y440220D03*
D14*
X377280Y475000D03*
X405720Y475000D03*
X584220Y35000D03*
X555780Y35000D03*
D15*
X470000Y238000D03*
X470000Y208000D03*
X680500Y299000D03*
X680500Y269000D03*
D16*
X658000Y437000D03*
X658000Y418000D03*
D13*
X345000Y420780D03*
X345000Y449220D03*
D14*
X508220Y539000D03*
X479780Y539000D03*
D17*
X458500Y381270D03*
X445800Y381270D03*
X433100Y381270D03*
X420400Y381270D03*
D18*
X420400Y326660D03*
X433100Y326660D03*
X445800Y326660D03*
X458500Y326660D03*
D19*
X439450Y347742D03*
D20*
X644000Y26000D03*
X614000Y26000D03*
X533000Y26000D03*
X503000Y26000D03*
D10*
X785200Y381450D03*
X795050Y381450D03*
X804900Y381450D03*
X814750Y381450D03*
X824600Y381450D03*
X834450Y381450D03*
X844300Y381450D03*
X854150Y381450D03*
X775350Y381450D03*
X765500Y381450D03*
X755650Y381450D03*
X745800Y381450D03*
X735950Y381450D03*
X726100Y381450D03*
X716250Y381450D03*
X785100Y198350D03*
X794950Y198350D03*
X804800Y198350D03*
X814650Y198350D03*
X824500Y198350D03*
X834350Y198350D03*
X844200Y198350D03*
X854050Y198350D03*
X775250Y198350D03*
X765400Y198350D03*
X755550Y198350D03*
X745700Y198350D03*
X735850Y198350D03*
X726000Y198350D03*
X716150Y198350D03*
D11*
X785000Y320500D03*
D12*
X826650Y259500D03*
X743350Y259500D03*
D13*
X822500Y441720D03*
X822500Y413280D03*
X747500Y413280D03*
X747500Y441720D03*
X847500Y413280D03*
X847500Y441720D03*
X722500Y413280D03*
X722500Y441720D03*
X797500Y413280D03*
X797500Y441720D03*
X772500Y413280D03*
X772500Y441720D03*
D14*
X349220Y474500D03*
X320780Y474500D03*
X798220Y36500D03*
X769780Y36500D03*
D15*
X681500Y341000D03*
X681500Y371000D03*
D16*
X697000Y438000D03*
X697000Y419000D03*
D13*
X312000Y420780D03*
X312000Y449220D03*
D14*
X459220Y475000D03*
X430780Y475000D03*
D17*
X421500Y253730D03*
X434200Y253730D03*
X446900Y253730D03*
X459600Y253730D03*
D18*
X459600Y308340D03*
X446900Y308340D03*
X434200Y308340D03*
X421500Y308340D03*
D19*
X440550Y287258D03*
D20*
X856000Y27000D03*
X826000Y27000D03*
X744500Y26500D03*
X714500Y26500D03*
D14*
X375780Y448000D03*
X404220Y448000D03*
X375780Y420000D03*
X404220Y420000D03*
X459220Y420000D03*
X430780Y420000D03*
X459220Y448000D03*
X430780Y448000D03*
D21*
X311838Y128050D03*
X311838Y121550D03*
X311838Y115050D03*
X311838Y108550D03*
X311838Y102050D03*
X311838Y95550D03*
X311838Y89050D03*
X371338Y89050D03*
X371338Y95550D03*
X371338Y102050D03*
X371338Y108550D03*
X371338Y115050D03*
X371338Y121550D03*
X371338Y128050D03*
D22*
X341838Y108550D03*
D23*
X285000Y75000D03*
X275000Y75000D03*
X275000Y96000D03*
X285000Y96000D03*
X285000Y85000D03*
X275000Y85000D03*
X307000Y77000D03*
X317000Y77000D03*
X404000Y105000D03*
X394000Y105000D03*
D24*
X404000Y88000D03*
X404000Y78000D03*
X390000Y78000D03*
X390000Y88000D03*
D25*
X459500Y75000D03*
X440500Y75000D03*
X459500Y99000D03*
X440500Y99000D03*
D23*
X415000Y97000D03*
X425000Y97000D03*
D26*
X395520Y150000D03*
X455520Y150000D03*
D27*
X280000Y108500D03*
X280000Y127500D03*
D28*
X260000Y107500D03*
X260000Y122500D03*
M02*
