G04 EAGLE Gerber RS-274X export*
G75*
%MOMM*%
%FSLAX34Y34*%
%LPD*%
%INSoldermask Bottom*%
%IPNEG*%
%AMOC8*
5,1,8,0,0,1.08239X$1,22.5*%
G01*
%ADD10C,1.625600*%
%ADD11R,1.982978X1.982978*%
%ADD12C,2.082800*%
%ADD13C,1.508000*%
%ADD14C,0.812800*%
%ADD15C,0.803200*%


D10*
X635000Y515112D02*
X635000Y500888D01*
X609600Y500888D02*
X609600Y515112D01*
X584200Y515112D02*
X584200Y500888D01*
X558800Y500888D02*
X558800Y515112D01*
X533400Y515112D02*
X533400Y500888D01*
X508000Y500888D02*
X508000Y515112D01*
X482600Y515112D02*
X482600Y500888D01*
X457200Y500888D02*
X457200Y515112D01*
X863600Y515112D02*
X863600Y500888D01*
X838200Y500888D02*
X838200Y515112D01*
X812800Y515112D02*
X812800Y500888D01*
X787400Y500888D02*
X787400Y515112D01*
X762000Y515112D02*
X762000Y500888D01*
X736600Y500888D02*
X736600Y515112D01*
X711200Y515112D02*
X711200Y500888D01*
X685800Y500888D02*
X685800Y515112D01*
X187960Y515112D02*
X187960Y500888D01*
X213360Y500888D02*
X213360Y515112D01*
X238760Y515112D02*
X238760Y500888D01*
X264160Y500888D02*
X264160Y515112D01*
X289560Y515112D02*
X289560Y500888D01*
X314960Y500888D02*
X314960Y515112D01*
X340360Y515112D02*
X340360Y500888D01*
X365760Y500888D02*
X365760Y515112D01*
X391160Y515112D02*
X391160Y500888D01*
X416560Y500888D02*
X416560Y515112D01*
X279400Y32512D02*
X279400Y18288D01*
X304800Y18288D02*
X304800Y32512D01*
X330200Y32512D02*
X330200Y18288D01*
X355600Y18288D02*
X355600Y32512D01*
X381000Y32512D02*
X381000Y18288D01*
X406400Y18288D02*
X406400Y32512D01*
X431800Y32512D02*
X431800Y18288D01*
X457200Y18288D02*
X457200Y32512D01*
D11*
X599600Y65600D03*
X625000Y65600D03*
X650400Y65600D03*
X650400Y91000D03*
X625000Y91000D03*
X599600Y91000D03*
X599600Y116400D03*
X625000Y116400D03*
X650400Y116400D03*
X494600Y66600D03*
X520000Y66600D03*
X545400Y66600D03*
X545400Y92000D03*
X520000Y92000D03*
X494600Y92000D03*
X494600Y117400D03*
X520000Y117400D03*
X545400Y117400D03*
X811600Y65600D03*
X837000Y65600D03*
X862400Y65600D03*
X862400Y91000D03*
X837000Y91000D03*
X811600Y91000D03*
X811600Y116400D03*
X837000Y116400D03*
X862400Y116400D03*
X707600Y65600D03*
X733000Y65600D03*
X758400Y65600D03*
X758400Y91000D03*
X733000Y91000D03*
X707600Y91000D03*
X707600Y116400D03*
X733000Y116400D03*
X758400Y116400D03*
X239600Y333600D03*
X265000Y333600D03*
X290400Y333600D03*
X290400Y359000D03*
X265000Y359000D03*
X239600Y359000D03*
X239600Y384400D03*
X265000Y384400D03*
X290400Y384400D03*
X239600Y153600D03*
X265000Y153600D03*
X290400Y153600D03*
X290400Y179000D03*
X265000Y179000D03*
X239600Y179000D03*
X239600Y204400D03*
X265000Y204400D03*
X290400Y204400D03*
D12*
X1077500Y75000D03*
X1052100Y75000D03*
X1077500Y100400D03*
X1052100Y100400D03*
X1077500Y125800D03*
X1052100Y125800D03*
X1077500Y151200D03*
X1052100Y151200D03*
X1077500Y176600D03*
X1052100Y176600D03*
X1102500Y100000D03*
X1102500Y74600D03*
X939800Y483100D03*
X965200Y483100D03*
X939800Y457700D03*
X965200Y457700D03*
X939800Y432300D03*
X965200Y432300D03*
X939800Y406900D03*
X965200Y406900D03*
D13*
X347000Y297000D03*
X347000Y247000D03*
D14*
X460000Y106000D03*
X460000Y83000D03*
X467000Y133000D03*
X459000Y133000D03*
X451000Y133000D03*
X443000Y133000D03*
X451000Y141000D03*
X459000Y141000D03*
X467000Y141000D03*
X443000Y141000D03*
X417000Y419000D03*
X417000Y426000D03*
X681500Y382500D03*
X680000Y277500D03*
X270000Y85000D03*
X335000Y117000D03*
X349000Y117000D03*
X349000Y108000D03*
X335000Y108000D03*
X335000Y98000D03*
X349000Y98000D03*
X195000Y479000D03*
X211000Y479000D03*
X230000Y479000D03*
X248000Y479000D03*
X432000Y97000D03*
X797500Y460000D03*
X482500Y460000D03*
X631500Y474500D03*
X896000Y511000D03*
X965000Y512000D03*
X610000Y452500D03*
X822500Y460000D03*
X924000Y469000D03*
X929000Y503000D03*
X512500Y467500D03*
X907500Y467500D03*
X912500Y432500D03*
X723000Y474000D03*
X537500Y477500D03*
X889000Y410000D03*
X884500Y487458D03*
X747500Y472500D03*
X892500Y475000D03*
X900000Y395000D03*
X570000Y372000D03*
X560000Y425000D03*
X378000Y488000D03*
X585000Y280000D03*
X600000Y280000D03*
X615000Y280000D03*
X630000Y280000D03*
X585000Y265000D03*
X600000Y265000D03*
X615000Y265000D03*
X630000Y265000D03*
X585000Y250000D03*
X600000Y250000D03*
X615000Y250000D03*
X630000Y250000D03*
X585000Y235000D03*
X600000Y235000D03*
X615000Y235000D03*
X630000Y235000D03*
X590000Y186000D03*
X639000Y187000D03*
X646000Y382000D03*
X505000Y280000D03*
X520000Y280000D03*
X535000Y280000D03*
X550000Y280000D03*
X505000Y265000D03*
X520000Y265000D03*
X535000Y265000D03*
X550000Y265000D03*
X505000Y250000D03*
X520000Y250000D03*
X535000Y250000D03*
X550000Y250000D03*
X505000Y235000D03*
X520000Y235000D03*
X535000Y235000D03*
X550000Y235000D03*
X500000Y186000D03*
X552000Y187000D03*
X494000Y380000D03*
X382000Y430000D03*
X534000Y423000D03*
X375000Y440000D03*
X608000Y425000D03*
X540000Y368000D03*
X411000Y373000D03*
X590000Y369000D03*
X331000Y413000D03*
X658500Y444000D03*
X560000Y449000D03*
X780000Y397500D03*
X662000Y515000D03*
X352000Y479000D03*
X747500Y419500D03*
X484000Y417000D03*
X484000Y406000D03*
X815000Y371000D03*
X299000Y414000D03*
X805000Y392500D03*
X467000Y254000D03*
X756000Y367500D03*
D15*
X717500Y280000D03*
X717500Y265000D03*
X717500Y250000D03*
X717500Y235000D03*
X735000Y280000D03*
X735000Y265000D03*
X735000Y250000D03*
X735000Y235000D03*
X752500Y280000D03*
X752500Y265000D03*
X752500Y250000D03*
X752500Y235000D03*
X770000Y280000D03*
X770000Y265000D03*
X770000Y250000D03*
X770000Y235000D03*
D14*
X710000Y374000D03*
X765000Y185000D03*
X717500Y185000D03*
D15*
X800000Y280000D03*
X800000Y265000D03*
X800000Y250000D03*
X800000Y235000D03*
X815000Y250000D03*
X815000Y265000D03*
X815000Y280000D03*
X815000Y235000D03*
X830000Y280000D03*
X830000Y265000D03*
X830000Y235000D03*
X830000Y250000D03*
X847500Y235000D03*
X847500Y250000D03*
X847500Y265000D03*
X847500Y280000D03*
D14*
X862500Y380000D03*
X805000Y185000D03*
X855000Y185000D03*
X697500Y441000D03*
X772500Y432500D03*
X531000Y372000D03*
X745000Y369000D03*
X636000Y365000D03*
X723000Y365000D03*
X525000Y340000D03*
X540000Y340000D03*
X555000Y340000D03*
X570000Y340000D03*
X585000Y340000D03*
X600000Y340000D03*
X615000Y340000D03*
X525000Y325000D03*
X540000Y325000D03*
X555000Y325000D03*
X570000Y325000D03*
X585000Y325000D03*
X600000Y325000D03*
X615000Y325000D03*
X525000Y310000D03*
X540000Y310000D03*
X555000Y310000D03*
X570000Y310000D03*
X585000Y310000D03*
X600000Y310000D03*
X615000Y310000D03*
X570000Y186000D03*
X740000Y340000D03*
X755000Y340000D03*
X770000Y340000D03*
X785000Y340000D03*
X800000Y340000D03*
X815000Y340000D03*
X830000Y340000D03*
X740000Y325000D03*
X755000Y325000D03*
X770000Y325000D03*
X785000Y325000D03*
X800000Y325000D03*
X815000Y325000D03*
X830000Y325000D03*
X740000Y310000D03*
X755000Y310000D03*
X770000Y310000D03*
X785000Y310000D03*
X800000Y310000D03*
X815000Y310000D03*
X830000Y310000D03*
X785000Y182500D03*
M02*
